<?xml version="1.0" encoding="utf-8"?>
<!-- Generator: Adobe Illustrator 16.0.0, SVG Export Plug-In . SVG Version: 6.00 Build 0)  -->
<!DOCTYPE svg PUBLIC "-//W3C//DTD SVG 1.1//EN" "http://www.w3.org/Graphics/SVG/1.1/DTD/svg11.dtd">
<svg version="1.1" id="Layer_1" xmlns="http://www.w3.org/2000/svg" xmlns:xlink="http://www.w3.org/1999/xlink" x="0px" y="0px"
	 width="256px" height="256px" viewBox="0 0 256 256" enable-background="new 0 0 256 256" xml:space="preserve">
<g>
	<path fill="#FFFFFF" d="M185.475,107.493c1.716-6.044,3.142-11.855,5.063-17.498c0.961-2.823,0.79-4.544-1.46-6.806
		c-5.708-5.736-8.658-12.932-7.047-20.981c0.762-3.805-0.482-5.386-3.115-7.309c-22.754-16.617-47.864-22.293-75.512-16.593
		C47.812,49.769,15.465,111.411,37.631,163.68c17.108,40.339,58.161,63.14,101.124,55.916c3.81-0.641,10.436-2.861,10.438-4.357
		c0.008-4.405-2.455-8.907-4.378-13.18c-0.806-1.79-2.881-2.963-4.039-4.649c-4.216-6.144-9.005-12.037-12.229-18.681
		c-3.878-7.989-0.708-15.24,7.014-19.385c7.495-4.021,14.2-2.154,19.735,4.693c4.213,5.211,8.604,10.541,13.889,14.531
		c3.642,2.751,8.944,3.304,13.636,4.883c0-16.893,0-32.116,0-47.694c-14.482,6.836-24.823,5.07-31.004-4.794
		c-5.586-8.911-3.817-20.269,4.187-26.899C164.782,96.792,175.516,97.937,185.475,107.493z M218.122,89.869
		c-5.606,0.409-9.929,1.728-13.659,0.762c-5.59-1.447-7.163,0.619-8.384,5.443c-8.503,33.621-8.763,67.437-2.467,101.367
		c1.147,6.179,3.22,12.319,5.833,18.037c1.303,2.85,4.953,6.68,7.255,6.496c2.862-0.229,6.317-3.663,7.919-6.589
		c2.472-4.512,4.023-9.664,5.206-14.722c5.898-25.252,6.636-50.881,4.145-76.55C222.845,112.52,220.087,101.083,218.122,89.869z
		 M203.478,32.99c1.63,10.035,1.138,11.425-5.534,17.896c-1.746,1.694-3.547,3.372-5.045,5.273
		c-3.186,4.041-4.392,8.607-2.947,13.692c2.663,9.37,11.931,15.22,20.609,13.012c10.642-2.708,16.498-12.081,13.494-22.771
		C220.91,48.898,213.751,40.436,203.478,32.99z"/>
	<path fill-rule="evenodd" clip-rule="evenodd" fill="#FFFFFF" d="M185.475,107.493c-9.959-9.556-20.692-10.701-29.472-3.429
		c-8.004,6.63-9.772,17.988-4.187,26.899c6.181,9.864,16.521,11.63,31.004,4.794c0,15.578,0,30.802,0,47.694
		c-4.691-1.579-9.994-2.132-13.636-4.883c-5.284-3.99-9.676-9.32-13.889-14.531c-5.535-6.848-12.24-8.715-19.735-4.693
		c-7.722,4.145-10.892,11.396-7.014,19.385c3.224,6.644,8.013,12.537,12.229,18.681c1.158,1.687,3.233,2.859,4.039,4.649
		c1.923,4.272,4.386,8.774,4.378,13.18c-0.002,1.496-6.628,3.717-10.438,4.357c-42.962,7.224-84.016-15.577-101.124-55.916
		C15.465,111.411,47.812,49.769,103.404,38.307c27.647-5.7,52.758-0.024,75.512,16.593c2.633,1.923,3.877,3.504,3.115,7.309
		c-1.611,8.049,1.339,15.245,7.047,20.981c2.25,2.261,2.421,3.983,1.46,6.806C188.616,95.638,187.19,101.449,185.475,107.493z
		 M116.806,76.947c0.036,8.334,7.12,15.352,15.429,15.287c8.109-0.064,15.468-7.539,15.346-15.59
		c-0.124-8.123-7.482-15.305-15.657-15.284C123.594,61.383,116.769,68.419,116.806,76.947z M95.081,102.334
		c0.024-8.518-6.955-15.543-15.33-15.431c-8,0.107-15.199,7.188-15.342,15.088c-0.151,8.302,6.907,15.533,15.262,15.638
		C88.161,117.735,95.056,110.893,95.081,102.334z M78.273,144.287c-8.827-0.07-15.441,6.395-15.411,15.063
		c0.03,8.505,6.415,15.211,14.661,15.397c8.427,0.191,15.722-6.634,15.965-14.935C93.731,151.506,86.723,144.354,78.273,144.287z"/>
	<path fill-rule="evenodd" clip-rule="evenodd" fill="#FFFFFF" d="M218.122,89.869c1.965,11.214,4.723,22.65,5.848,34.245
		c2.491,25.669,1.754,51.298-4.145,76.55c-1.183,5.058-2.734,10.21-5.206,14.722c-1.602,2.926-5.057,6.359-7.919,6.589
		c-2.302,0.184-5.952-3.646-7.255-6.496c-2.613-5.718-4.686-11.858-5.833-18.037c-6.296-33.93-6.036-67.746,2.467-101.367
		c1.221-4.825,2.794-6.891,8.384-5.443C208.193,91.597,212.516,90.278,218.122,89.869z"/>
	<path fill-rule="evenodd" clip-rule="evenodd" fill="#FFFFFF" d="M203.478,32.99c10.273,7.445,17.433,15.908,20.577,27.102
		c3.004,10.691-2.853,20.063-13.494,22.771c-8.679,2.208-17.946-3.642-20.609-13.012c-1.444-5.085-0.238-9.652,2.947-13.692
		c1.498-1.902,3.299-3.58,5.045-5.273C204.615,44.416,205.107,43.025,203.478,32.99z"/>
	<path fill-rule="evenodd" clip-rule="evenodd" fill="#FFFFFF" d="M116.806,76.947c-0.037-8.528,6.788-15.564,15.118-15.586
		c8.175-0.021,15.533,7.161,15.657,15.284c0.122,8.051-7.236,15.526-15.346,15.59C123.926,92.299,116.842,85.281,116.806,76.947z"/>
	<path fill-rule="evenodd" clip-rule="evenodd" fill="#FFFFFF" d="M95.081,102.334c-0.025,8.558-6.92,15.401-15.41,15.295
		c-8.355-0.104-15.413-7.335-15.262-15.638c0.143-7.9,7.343-14.981,15.342-15.088C88.126,86.792,95.105,93.817,95.081,102.334z"/>
	<path fill-rule="evenodd" clip-rule="evenodd" fill="#FFFFFF" d="M78.273,144.287c8.45,0.067,15.458,7.219,15.214,15.526
		c-0.243,8.301-7.538,15.126-15.965,14.935c-8.246-0.187-14.631-6.893-14.661-15.397C62.833,150.682,69.446,144.217,78.273,144.287z
		"/>
</g>
</svg>
