<?xml version="1.0" encoding="utf-8"?>
<!-- Generator: Adobe Illustrator 16.0.0, SVG Export Plug-In . SVG Version: 6.00 Build 0)  -->
<!DOCTYPE svg PUBLIC "-//W3C//DTD SVG 1.1//EN" "http://www.w3.org/Graphics/SVG/1.1/DTD/svg11.dtd">
<svg version="1.1" xmlns="http://www.w3.org/2000/svg" xmlns:xlink="http://www.w3.org/1999/xlink" x="0px" y="0px" width="1024px"
	 height="1024px" viewBox="0 0 1024 1024" enable-background="new 0 0 1024 1024" xml:space="preserve">
<g id="Layer_2">
	<path fill="#F6D591" d="M325.91,517.404c-3.271-8.629-11.713-12.413-20.179-8.209c-16.368,8.129-21.943,25.479-23.065,42.549
		c-8.313,14.902-5.969,32.668-5.717,48.984c0.274,17.699,27.748,17.727,27.474,0c-0.138-8.881-0.75-17.723-0.297-26.604
		c0.159-3.129,1.006-5.826,2.258-8.275c1.063-1.104,1.924-2.443,2.538-3.986c2.099-2.77,4.642-5.289,7.226-7.854
		C326.423,543.826,331.23,531.436,325.91,517.404z"/>
	<path fill="#F6D591" d="M327.775,599.355c-17.717,0-17.717,27.473,0,27.473S345.492,599.355,327.775,599.355z"/>
	<path fill="#F6D591" d="M680.904,312.161c-2.318-2.349-4.516-4.792-6.631-7.326c-0.876-1.047-1.718-2.123-2.561-3.197
		c-0.1-0.132-0.183-0.24-0.33-0.433c-0.18-0.237-0.357-0.475-0.534-0.712c2.22-2.86,3.048-6.658,1.227-11.117
		c-5.562-13.604-14.02-25.104-21.143-37.863c-3.87-6.934-5.521-13.866-6.403-20.927c0.579-1.821,1.1-3.659,1.468-5.544
		c2.579-13.225-3.473-24.02-11.795-33.765c-10.712-12.536-28.149,3.435-21.392,16.503c-0.289,0.779-0.595,1.544-0.875,2.33
		c-1.395-3.89-3.415-7.689-6.312-11.406c-6.021-7.729-15.055-12.312-22.629-18.698c-2.099-2.25-4.238-4.467-6.487-6.586
		c-7.146-6.731-15.309-4.513-19.662,1.091c-1.062-0.779-2.148-1.509-3.269-2.187c11.397-5.242,9.379-26.047-6.016-26.28
		c-11.983-0.181-23.823-1.295-35.715-2.747c-4.227-0.517-7.564,1.156-9.867,3.859c-0.638-0.106-1.279-0.193-1.918-0.306
		c-1.98-1.324-4.455-2.148-7.447-2.18c-1.252-0.014-2.497-0.034-3.737-0.054c-5.775-1.24-11.541-2.538-17.336-3.577
		c-5.475-0.981-9.969,0.925-12.99,4.108c-11.621,1.205-22.806,4.292-33.713,11.811c-3.581,2.468-7.242,4.809-10.941,7.088
		c-0.963-3.273-1.829-6.565-2.595-9.877c-0.115-1.134-0.25-2.264-0.42-3.381c7.463-2.498,13.338-10.919,8.428-19.92
		c-8.187-15.008-16.244-29.334-36.118-24.171c-6.772,1.76-12.185,9.945-9.594,16.898c2.854,7.665,6.169,15.105,8.314,22.813
		c0.603,3.895,1.299,7.768,2.111,11.62c0.142,1.926,0.179,3.88,0.073,5.873c-0.145,2.694,0.375,4.969,1.352,6.84
		c-3.352,8.257-4.585,17.111,2.119,23.754c0.176,6.906,0.138,13.804-0.483,20.646c-4.622,0.608-8.899,3.641-10.738,9.671
		c-3.706,12.151-7.125,23.899-7.434,36.458c-5.764,19.528-10.288,39.959,8.179,49.223c8.855,4.441,16.496,0.825,22.651-5.015
		c19.388-9.078,39.384-17.493,56.151-31.038c3.303-2.669,6.313-5.49,9.087-8.435c2.979-0.781,5.782-2.644,7.903-5.883
		c5.75-8.779,10.399-17.616,12.372-28.006c0.24-1.257,0.288-2.445,0.254-3.598c1.394-5.298,2.391-10.807,2.985-16.538
		c0.308-2.99-0.24-5.455-1.351-7.422c3.743-8.534,6.7-17.396,8.288-26.26c1.291,0.414,2.638,0.703,4.052,0.713
		c1.185,0.009,2.364,0.052,3.547,0.115c4.853,31.726,16.108,66.725,39.907,89.219c26.457,25.006,66.325,11.947,95.692,27.229
		c0.848,6.499,3.086,12.727,6.963,18.122c1.19,1.656,2.623,3.068,4.21,4.177c3.66,4.765,7.447,9.427,11.674,13.715
		c5.259,5.327,14.163,5.265,19.427,0C686.224,326.268,686.16,317.489,680.904,312.161z M420.567,192.145
		c-1.766,2.758-3.62,5.653-5.504,8.643c-0.009-1.957-0.034-3.916-0.079-5.874c0.973-0.455,1.918-0.914,2.818-1.357
		c0.96-0.474,1.889-1.013,2.833-1.52C420.613,192.072,420.59,192.109,420.567,192.145z"/>
	<path fill="#F6D591" d="M640.066,40.763c-24.137,9.329-43.088,31.415-57.562,52.152c-7.689,11.019-15.905,23.103-18.771,36.426
		c-3.335,15.49,4.524,28.647,13.951,40.153c11.234,13.714,30.555-5.843,19.427-19.427c-6.465-7.889-8.202-13.608-3.671-22.771
		c4.405-8.903,10.423-17.408,16.29-25.41c9.081-12.382,22.911-28.941,37.639-34.633C663.714,60.939,656.618,34.367,640.066,40.763z"
		/>
	<path fill-rule="evenodd" clip-rule="evenodd" fill="#FFFFFF" d="M400.579,157.034c-17.717,0-17.717,27.474,0,27.474
		S418.296,157.034,400.579,157.034z"/>
	<path fill-rule="evenodd" clip-rule="evenodd" fill="#F6D591" d="M407.546,130.836c-5.073-5.509-14.299-5.128-19.428,0
		c-5.455,5.456-5.066,13.923,0,19.428c2.189,2.376,0.165-0.222,1.615,2.488c-0.833-1.558,0.332,2.553,0.108,0.61
		c0.444,3.85-0.129,5.892-1.134,9.637c-1.288,4.795-0.136,8.816,2.287,11.747c2.155,3.304,5.801,5.641,10.959,5.641
		c3.021,0,5.513-0.812,7.504-2.137c2.608-1.551,4.721-4.144,5.742-7.949C419.009,156.115,417.816,141.992,407.546,130.836z"/>
	<path fill-rule="evenodd" clip-rule="evenodd" fill="#F6D591" d="M621.805,187.756c-14.698-9.058-21.329-25.436-32.936-37.688
		c-1.14-1.203-2.375-2.085-3.653-2.743c6.416-13.332-10.996-29.379-21.269-16.489c-9.225,11.579-21.118,34.968-6.633,47.922
		c8.014,7.165,15.66,6.723,21.96,2.551c8.411,11.07,15.802,22.242,28.664,30.17C623.066,220.802,636.854,197.031,621.805,187.756z"
		/>
	<path fill-rule="evenodd" clip-rule="evenodd" fill="#F6D591" d="M493.989,172.144c0.39-17.728-27.085-17.688-27.473,0
		c-0.251,11.379-2.344,22.298-5.393,33.002c-3.292,2.155-5.614,5.799-5.597,10.955c0.007,1.906,0.057,3.835,0.103,5.762
		c-1.205,3.28-2.444,6.551-3.733,9.818c-0.045,0.115-0.072,0.226-0.115,0.341c-15.302,5.139-29.321,13.706-43.125,22.011
		c-14.854,8.935-25.156,27.239-41.948,32.616c-5.777,1.849-8.852,7.041-9.416,12.387c-7.945,7.272-4.97,24.211,8.946,24.211
		c4.404,0,7.711-1.699,9.926-4.249c4.929-0.337,9.644-1.55,14.331-3.11c3.475-1.157,6.327-3.442,8.106-6.344
		c23.136-4.315,45.745-11.685,64.028-27.021c17.902-15.018,20.137-34.739,20.359-55.92
		C489.168,208.995,493.572,191.106,493.989,172.144z"/>
	<path fill-rule="evenodd" clip-rule="evenodd" fill="#F6D591" d="M300.301,497.705c-0.349,12.575-5.144,24.397-9.124,36.184
		c-5.686,16.834,20.854,23.992,26.491,7.303c4.822-14.277,9.685-28.253,10.107-43.487
		C328.266,479.979,300.791,480.025,300.301,497.705z"/>
	<path fill-rule="evenodd" clip-rule="evenodd" fill="#F6D591" d="M720.645,471.605c-0.836-17.636-28.312-17.718-27.474,0
		c0.824,17.34,4.493,34.24,6.249,51.465c1.901,18.674-2.883,33.719-13.988,48.746c-10.548,14.27,13.313,27.947,23.722,13.865
		c12.231-16.545,18.33-34.744,18.177-55.324C727.184,510.66,721.578,491.291,720.645,471.605z"/>
	<path fill="#F6D591" d="M854.244,869.967c-3.413-10.404-18.146-7.914-19.409,0.812c-4.196-0.436-8.373,1.619-9.388,7.053
		c-0.724,3.881-1.636,7.328-3.585,9.82c-12.014-0.221-23.917-1.131-35.161,3.969c-9.89,4.484-3.616,17.439,4.963,18.324
		c10.912,1.125,22.239,2.873,32.89-0.723c1.622-0.547,3.123-1.236,4.531-2.025c3.183-0.125,6.362-0.391,9.566-0.922
		C857.193,903.205,859.143,884.896,854.244,869.967z"/>
	<path fill="#F6D591" d="M424.963,879.395c-11.329-11.723-20.633-25.082-37.771-28.096c-3.482-0.613-6.724,0.311-9.022,2.246
		c-4.292-4.125-8.955-7.889-14.194-11.088c-7.507-4.586-16.582,2.914-14.444,11.104c3.498,13.395,9.037,26.686,9.481,40.65
		c0.402,12.65,20.07,12.689,19.666,0c-0.122-3.842-0.553-7.617-1.185-11.348c1.526,2.133,3.026,4.291,4.494,6.479
		c3.26,4.857,8.651,5.373,12.792,3.455c0.834,0.822,1.673,1.645,2.511,2.467c4.938,4.857,11.266,2.965,14.559-1.223
		C420.683,901.609,433.516,888.242,424.963,879.395z"/>
	<path fill="#F6D591" d="M342.365,784.996c-3.677-3.898-10.201-3.707-13.906,0c-3.871,3.871-3.675,10.012,0,13.904
		c0.637,0.676,1.729,2.348,2.065,3.271c0.35,0.965,0.573,1.971,0.796,2.969c0.221,1.201,0.246,1.354,0.078,0.461
		c0.055,0.693,0.082,1.387,0.082,2.08c0.104,5.357,4.393,9.832,9.833,9.832c5.28,0,9.938-4.471,9.833-9.832
		C350.979,799.201,348.237,791.221,342.365,784.996z"/>
	<path fill="#F6D591" d="M647.073,860.48c0.551-0.869,1.1-1.729,1.653-2.604c6.837-10.812-9.946-20.326-16.981-9.926
		c-0.89,1.312-1.719,2.654-2.522,4.006c-1.366,2.172-2.73,4.332-4.104,6.469c-2.102-4.166-6.64-7.072-11.108-5.43
		c-3.252-4.666-9.66-6.773-14.159-1.135c-8.35,10.463-16.643,21.328-25.752,31.35c-3.485-2.992-9.174-3.414-13.579,0.115
		c-10.399,8.328-17.571,19.061-18.613,32.52c-0.24,3.092,1.308,5.775,3.613,7.564c0.726,7.082,11.493,9.984,17.105,5.287
		c1.918-1.605,3.782-3.268,5.625-4.951c0.997,3.895,4.023,7.361,9.054,7.832c19.572,1.83,34.309-7.51,46.433-20.584
		c2.052-0.637,3.946-1.914,5.324-3.953c7.446-11.018,15.462-21.613,21.632-33.434C653.629,867.984,651.157,862.879,647.073,860.48z
		 M580.158,912.059c0.53-0.551,1.062-1.1,1.59-1.654c0.44,0.57,0.93,1.092,1.468,1.553
		C582.214,912.033,581.196,912.074,580.158,912.059z"/>
	<path fill="#C98390" d="M540,365c-3.196,0.025-6.442,0.213-9.704,0.398c-1.48-1.463-3.704-2.038-5.819-0.715
		c-0.187,0.116-0.38,0.236-0.567,0.354c-3.699-0.502-7.369-1.225-11.034-2.173c-0.095-2.569-1.902-4.999-4.875-4.863
		c-4.961,0.227-8.791,2.138-12.451,5.409c-1.9,1.698-3.491,3.793-5.493,4.982c-0.455-0.663-0.954-1.309-1.52-1.927
		c-2.528-2.764-7.468-1.349-8.357,2.207c-0.333,1.333-0.667,2.667-1,4c-0.628,2.51,0.778,5.588,3.492,6.15
		c0.518,0.107,1.029,0.191,1.536,0.262c0.934,3.4,1.276,7.219,2.324,10.167c1.672,4.706,4.567,7.942,8.457,9.84
		c0.048,3.56,4.23,6.189,7.536,4.227c14.328-8.505,28.246-15.265,38.748-28.476C546.411,373.576,545.993,364.954,540,365z"/>
</g>
<g id="Layer_1">
	<g id="Ej4XOf_2_">
		<g>
			<g>
				<path fill="#232323" d="M316.78,488.561c1.71-1.685,4.193-3.063,4.999-5.107c4.082-10.341,7.817-20.825,11.493-31.324
					c1.802-5.152,2.602-10.221-3.915-12.08c-1.184,4.069-2.034,7.86-3.385,11.463c-3.695,9.852-7.854,19.539-11.214,29.5
					C314.063,483.066,316.036,486.021,316.78,488.561z"/>
				<path fill="#232323" d="M644.297,895.906c1.668-2.576,3.699-4.979,4.992-7.729c3.646-7.756,5.794-16.535,10.759-23.268
					c6.21-8.424,9.983-17.385,13.069-27.145c1.686-5.336,4.479-10.223,5.699-15.945c1.001-4.695,5.366-8.572,7.147-13.23
					c3.473-9.104,6.343-18.449,9.063-27.811c0.52-1.785-0.817-4.107-1.296-6.182c-1.661,1.1-4.115,1.824-4.846,3.365
					c-2.717,5.738-4.872,11.744-7.102,17.309c-2.478-0.359-4.503-0.652-6.509-0.943c3.511-7.508,4.08-9.109-0.165-13.176
					c-2.831-2.709-7.579-4.805-11.444-4.764c-9.43,0.098-22.721,11.463-24.524,21.113c-1.295,6.938-6.016,11.037-11.043,12.891
					c-6.004,2.209-5.976,5.848-6.355,10.463c-0.751,9.129-3.563,17.666-9.142,24.936c-1.236,1.611-4.605,1.584-7.037,2.32
					c0.906-3.457,1.455-5.551,2.006-7.643c-2.04,0.76-4.082,1.512-6.107,2.301c-0.118,0.047-0.047,0.461-0.171,0.617
					c-7.325,9.367-14.297,19.045-22.169,27.924c-3.247,3.658-8.438,5.596-12.747,8.316c-0.38-0.529-0.758-1.059-1.138-1.586
					c1.183-3.141,2.361-6.275,3.545-9.418l-2.074-1.076c-6.921,9.67-13.843,19.346-20.769,29.023
					c-1.514-0.803-2.627-1.393-4.056-2.152c-5.367,9.16-10.604,18.098-15.846,27.039c0.666,0.443,1.335,0.885,2.002,1.328
					c2.812-3.66,5.628-7.316,9.195-11.953v13.285c0.809,0.297,1.618,0.592,2.428,0.887c6.315-11.842,12.628-23.688,19.162-35.939
					c1.647,2.596,2.635,4.836,4.263,6.424c0.841,0.824,2.815,0.496,4.275,0.688c0.455-3.873,4.474-4.543,6.329-7.021
					c7.247-9.68,14.061-19.682,21.245-29.414c2.451-3.318,5.516-6.186,8.303-9.262c0.528,0.422,1.059,0.842,1.588,1.262
					c-3.114,5.225-6.23,10.447-8.828,14.807c8.489-0.516,16.437-0.9,24.365-1.529c3.292-0.264,6.643-0.709,9.781-1.682
					c3.939-1.221,7.475-2.398,8.634,3.098c2.155-0.666,3.836-1.188,5.516-1.707c0.52,0.428,1.039,0.859,1.559,1.291
					c-12.444,20.273-23.628,41.117-32.867,64.648c6.727-6.041,11.956-10.377,16.742-15.16c3.329-3.328,6.165-7.182,8.997-10.967
					C640.773,901.805,642.437,898.783,644.297,895.906z"/>
				<path fill="#232323" d="M591.603,872.109c-2.309,3.928-4.614,7.857-6.923,11.789c0.833,0.457,1.668,0.92,2.502,1.381
					c2.229-3.986,4.456-7.973,6.686-11.957C593.11,872.918,592.357,872.512,591.603,872.109z"/>
				<path fill="#232323" d="M613.132,1005.797c-4.965-2.227-10.135-4.191-15.418-5.455c-9.495-2.277-19.131-3.967-28.706-5.904
					c-0.223,0.465-0.449,0.93-0.674,1.393c4.864,2.377,9.558,5.246,14.633,7.025c9.138,3.203,18.471,5.861,27.801,8.48
					c1.705,0.477,3.771-0.336,5.671-0.553C615.359,1009.068,614.67,1006.484,613.132,1005.797z"/>
				<path fill="#232323" d="M563.312,906.16c-0.094-0.074-0.187-0.146-0.28-0.221c0.021,0.115,0.039,0.211,0.062,0.322
					c0.037-0.002,0.067-0.008,0.105-0.01C563.236,906.221,563.275,906.191,563.312,906.16z"/>
				<path fill="#232323" d="M573.975,903.58c-0.844-1.475-1.613-2.818-2.38-4.156c-2.76,2.246-5.521,4.49-8.283,6.736
					c1.251,0.965,2.491,1.932,3.661,2.84C569.471,907.066,571.638,905.389,573.975,903.58z"/>
				<path fill="#232323" d="M631.296,1002.234c0.055,0.83,0.113,1.662,0.167,2.49c3.34,0.232,6.677,0.459,11.406,0.781
					c-2.58,2.988-4.334,5.02-6.482,7.51c8.987,1.814,12.793-0.105,18.893-8.875c-3.771-1.27-7.546-3.34-11.456-3.639
					C639.715,1000.193,635.477,1001.586,631.296,1002.234z"/>
				<path fill="#232323" d="M690.999,939.578c-1.134-1.375-2.024-3.148-3.459-4.014c-1.642-0.99-3.759-1.221-5.689-1.693
					c-5.963-1.461-11.906-3.861-17.912-4.043c-5.865-0.18-12.495-0.279-18.784,5.99c12.523,4.141,23.728,7.844,34.933,11.547
					c0.321-0.455,0.643-0.912,0.966-1.365c-2.183-1.971-4.362-3.941-7.923-7.156c5.584,0.822,9.368,1.555,13.188,1.854
					C687.839,940.818,689.437,939.98,690.999,939.578z"/>
				<path fill="#232323" d="M637.268,992.895l2.311,1.844c2.697-2,6.586-3.439,7.856-6.119c2.997-6.334,1.511-12.971-0.738-19.262
					c-1.023-0.162-2.048-0.33-3.07-0.492C641.507,976.875,639.387,984.885,637.268,992.895z"/>
				<path fill="#232323" d="M664.013,966.506c-0.917,2.371-2.345,4.68-2.659,7.129c-0.823,6.4-1.354,12.859-1.613,19.312
					c-0.126,3.189,0.606,6.414,0.951,9.623c-0.395,0.379-0.79,0.758-1.184,1.137c3.915,2.855,5.679,0.787,6.26-3.291
					c0.686-4.832,1.433-9.689,1.607-14.551c0.228-6.293-0.083-12.604-0.162-18.908C666.147,966.807,665.081,966.66,664.013,966.506z
					"/>
				<path fill="#232323" d="M504.893,637.99c-0.958,0.326-1.916,0.66-2.872,0.99c-0.415,2.869-1.859,6.078-1.043,8.539
					c2.075,6.248,4.95,12.271,8.021,18.115c0.633,1.205,4.059,2.217,5.241,1.568c1.964-1.072,4.858-4.445,4.406-5.316
					C514.42,653.732,509.565,645.906,504.893,637.99z"/>
				<path fill="#232323" d="M496.915,924.814c-4.385,7.562-0.303,15.707,10.508,20.781
					C503.495,938.41,503.964,929.936,496.915,924.814z"/>
				<path fill="#232323" d="M533.854,935.977c-0.691,1.518-1.938,3.018-1.99,4.559c-0.439,12.893-0.699,25.795-0.87,38.699
					c-0.017,1.207,0.651,2.758,1.538,3.551c0.988,0.885,2.604,1.471,3.915,1.418c0.58-0.021,1.57-1.939,1.551-2.984
					c-0.277-14.949-0.694-29.895-1.079-44.842C535.898,936.242,534.877,936.107,533.854,935.977z"/>
				<path fill="#232323" d="M571.827,899.131c-0.124,0.016-0.244,0.045-0.369,0.055c0.044,0.08,0.091,0.16,0.137,0.238
					c0.024-0.021,0.05-0.039,0.075-0.061C571.722,899.287,571.772,899.209,571.827,899.131z"/>
				<path fill="#232323" d="M472.375,906.412c4.077,4.865,7.045,8.408,10.136,12.096
					C484.636,913.258,480.622,907.604,472.375,906.412z"/>
				<path fill="#232323" d="M581.162,885.342c-3.158,4.658-6.251,9.219-9.335,13.789
					C579.659,898.162,584.565,891.252,581.162,885.342z"/>
				<path fill="#232323" d="M452.126,899.594c4.749,7.695,10.518,13.865,20.312,14.037c0.307-0.572,0.613-1.143,0.917-1.711
					c-6.707-4.656-13.416-9.312-20.122-13.969C452.865,898.498,452.495,899.045,452.126,899.594z"/>
				<path fill="#232323" d="M556.558,914.791c7.529-0.459,7.985-0.994,6.535-8.529C557.533,906.527,557.263,910.643,556.558,914.791
					z"/>
				<path fill="#232323" d="M558.128,991.957c-5.712-2.643-11.191-5.172-16.667-7.705c-0.579,0.215-1.158,0.426-1.737,0.637
					c1.312,2.615,2.075,5.775,4.034,7.748c6.895,6.928,7.051,6.773,19.769-0.141c-1.163-1.775-2.302-3.51-4.221-6.426
					C558.767,988.771,558.512,990.039,558.128,991.957z"/>
				<path fill="#232323" d="M815.814,890.342L815.814,890.342C815.849,890.449,815.847,890.443,815.814,890.342z"/>
				<path fill="#232323" d="M703.535,826.426c0.812,0.02,1.629,0.039,2.445,0.061c0.806-1.955,1.187-4.279,2.502-5.795
					c4.273-4.934,4.322-5.236-1.867-9.076C705.583,816.586,704.557,821.506,703.535,826.426z"/>
				<path fill="#232323" d="M835.127,908.312c-0.661,6.893-6.964,6.617-10.225,9.486c-8.515,7.486-18.074,13.914-27.748,19.906
					c-7.96,4.932-16.468,9.168-25.147,12.689c-5.621,2.277-11.884,2.762-15.089,9.057c-0.5,0.984-2.553,1.18-4.718,2.086
					c-0.265-5.932-0.355-11.121-0.819-16.277c-0.117-1.285-1.429-2.463-2.187-3.688c-1.142,0.795-3.206,1.523-3.277,2.402
					c-0.447,5.791-0.481,11.615-0.614,17.428c-0.054,2.424-0.007,4.848-0.007,7.867c-16.654-6.535-30.283-8.346-33.629-4.773
					c9.841,8.137,22.37,6.438,33.635,9.225c0.879,0.217,2.146-0.51,3.047-1.088c4.577-2.951,8.813-6.605,13.696-8.865
					c8.518-3.939,17.451-6.973,26.15-10.523c3.163-1.289,6.394-2.641,9.199-4.545c8.953-6.076,17.928-12.154,26.498-18.75
					c7.041-5.42,13.703-11.377,20.109-17.541c1.805-1.738,2.11-5.031,3.104-7.611c-0.566-0.682-1.136-1.367-1.702-2.051
					C841.8,904.582,835.332,906.15,835.127,908.312z"/>
				<path fill="#232323" d="M708.909,808.465c5.435-6.354,7.385-15.373,4.016-19.508
					C712.351,795.695,703.008,800.094,708.909,808.465z"/>
				<path fill="#232323" d="M803.812,909.508c-6.245,2.289-12.059,6.604-16.408,5.441c-5.208-1.389-4.236,3.498-6.853,3.637
					c0.065,0.996,0.132,1.99,0.196,2.986c2.019-0.812,4.016-1.666,6.059-2.412c0.51-0.186,1.147-0.027,2.656-0.027
					c-1.764,2.922-3.175,5.258-4.72,7.818c8.898,1.566,35.005-18.832,40.053-27.473c-3.765,1.541-7.524,3.082-11.63,4.764
					c1.745-7.381-3.919-8.066-7.856-10.191c-1.297,1.398-2.53,2.867-3.923,4.166C796.302,902.979,796.411,904.637,803.812,909.508z"
					/>
				<path fill="#232323" d="M858.778,856.252c-0.063-6.396,0.38-12.883-0.52-19.168c-0.556-3.879-1.159-7.75-1.788-11.619
					c0.024-0.855-0.047-1.752-0.261-2.697c-0.167-0.748-0.384-1.473-0.564-2.213c-1.379-8.131-2.877-16.246-4.475-24.334
					c-2.1-10.631-4.534-21.221-7.419-31.666c-1.385-5.008-4.319-9.57-6.241-14.457c-2.052-5.229-3.15-10.906-5.748-15.814
					c-2.379-4.484-6.759-7.879-9.269-12.314c-4.347-7.68-7.748-15.885-11.869-23.697c-6.041-11.455-13.252-22.377-18.349-34.219
					c-1.822-4.234-4.058-8.162-6.512-11.922c0.191-3.148-1.188-6.322-4.87-8.301c-0.622-0.334-1.221-0.695-1.815-1.062
					c-4.322-5.672-8.832-11.201-12.824-17.111c-0.046-0.064-0.7,0.281-1.367,0.561c0.882,1.717,1.347,3.643,1.76,5.59
					c-5.229-5.904-9.922-12.469-15.229-17.904c-1.023-1.049-2.117-1.779-3.232-2.26c-0.107-5.684-0.354-11.357-0.846-17.006
					c-0.716-8.209,2.177-15.924-0.658-24.705c-5.057-15.686-6.714-32.447-10.173-48.68c-0.845-3.971-2.787-7.853-4.905-11.369
					c-2.062-3.432-4.993-6.344-7.691-9.663c-0.041,0.162-0.873,1.656-0.715,3.034c0.667,5.681,1.909,11.302,2.378,16.992
					c0.276,3.326,0.688,7.648-1.054,9.926c-3.894,5.102-9.098,9.201-13.522,13.471c-0.357-2.951-0.989-6.828-1.211-10.725
					c-0.074-1.326,0.531-3.531,1.438-3.93c4.833-2.111,3.784-7.768,2.662-9.207c-4.261-5.469-0.459-7.785,3.205-10.594
					c-3.603-7.77-7.165-15.226-10.491-22.787c-0.828-1.883-1.091-4.089-1.236-6.174c-0.138-1.925,1.131-4.717,0.227-5.701
					c-6.217-6.769-5.515-13.314-0.591-18.994c-2.554-6.03-5.291-11.103-6.873-16.51c-3.122-10.695,3.596-21.244,1.058-32.047
					c-0.096-0.398-0.03-1.001,0.216-1.283c4.904-5.573-0.026-9.62-2.211-14.045c-0.57-1.158-1.632-2.069-2.421-3.128
					c-4.64-6.218-4.014-8.632,3.298-11.561c-6.559-12.983-13.089-25.915-19.616-38.846c-0.834,0.313-1.669,0.626-2.501,0.938
					c0.387,1.912,0.608,3.875,1.188,5.726c2.872,9.198,5.895,18.35,8.713,27.563c0.459,1.495,0.173,3.219,0.23,4.839
					c-1.652-0.344-3.307-0.685-5.353-1.108c0.276,1.201,0.298,2.353,0.787,3.25c5.855,10.744,10.985,21.705,9.822,34.407
					c-0.304,3.31-1.825,6.581-1.723,9.836c0.169,5.278,1.222,10.525,1.889,15.786c1.658,13.036,3.294,26.076,4.979,39.109
					c0.639,4.934,1.288,9.871,2.123,14.773c0.727,4.258,0.321,10.452,2.902,12.278c5.001,3.542,1.433,6.661,1.427,9.842
					c-0.002,3.278-0.582,6.573-1.099,9.831c-2.287,14.336-4.454,28.701-7.079,42.979c-0.854,4.664-5.238,6.148-8.808,3.709
					c2.192-4.113,4.371-8.205,6.551-12.295c-0.848-0.701-1.695-1.398-2.542-2.096c-2.703,1.889-6.449,3.188-7.913,5.777
					c-5.213,9.223-9.978,18.74-14.205,28.455c-1.535,3.521-3.51,9.082,2.784,8.703c1.165,4.184,1.465,7.873,3.149,10.75
					c3.123,5.336,6.941,10.287,10.676,15.244c10.198,13.529,12.26,29.725,15.356,45.643c0.781,4.018,1.629,9.012,4.338,11.488
					c8.027,7.34,6.6,15.465,3.304,23.727c-2.688,6.736-6.399,13.074-9.771,19.523c-0.656,1.262-1.663,2.871-2.841,3.234
					c-7.269,2.234-8.387,9.727-10.15,14.746c-2.743,7.793-1.87,16.857-2.556,25.764c2.438-1.562,7.022-2.861,8.579-5.779
					c6.425-12.008,14.192-23.512,16.119-37.539c0.561-4.088,2.337-8.01,3.554-12.006c0.662,0.166,1.323,0.332,1.984,0.502v9.307
					c5.388,0.316,8.763,2.438,9.488,7.754c0.831,6.098,0.551,12.789,3.083,18.121c5.015,10.566,3.635,18.525-5.269,26.082
					c-1.321,1.119-6.874,5.621-1.215,9.447c2.124-1.559,3.957-2.9,6.094-4.465c1.269,12.285,1.261,12.281-3.789,21.848
					c-0.62,1.174-1.593,2.447-1.522,3.615c0.099,1.582,1.051,3.107,1.638,4.656c1.469-0.732,3.886-1.158,4.234-2.25
					c1.358-4.234,2.039-8.686,3.015-13.045c0.58-2.588,1.246-5.154,1.872-7.73c0.803,0.061,1.606,0.115,2.41,0.176
					c0.337,4.441,0.421,8.926,1.114,13.312c0.352,2.227,1.327,4.861,2.942,6.168c0.854,0.689,3.904-0.746,5.595-1.807
					c5.494-3.441,10.915-7.025,10.366-14.85c-0.064-0.938,1.303-1.979,2.583-3.785c1.568,8.217,6.1,10.324,12.898,8.631
					c1.494-0.373,3.179-0.096,4.615-0.588c8.269-2.832,14.802,0.648,19.256,6.844c3.907,5.428,6.976,11.889,8.604,18.35
					c0.833,3.307-1.474,8.371-4.004,11.143c-1.222,1.34-6.56-0.086-9.464-1.463c-6.668-3.164-9.991-2.914-14.479,2.787
					c-3.43,4.359-6.802,8.793-9.825,13.438c-1.395,2.146-2.433,4.812-2.716,7.346c-1.158,10.404,10.955,22.482,21.584,21.617
					c1.616-0.133,3.892-0.83,4.601-2.02c3.024-5.082,5.814-10.348,8.231-15.752c1.615-3.621,2.143-7.732,3.771-11.346
					c0.771-1.711,2.981-2.773,4.539-4.129c0.856,1.643,1.929,3.213,2.526,4.945c2.195,6.326,4.229,12.707,6.661,20.092
					c3.679-2.818,6.119-4.689,8.558-6.561c0.586,0.484,1.168,0.967,1.751,1.449c-2.894,4.17-5.792,8.334-8.675,12.51
					c-0.7,1.016-2.182,2.537-1.899,3.029c2.551,4.482-1.562,5.475-3.768,6.949c-3.842,2.572-8.057,4.58-12.27,6.912
					c-6.723-8.219-8.747,0.703-11.875,3.379c0.408,2.629,0.228,4.824-0.327,6.926c-0.737,2.777-1.769,5.477-3.351,10.264
					c4.559-1.771,8.202-2.023,9.405-3.865c4.223-6.453,8.713-12.305,16.098-15.264c-0.014,0.016-0.028,0.031-0.044,0.047
					c3.041-2.166,6.085-4.332,9.393-6.689c0.563,1.727,0.919,2.809,1.012,3.094c3.191-1.684,6.324-4.812,8.825-4.373
					c7.036,1.242,12.404-0.832,16.479-6.039c3.241-4.137,5.612-8.951,8.309-13.371c4.649,12.234,2.124,23.328-6.028,33.834
					c4.268-0.939,9.537-1.766,10.291-4.07c2.536-7.77,3.812-16.02,4.893-24.178C859.273,866.93,858.831,861.553,858.778,856.252z
					 M792.943,713.398c-0.565-2.219-1.167-4.424-1.794-6.619c0.993,2.164,1.955,4.344,2.885,6.539
					C793.669,713.328,793.306,713.348,792.943,713.398z"/>
				<path fill="#232323" d="M726.196,53.066c-1.479,15.231-0.195,30.732-5.632,45.632c-2.917,7.996-3.829,16.768-5.222,25.258
					c-1.231,7.515-1.562,15.182-2.898,22.676c-0.807,4.553-2.883,8.865-4.171,13.348c-4.062,14.143-7.699,28.417-12.166,42.43
					c-2.052,6.433-4.778,13.027-8.798,18.339c-3.755,4.96-2.885,12.794-9.895,15.5c-0.133,0.05-0.161,0.395-0.218,0.606
					c-2.802,10.617-5.125,21.354-10.694,31.077c-2.1,3.665,0.424,5.107,2.746,5.015c2.512-4.02,4.539-7.197,6.498-10.418
					c3.989-6.568,8.794-12.803,11.728-19.817c6.223-14.883,12.018-29.998,16.96-45.348c6.901-21.445,13.537-43.026,18.969-64.876
					c2.948-11.862,2.66-24.489,4.732-36.617c3.479-20.355,4.962-40.636,0.789-61.031c-0.377-1.836-1.295-3.562-1.963-5.337
					c-0.681,0.102-1.361,0.204-2.043,0.308c-0.148,2.479-0.582,4.984-0.379,7.434C724.979,42.538,726.697,47.896,726.196,53.066z"/>
				<path fill="#232323" d="M712.65,841.729c-1.86,1.088-3.484,1.537-3.545,2.152c-0.741,7.256-1.332,14.535-1.693,21.82
					c-0.039,0.785,1.597,1.654,2.457,2.486c0.926-1.002,2.624-1.98,2.656-3.008C712.756,857.723,712.65,850.258,712.65,841.729z"/>
				<path fill="#232323" d="M776.146,915.547c-7.095-1.154-9.293,0.863-9.258,8.77C770.53,920.863,773,918.523,776.146,915.547z"/>
				<path fill="#232323" d="M751.429,916.197c-0.682,1.08-0.561,2.664-0.808,4.018c1.423-0.07,3.305,0.424,4.188-0.301
					c4.23-3.477,8.244-7.229,12.187-11.033c0.562-0.543,0.327-1.916,0.545-3.518C759.628,906.439,754.959,910.594,751.429,916.197z"
					/>
				<path fill="#232323" d="M705.469,929.211c-1.094,1.529-2.83,2.938-3.142,4.613c-0.521,2.822-0.142,5.805-0.142,7.455
					c-4.125,1.395-9.146,2.52-9.084,3.154c0.664,6.818-3.336,7.527-8.09,6.83c-0.274,3.971,0.021,7.576-0.852,10.863
					c-2.701,10.137-6.012,20.111-8.682,30.254c-0.543,2.061,0.467,6.49,1.101,6.557c2.812,0.291,5.853-0.297,8.581-1.23
					c1.145-0.395,1.832-2.387,2.547-3.744c7.597-14.432,10.489-30.074,11.705-46.578c1.611,0.291,3.004,0.541,3.091,0.557
					c2.94-2.602,5.262-4.65,8.542-7.551c-0.359-1.412-0.837-4.461-1.973-7.238C708.442,931.607,706.706,930.51,705.469,929.211z"/>
				<path fill="#232323" d="M714.004,881.082c10.477-6.59,12.232-34.545,4.42-49.525c-0.323,0.688-0.84,1.258-0.798,1.781
					c1.068,12.9-1.438,25.27-4.904,37.613C711.931,873.766,713.449,877.232,714.004,881.082z"/>
				<path fill="#232323" d="M750.341,902.898c-7.46-3.914-11.04,1.379-15.394,5.428c-2.646,2.459-5.519,4.674-9.738,8.217
					c0.01,0,1.508,0.965,2.393,0.57c5.939-2.656,11.752-5.602,18.576-8.926c3.948,2.033,5.505,1.658,13.577-5.113
					C755.863,903.074,752.543,904.055,750.341,902.898z"/>
				<path fill="#232323" d="M721.843,891.416c-0.713,3.848-1.301,7.018-1.885,10.186c0.452,0.162,0.904,0.324,1.354,0.484
					c0.938-1.111,1.874-2.223,3.863-4.58c0,3.33-0.191,5.232,0.068,7.072c0.156,1.084,0.914,2.812,1.607,2.92
					c0.987,0.15,2.921-0.715,3.13-1.504c1.242-4.648,2.096-9.402,3.379-15.545c-2.898,2.041-4.419,3.111-6.076,4.279
					C725.527,893.66,723.811,892.613,721.843,891.416z"/>
				<path fill="#232323" d="M715.313,923.508c1.279-7.242,9.896-11.004,5.686-19.393
					C712.032,909.271,710.276,914.482,715.313,923.508z"/>
				<path fill="#232323" d="M730.265,809.381c-0.767,0.65-1.533,1.295-2.3,1.943c2.333,3.043,4.663,6.084,6.994,9.131
					c1.414-1.127,4.133-2.402,4.023-3.352C738.406,812.064,734.854,809.938,730.265,809.381z"/>
				<path fill="#232323" d="M722.432,958.541c0.731,0.402,1.466,0.807,2.199,1.209c1.51-2.047,3.612-3.887,4.397-6.182
					c1.46-4.26,2.45-8.744,3.014-13.217c0.222-1.777-1.212-3.764-1.893-5.656c-1.486,0.877-3.432,1.408-4.385,2.68
					C720.905,943.887,722.494,951.342,722.432,958.541z"/>
				<path fill="#232323" d="M805.31,894.051c0.034-0.039,0.066-0.076,0.101-0.113c-0.044,0.031-0.09,0.062-0.134,0.096
					C805.288,894.039,805.298,894.045,805.31,894.051z"/>
				<path fill="#232323" d="M446.851,271.058c11.128-0.287,19.187-7.195,19.143-16.942c-0.057-12.427-6.671-18.072-19.055-19.146
					c-7.325-0.634-17.385,8.96-17.408,15.762C429.493,262.154,437.288,271.302,446.851,271.058z"/>
				<path fill="#232323" d="M601.136,345.106c4.369-3.131,7.479-7.963,11.623-11.485c6.895-5.86,5.546-19.447-4.375-24.542
					c-0.352,5.031-0.466,9.349-1.035,13.607c-0.258,1.925-0.887,4.5-2.263,5.446c-4.443,3.053-9.387,5.363-14.003,8.183
					c-8.362,5.111-16.3,11.05-25.044,15.369c-6.437,3.18-13.768,4.889-20.892,6.258c-11.417,2.196-22.61,2.368-30.394-10.229
					c12.011-0.793,19.412-6.518,22.768-17.505c0.824-2.702,2.348-5.269,3.926-7.648c5.251-7.904,1.406-20.757-7.514-24.1
					c-4.548-1.703-9.392-2.633-13.918-4.386c-15.735-6.098-30.521-3.686-44.466,4.981c-1.99,1.237-3.6,4.306-3.959,6.738
					c-1.674,11.337,2.357,21.632,6.737,31.771c0.489,1.134,1.162,2.487,2.143,3.062c5.436,3.172,10.656,7.017,17.648,5.917
					c0.665-0.105,1.758,2.513,2.652,3.867c-3.175,1.931-6.165,5.034-9.559,5.568c-9.195,1.449-18.558,2.303-27.862,2.385
					c-4.63,0.04-9.342-1.93-13.903-3.356c-3.675-1.148-8.725-1.834-10.464-4.491c-4.592-7.018-10.689-11.728-17.919-15.155
					c-5.7-2.7-8.153-6.782-8.15-12.971c0-2.564-1.124-5.129-1.953-8.598c-6.829,4.452-9.421,9.347-8.856,15.914
					c0.796,9.215,1.969,10.366,7.328,9.336c6.516,5.237,11.831,10.067,17.718,14.053c4.138,2.801,9.856,3.56,13.458,6.798
					c8.46,7.606,15.847,16.392,24.099,24.248c7.736,7.365,15.958,14.23,24.15,21.101c1.18,0.992,3.476,1.273,5.081,0.97
					c1.763-0.333,3.758-1.407,4.784-2.796c0.476-0.645-0.952-2.895-1.772-4.262c-2.516-4.183-5.187-8.271-7.737-12.434
					c-1.856-3.03-3.703-6.074-5.391-9.2c-1.057-1.956-1.811-4.077-2.701-6.124c1.953-0.844,3.906-1.692,5.861-2.53
					c2.631-1.127,5.328-2.122,7.881-3.396c4.297-2.149,8.354-4.934,12.854-6.426c1.225-0.405,3.628,2.913,5.581,4.409
					c0.415,0.318,1.228,0.064,1.832,0.193c8.349,1.778,16.691,3.578,25.284,5.424c-0.588,1.163-0.834,2.079-1.402,2.697
					c-7.256,7.884-14.448,15.831-21.945,23.479c-1.331,1.356-4.168,2.327-5.976,1.933c-6.987-1.523-8.177,2.852-9.464,7.731
					c12.476,5.654,26.808,2.938,34.919-7.193c9.762-12.19,21.565-21.913,34.259-30.745c1.801-1.253,4.677-2.724,4.812-4.289
					c0.524-6.023,5.396-6.811,9.276-8.873C590.323,350.92,596.184,348.651,601.136,345.106z"/>
				<path fill="#232323" d="M323.097,542.822c1.309,0.689,3.634-0.551,6.381-1.105c2.476,8.836,4.386,17.559,7.497,25.826
					c1.302,3.461,5.282,8.477,7.809,8.342c4.298-0.23,5.455,1.646,6.935,4.289c1.833,3.266,3.333,6.73,5.301,9.906
					c1.455,2.35,3.431,4.373,5.98,7.543c1.035-3.6,1.511-5.254,1.858-6.459c3.024,1.682,5.492,3.975,8.251,4.402
					c7.15,1.107,13.797,2.588,18.953,8.328c2.397,2.668,5.665,4.553,8.63,6.867c2.549-6.158-3.37-14.93-10.664-17.629
					c-3.686-1.361-6.97-3.93-10.263-6.201c-1.594-1.102-2.602-3.057-4.202-4.143c-7.775-5.289-12.083-12.525-13.02-21.869
					c-0.093-0.938-1.074-1.783-2.675-4.283v18.654c-5.364-4.232-11.106-6.605-13.135-10.775
					c-5.935-12.215-10.541-25.086-15.358-37.82c-2.601-6.873-2.153-15.388-12.699-18.713c-0.449,1.906-2.057,4.663-1.265,6.026
					c4.524,7.788,2.567,15.64,1.556,23.685C318.77,539.279,321.25,541.852,323.097,542.822z"/>
				<path fill="#232323" d="M581.523,266.55c4.285-5.092,6.816-10.497,3.603-16.903c-3.243-6.471-8.194-10.948-15.989-11.134
					c-6.72-0.284-17.536,8.209-20.013,16.864c-0.958,3.343-0.554,8.155,1.254,11.021
					C558.191,278.797,571.424,278.563,581.523,266.55z"/>
				<path fill="#232323" d="M376.635,102.411c-2.183,0.609-5.418,1.016-6.125,2.494c-1.007,2.109-0.72,5.309,0.051,7.71
					c2.749,8.563,5.868,17.013,8.999,25.447c0.897,2.413,2.882,4.516,3.39,6.965c1.805,8.711,6.801,17.408,0.852,26.393
					c-0.09,0.137,0.085,0.43,0.082,0.648c-0.104,5.973-0.014,11.958-0.402,17.911c-0.223,3.422-2.077,6.898-1.676,10.164
					c0.608,4.936-1.049,7.95-4.946,10.542c-2.886,1.921-5.699,4.001-3.464,8.518c0.554,1.12-0.97,4.104-2.356,5.178
					c-3.066,2.378-5.153,3.932-2.792,8.565c2.53,4.966,3.42,10.766,5.047,16.274c6.28-3.62,6.879-6.881,2.332-11.083
					c-3.944-3.645-4.488-9.131-1.267-10.879c2.55-1.384,5.537-2.82,7.051-5.088c3.785-5.675,6.842-11.836,10.512-18.373
					c2.879,3.076,6.071,6.622,9.436,9.997c1.027,1.031,2.432,1.927,3.823,2.317c7.837,2.191,16.465-0.618,21-7.427
					c4.528-6.797,8.374-14.043,12.618-21.034c1.128-1.854,2.258-4.211,4.015-5.102c10.574-5.35,21.399-10.205,31.977-15.55
					c2.489-1.257,6.442-4.319,6.105-5.583c-1.032-3.863-3.276-7.168-8.728-7.472c-6.069-0.338-12.046-2.428-18.062-3.756
					c-0.087-0.687-0.176-1.372-0.265-2.058c2.895-1.078,5.751-2.271,8.691-3.194c2.047-0.646,4.514-0.431,6.239-1.498
					c1.847-1.141,3.044-3.336,4.524-5.07c-2.034-0.084-4.065-0.186-6.101-0.244c-0.637-0.02-1.32,0.242-1.909,0.093
					c-11.055-2.766-21.508,1.172-32.137,2.947c-1.616,0.27-3.458,1.33-4.489,2.599c-5.527,6.803-6.581,6.774-11.534-0.984
					l0.036,0.327c-4.117-8.143-8.235-16.286-12.351-24.43c0.304-0.152,0.607-0.302,0.91-0.453
					c4.594,5.562,9.188,11.126,13.783,16.689c0.817-0.507,1.634-1.014,2.453-1.52c-2.239-5.219-3.629-11.047-6.862-15.552
					c-13.801-19.229-28.136-38.074-42.327-57.021c-0.761-1.016-2.172-2.545-2.972-2.377c-7.745,1.635-7.779-4.349-9.242-8.99
					c-1.417-4.502-2.7-5.218-8.715-4.483c9.174,14.862,18.237,29.435,27.18,44.083C382.398,94.587,381.056,101.177,376.635,102.411z
					"/>
				<path fill="#232323" d="M527.345,423.311c5.279-1.266,13.075-1.453,14.518-11.045c-6.214,1.778-11.609,3.351-17.022,4.862
					c-10.076,2.81-20.052,3.196-30.226-0.058c-7.102-2.268-14.418-4.894-21.996-2.336c-0.18,0.646-0.354,1.292-0.531,1.938
					c3.223,2.04,6.214,5.209,9.708,5.922C496.879,425.67,512.27,426.922,527.345,423.311z"/>
				<path fill="#232323" d="M624.229,609.584c1.896-1.188,3.584-2.201,5.222-3.285c2.387-1.58,4.638-3.391,7.125-4.789
					c7.544-4.238,15.233-8.227,22.704-12.59c1.064-0.619,1.235-2.771,1.818-4.213c-1.398-0.291-3.189-1.283-4.134-0.758
					c-11.464,6.379-22.836,12.928-34.115,19.629c-0.856,0.51-1.148,2.553-1.06,3.842
					C621.836,608.129,623.226,608.742,624.229,609.584z"/>
				<path fill="#232323" d="M587.661,623.006c1.062,0.852,4.029,0.598,5.319-0.311c7.72-5.426,15.574-10.766,22.648-16.975
					c5.945-5.215,10.891-11.57,16.278-17.422c-0.511-0.531-1.026-1.066-1.537-1.598c-0.799,0.24-1.611,0.436-2.387,0.725
					c-4.971,1.852-7.698,10.633-15.221,4.912c-0.355-0.273-1.989,0.787-2.785,1.504c-4.38,3.953-8.54,8.174-13.07,11.943
					c-3.187,2.65-6.833,4.75-10.302,7.057c-1.602,1.066-3.267,2.037-4.905,3.051C583.644,618.318,585.295,621.107,587.661,623.006z"
					/>
				<path fill="#232323" d="M554.957,627.25c1.156,2.602,1.912,4.295,2.461,5.529c6.335-5.066,12.672-10.133,19.007-15.201
					c0.43,0.293,0.86,0.584,1.29,0.877c0.821-2.42,1.749-4.809,2.428-7.266c0.619-2.238,0.964-4.547,1.433-6.826
					c-2.487,0.77-5.701,0.824-7.307,2.459c-3.524,3.594-6.234,7.98-9.048,11.744c-7.137-5.445-14.591-6.186-18.104-2.605
					c-5.4,5.498-10.62,11.24-15.308,17.348c-2.152,2.801-2.86,6.713-4.221,10.121c0.625,0.398,1.25,0.795,1.876,1.191
					C537.818,638.93,546.174,633.234,554.957,627.25z"/>
				<path fill="#232323" d="M453.853,916.646c-0.202-1.656-2.509-3.059-3.842-4.578c-0.497,0.336-0.992,0.67-1.487,1.006
					c0.4,2.727,1.981,6.018,0.994,8.078c-4.45,9.277-6.978,20.205-18.474,24.266c-1.753,0.617-3.438,2.088-4.611,3.588
					c-5.373,6.869-10.733,13.762-15.744,20.896c-4.293,6.105-8.053,12.58-12.146,18.828c-4.136,6.316-8.488,12.496-12.502,18.885
					c-0.653,1.041-0.616,3.363,0.121,4.229c1.118,1.309,3.375,2.885,4.716,2.564c9.146-2.217,18.763-3.602,24.727-12.41
					c9.934-14.672,19.984-29.268,30.151-43.779c1.26-1.801,3.53-4.08,5.333-4.08c4.973-0.004,5.75-3.346,5.568-6.551
					C456.069,937.25,455.09,926.928,453.853,916.646z"/>
				<path fill="#232323" d="M672.013,51.627c-4.836,1.563-8.9,2.876-12.964,4.188c0.275,0.769,0.547,1.538,0.822,2.306
					C667.399,60.094,669.26,59.246,672.013,51.627z"/>
				<path fill="#232323" d="M670.697,330.333c0.207,0.907,1.352,1.724,2.233,2.33c3.418,2.35,6.722,4.979,10.421,6.766
					c3.176,1.533,6.41,7.316,10.083,2.718c3.514-4.402-2.632-6.394-4.599-9.459c-2.512-3.911-7.095-8.556-6.384-11.973
					c1.015-4.907-0.163-7.522-3.115-10.371c-4.711-4.542-9.502-9-14.26-13.496c-0.562,0.113-1.125,0.226-1.688,0.339
					C665.802,308.24,668.173,319.304,670.697,330.333z"/>
				<path fill="#232323" d="M718.402,488.435c0.801-0.411,1.602-0.822,2.403-1.231c-1.078-9.875-2.217-19.722-14.126-26.387
					C711.045,471.102,714.723,479.767,718.402,488.435z"/>
				<path fill="#232323" d="M449.365,896.779c0.564-0.385,1.13-0.768,1.694-1.148c0.154-4.721-4.853-10.268-11.855-12.041
					C443.02,888.539,446.192,892.66,449.365,896.779z"/>
				<path fill="#232323" d="M495.284,641.727c0.387-0.668,0.773-1.332,1.159-1.998c-2.11-2.355-4.008-6.494-6.367-6.771
					c-14.075-1.68-23.868-16.057-39.392-13.037c-1.169,0.225-2.62-0.457-3.812-0.998c-11.097-5.033-23.21-8.281-31.651-18.021
					c-0.743-0.857-2.004-1.268-3.517-2.184c-0.237,1.5-0.756,2.539-0.436,3.09c3.477,6,6.932,12.023,10.794,17.771
					c0.683,1.016,3.199,0.904,4.893,1.096c1.135,0.133,3.148-0.543,3.347-0.145c3.844,7.682,11.321,4.879,17.358,6.459
					c7.204,1.887,14.891,0.352,21.428,7.406C475.414,641.219,486.018,641.139,495.284,641.727z"/>
				<path fill="#232323" d="M491.719,147.543c4.794-1.324,9.805-2.342,14.751-2.494c4.033-0.123,8.167,1.032,12.155,2.024
					c2.477,0.614,4.766,1.981,7.373,3.115c-5.406,4.021-9.531,8.489-14.626,10.5c-5.415,2.137-11.75,1.939-17.682,2.771
					c-0.438,0.061-0.959,0.061-1.288,0.3c-1.333,0.974-2.608,2.03-3.905,3.056c1.316,1.304,2.408,3.3,3.98,3.807
					c22.165,7.153,44.96,9.671,68.201,9.484c3.999-0.033,8.709,1.874,11.913,4.386c17.368,13.627,32.534,30.236,53.538,38.873
					c0.807,0.332,1.642,0.811,2.221,1.445c4.137,4.55,8.206,6.981,13.224-0.124c0,2.709-0.078,5.422,0.013,8.129
					c0.345,9.995,0.148,20.067,1.433,29.943c0.491,3.751,1.784,9.783,8.757,8.621c0.875-0.147,1.962,1.379,3.042,1.963
					c2.285,1.23,4.631,2.352,6.95,3.518c0.59-0.757,1.181-1.513,1.771-2.27c-3.743-5.792-8.695-11.157-10.918-17.481
					c-2.776-7.906-3.678-16.555-4.696-24.967c-1.028-8.519-0.935-17.175-1.935-25.7c-0.289-2.46-2.656-4.676-4.07-7.004
					c-0.632,0.289-1.262,0.576-1.894,0.864c0-2.361-0.997-5.86,0.172-6.881c4.91-4.294,0.376-6.837-1.103-11.529
					c-1.583,3.371-2.564,5.458-3.585,7.624c-4.705,1.12-7.409,0.534-7.119-5.628c0.131-2.795-2.575-5.725-4.566-9.747
					c1.688-2.588,5.376-6.462,6.849-11.046c1.321-4.116,6.426-7.994,2.716-14.432c-6.502,8.921-12.348,16.941-18.195,24.963
					c-0.477-0.329-0.954-0.657-1.431-0.986c-0.17-2.495-0.339-4.99-0.522-7.678c-2.706,1.171-4.877,2.11-7.047,3.049
					c-0.346-0.54-0.689-1.08-1.037-1.619c3.786-4.446,7.575-8.892,11.101-13.031c-2.889,0-7.544-1.364-10.55,0.283
					c-6.366,3.488-11.056,2.233-16.186-2.234c0.586-1.191,1.239-2.112,1.483-3.128c0.282-1.166,0.199-2.417,0.273-3.633
					c-0.514-0.422-1.03-0.846-1.547-1.268c-2.199,1.962-4.736,3.68-6.441,6.006c-0.719,0.978-0.018,4.553,0.616,4.718
					c5.5,1.427,9.073,9.582,17.042,3.565c-0.96,5.319-2.671,7.222-6.969,5.927c-5.288-1.593-10.701-2.794-15.905-4.612
					c-1.881-0.656-3.83-2.293-4.85-4.016c-2.708-4.565-3.786-10.824-10.995-8.626c0.632-2.353,1.162-4.33,1.693-6.309
					c-2.275-0.088-4.882-0.949-6.771-0.139c-10.581,4.536-12.583,4.051-19.186-5.326c-3.701,0.252-6.901,0.355-10.071,0.712
					c-5.185,0.586-10.375,1.197-15.515,2.08c-2.51,0.434-4.91,2.152-7.36,2.152c-4.804,0.002-9.632-1.315-14.407-1.107
					c-4.843,0.209-9.634,1.6-14.449,2.472c-0.071,0.607-0.141,1.213-0.212,1.822C480.754,145.466,484.93,149.416,491.719,147.543z"
					/>
				<path fill="#232323" d="M566.229,125.138c11.389-6.596,16.225-18.852,24.979-27.678c3.771-3.804,6.279-8.83,9.777-12.944
					c4.29-5.042,8.706-10.063,13.636-14.451c5.719-5.088,11.838-9.807,18.199-14.066c4.989-3.341,10.533-5.899,15.971-8.517
					c9.097-4.38,17.987-9.556,27.543-12.541c14.973-4.679,30.429-7.812,44.37-11.275c-1.366-1.936-2.955-4.403-4.792-6.677
					c-0.589-0.733-1.854-1.426-2.738-1.344c-7.969,0.749-16.321-0.389-23.096,5.854c-1.989,1.836-5.489,2.041-8.298,2.991
					c-0.141-0.659-0.287-1.317-0.43-1.977c2.046-0.855,4.088-1.71,6.135-2.565c-0.202-0.687-0.402-1.374-0.6-2.061
					c-5.595,1.173-11.191,2.345-16.785,3.517c0.48,2.414,0.799,4.015,1.131,5.681c-2.565,1.148-4.699,2.104-7.292,3.263
					c0.129-2.025,0.214-3.388,0.282-4.467c-48.103,23.836-84.828,58.871-108.956,106.417c0.676,0.679,1.354,1.356,2.031,2.034
					C560.243,131.213,562.67,127.2,566.229,125.138z"/>
				<path fill="#232323" d="M615.05,92.125c-4.407,4.671-5.78,11.802-12.658,14.728c-2.431,1.032-5.571,4.478-5.466,6.68
					c0.429,8.912-7.021,14.334-8.724,22.125c-0.268,1.207-0.597,2.398-0.897,3.595c1.35-0.693,3.019-1.093,3.981-2.141
					c1.911-2.083,3.438-4.517,5.11-6.819c5.558-7.655,11.049-15.359,16.676-22.962c4.376-5.917,8.802-11.806,13.424-17.532
					c3.422-4.233,7.185-8.19,10.812-12.256c2.329-2.606,4.892-5.031,6.981-7.812c2.514-3.342,4.515-7.065,6.967-10.455
					c2.242-3.099,4.792-5.974,7.907-9.806c-2.001,0.187-2.844,0.004-3.162,0.332C642.299,63.859,628.524,77.849,615.05,92.125z"/>
				<path fill="#232323" d="M330.562,1019.203c0.057-0.059,0.115-0.102,0.172-0.16c-0.121-0.049-0.242-0.102-0.363-0.15
					C330.431,1018.994,330.512,1019.104,330.562,1019.203z"/>
				<path fill="#232323" d="M300.324,984.047c0.729,2.049,2.146,3.852,3.268,5.758c0.573-2.02,1.983-4.229,1.579-6.027
					c-2.151-9.631-4.756-19.156-7.205-28.721l-2.337-0.65c-1.067,2.084-3.252,4.301-3.022,6.227
					c1.472,12.381-6.124,25.801,4.085,37.197c0.304,0.34,0.055,1.135,0.183,1.689c0.293,1.275,0.391,2.73,1.115,3.709
					c0.338,0.453,2.807,0.111,2.849-0.129c0.269-1.521,0.128-3.117,0.125-4.689c-0.001-0.574,0-1.141,0-1.859
					c0.851,0.102,1.486,0.219,2.125,0.236c0.568,0.02,1.138-0.074,1.707-0.121c0.104-0.709,0.208-1.418,0.313-2.127
					c-2.358-0.422-4.717-0.844-8.023-1.434c0.313-4.504,0.645-9.285,0.976-14.07c0.722,0.049,1.443,0.098,2.166,0.143
					C300.225,980.814,299.809,982.596,300.324,984.047z"/>
				<path fill="#232323" d="M285.416,161.46c2.46,19.732,10.273,37.628,17.412,55.762c2.413,6.13,2.597,13.371,9.223,17.991
					c2.362,1.646,1.206,7.708,2.767,11.266c3.491,7.966,8.483,15.337,11.401,23.474c4.623,12.892,7.912,26.257,12.096,39.316
					c0.792,2.472,3.124,4.45,5.124,7.173c0.201,1.895,1.037,4.832,0.702,7.626c-0.949,7.932-1.383,16.155-3.974,23.579
					c-1.659,4.748-4.211,8.119,0.297,10.596c-1.023,6.191-1.905,11.537-2.878,17.437c8.33-1.199,11.401-6.725,11.28-14.266
					c-0.122-7.421,0.601-14.96,1.952-22.264c0.867-4.691,3.788-8.963,5.344-13.572c2.167-6.415,0.02-11.157-6.046-14.086
					c-1.936-0.933-4.046-1.501-5.503-2.03c-0.914-3.823-1.653-7.235-2.551-10.604c-2.759-10.366-5.158-20.855-8.488-31.04
					c-3.753-11.485-6.786-23.697-13.147-33.669c-4.396-6.893-10.716-12.391-11.835-21.145c-0.118-0.91-1.182-1.704-1.811-2.546
					c-1.308-1.752-3.163-3.317-3.833-5.287c-2.477-7.269-4.583-14.667-6.787-22.025c-1.898-6.342-4.477-12.586-5.46-19.07
					c-2.237-14.752-3.501-29.646-5.499-44.438c-1.759-13.032-4.26-25.966-5.84-39.016c-0.58-4.782-2.372-6.688-6.902-6.405
					c1.26,6.147,2.435,11.889,3.61,17.631c-0.656,0.108-1.312,0.218-1.968,0.327c-0.561-0.719-1.121-1.44-1.682-2.159
					c-0.862,2.481-0.621,4.612,0.17,6.512c0.939,2.25,3.057,4.18,3.446,6.458C279.369,122.442,282.975,141.88,285.416,161.46z"/>
				<path fill="#232323" d="M321.028,1011.141c-0.789-0.373-1.518-1.252-2.275-1.252c-1.686,0.004-3.373,0.41-6.185,0.812
					c2.015,2.723,3.19,4.301,4.362,5.887l1.086-2.086c0.824,0.078,1.721-0.029,2.459,0.264c3.321,1.318,6.603,2.738,9.896,4.127
					C328.916,1016.332,324.818,1012.924,321.028,1011.141z"/>
				<path fill="#232323" d="M279.684,612.77c0.78-1.984,1.62-3.146,1.632-4.318c0.052-5.18-0.369-10.371-0.18-15.541
					c0.33-9.104,0.956-18.197,1.523-27.293c0.081-1.297,0.51-2.572,0.784-3.855c1.896-8.875,4.129-17.691,5.582-26.639
					c1.139-7.02,6.636-11.857,13.649-11.205c1.199,0.109,2.934-0.844,3.727-1.854c3.348-4.26,2.604-8.434-0.622-12.509
					c-2.152,1.15-4.033,2.157-6.137,3.281c1.873-9.386,3.088-18.464,5.596-27.17c2.45-8.511,6.219-16.644,9.41-24.943l-1.602-0.893
					c-2.229,3.779-4.512,7.527-6.674,11.345c-3.797,6.703-7.736,13.34-11.2,20.216c-2.453,4.873-4.465,10.011-6.197,15.19
					c-0.95,2.843-0.925,6.017-1.314,9.043c-0.517,4.011-0.551,8.151-1.608,12.013c-1.869,6.832-4.758,13.391-6.465,20.25
					c-1.747,7.02-3.043,14.225-3.682,21.422c-0.518,5.852-6.917,12.125,0.638,17.789c0.405,0.301,0.304,1.809-0.048,2.514
					C272.512,597.549,274.503,604.764,279.684,612.77z"/>
				<path fill="#232323" d="M395.927,853.539c2.069,0.594,4.751,1.598,5.663,3.246c4.473,8.084,8.444,16.447,13.161,25.852
					c2.373-3.141,3.617-4.779,5.137-6.791c4.095,7.291,8.07,14.373,12.496,22.254c2.812-22.506-10.517-37.615-21.065-54.051
					c-1.024,2.529-0.818,4.797-0.09,6.885c0.86,2.463,2.171,4.777,3.286,7.154c-0.418,0.133-0.833,0.266-1.252,0.396
					c-8.347-9.346-16.696-18.693-25.043-28.041c-0.54,0.291-1.077,0.588-1.614,0.879c0.744,2.992,1.487,5.982,2.23,8.973
					c-3.521-3.998-6.238-8.518-9.386-12.707c-1.805-2.402-3.96-5.062-6.573-6.246c-6.069-2.742-11.067-6.244-14.023-12.408
					c-2.172-4.533-4.536-8.986-7.042-13.342c-8.634-15.014-17.714-29.787-25.84-45.066c-2.274-4.279-4.814-6.158-9.515-7.297
					c-0.398,3.213-0.736,5.945-1.073,8.68c-1.817-1.152-3.957-1.992-5.398-3.498c-7.513-7.859-10.828-18.396-12.157-28.209
					c-2.242-16.568-6.819-32.135-12.848-47.488c-2.055-5.238-2.09-5.225,4.838-6.488c-0.587,2.717-1.107,5.117-1.879,8.684
					c6.272-3.928,7.993-0.572,8.953,4.219c0.472,2.355,0.604,5.27,2.067,6.824c2.778,2.955,6.148,6.623,9.739,7.229
					c4.75,0.807,7.349-2.336,7.499-8.262c0.191-7.51-4.27-11.008-9.324-15.023c0.449-1.969,0.928-4.07,1.4-6.139
					c9.292,1.328,11.61-0.363,14.056-9.086c3.346-11.938,7.018-23.781,10.396-35.711c1.505-5.309,3.568-10.691,3.761-16.098
					c0.592-16.859-8.535-30.543-16.517-44.271c-2.169-3.732-7.948-5.367-13.006-8.553c-0.54,3.262-1.086,4.574-0.908,5.781
					c2.325,15.623-6.832,28.184-11.455,41.869c-2.484,7.348-7.371,13.885-11.333,21.088c-0.634-0.053-2.031-0.168-3.428-0.279
					c0.086,1.381-0.058,2.826,0.318,4.123c0.416,1.436,1.305,2.729,1.989,4.086c-1.415-0.441-2.832-0.883-4.247-1.326
					c-0.39,2.475-0.997,4.951-0.972,7.416c0.006,0.463,2.551,0.896,3.926,1.344c0.457-2.17,0.914-4.34,1.372-6.51
					c2.071,4.758,3.388,10.076,6.387,14.15c4.437,6.027,4.906,16.596-1.626,20.316c-7.424,4.23-7.994,9.312-6.155,16.428
					c4.1,15.863,7.868,31.812,11.833,47.707c0.681,2.73,1.712,5.369,2.509,8.072c2.255,7.645,4.174,15.402,6.823,22.904
					c1.449,4.102,3.454,9.215,9.713,3.582c1.892,3.939,3.337,7.387,5.164,10.613c1.67,2.953,3.282,6.646,7.893,3.863
					c1.854,4.906,6.444,10.898,5.012,14.49c-3.271,8.191-2.407,15.145,0.333,22.822c9.486,26.586,16.979,53.764,23.925,81.113
					c1.266,4.984,4.676,9.416-3.222,11.377c-0.428,0.105-0.642,1.051-0.962,1.602c-2,3.43-4.002,6.855-6.269,10.742
					c-2.014-2.24-2.898-3.221-3.781-4.201c0.297,0.752,0.595,1.506,0.891,2.258c-6.803,5.783-17.431,4.781-23.791,12.764
					c-5.67,7.117-15.78,10.768-21.732,18.973c2.082,0.418,3.967,0.375,5.461-0.408c9.9-5.203,20.064-10.023,29.46-16.033
					c9.076-5.807,22.098-7.578,24.149-21.492c0.167-1.137,1.311-2.379,2.332-3.102c5.29-3.766,4.506-9.045,3.56-14.227
					c-0.815-4.455-2.11-8.826-3.194-13.234c1.054-0.707,2.108-1.416,3.162-2.127c1.896,3.34,3.792,6.68,5.687,10.021
					c0.909-0.58,1.818-1.156,2.729-1.736c-2.499-10.297-4.999-20.592-7.499-30.889c2.951,2.111,4.79,5.35,7.448,7.643
					c2.521,2.174,6.3,5.104,8.791,4.525c2.983-0.695,5.67-4.453,7.539-7.465c1.049-1.691,0.189-4.57,0.189-7.32
					C388.635,852.057,392.359,852.521,395.927,853.539z"/>
				<path fill="#232323" d="M358.185,1006.83c0.449-10.182,0.511-20.389,0.481-30.582c-0.004-1.428-1.463-2.852-2.248-4.277
					c-1.107,1.332-3.064,2.592-3.18,4.008c-0.646,7.908-1.083,15.855-1.087,23.785c-0.001,3.182,1.289,6.363,1.991,9.547
					c0.344-0.057,0.689-0.113,1.034-0.17c-0.849,2.676-1.699,5.354-2.753,8.67c-2.906-0.426-6.233-0.174-8.82-1.441
					c-5.284-2.584-9.16-0.955-12.868,2.674c0.002,0.002,0.005,0.002,0.007,0.004c3.988,3.676,7.577,2.342,10.637-1.24
					c8.204,7.893,33.176,9.16,39.088,1.783c-4.801-0.48-9.292-0.711-13.706-1.424
					C359.406,1016.979,357.852,1014.373,358.185,1006.83z"/>
				<path fill="#232323" d="M326.132,984.172c-0.374,8.15-0.741,16.158-1.107,24.166c0.443,0.393,0.888,0.785,1.333,1.176
					c3.025-3.941,6.049-7.881,9.519-12.396C333.025,993.316,336.148,985.203,326.132,984.172z"/>
				<path fill="#232323" d="M364.732,278.493c1.252-0.535,3.291-0.779,3.615-1.657c1.214-3.288,1.869-6.782,2.771-10.346
					c-0.055-3.36-5.051-6.776-8.09-5.146c-0.784,0.422-0.851,2.178-1.249,3.32c6.848,2.111,2.89,5.403,1.297,8.877
					C362.548,274.697,364.121,276.814,364.732,278.493z"/>
				<path fill="#232323" d="M366.778,301.25c-0.6-4.448-0.604-8.997-1.489-13.375c-0.312-1.544-2.453-2.718-3.758-4.061
					c-1.367,1.483-2.734,2.966-4.1,4.447c1.467,1.297,2.935,2.594,4.611,4.075c-1.674,5.137-3.41,10.463-5.425,16.655
					C365.285,308.612,367.489,306.527,366.778,301.25z"/>
				<path fill="#232323" d="M325.602,428.388c6.134,4.112,7.74,4.303,8.908,0.478c1.699-5.572,2.403-11.446,3.533-17.192
					c-1.085-0.375-2.171-0.752-3.256-1.127C331.708,416.522,328.633,422.498,325.602,428.388z"/>
				<path fill="#232323" d="M313.917,508.479c1.446-4.177,2.889-8.35,4.333-12.525c-0.903-0.482-1.808-0.967-2.713-1.45
					c-1.481,4.301-2.965,8.603-4.449,12.905C312.031,507.765,312.975,508.123,313.917,508.479z"/>
				<path fill="#232323" d="M344.092,397.669c-2.497-2.3-4.554-4.195-7.312-6.736c-0.318,5.149-0.61,9.805-0.897,14.439h5.456
					C342.369,402.489,343.387,399.641,344.092,397.669z"/>
				<path fill="#232323" d="M298.562,15.306c-0.052,0.019-0.106,0.035-0.159,0.054c-0.011,0.057-0.02,0.122-0.03,0.182
					c0.062,0.003,0.126,0.003,0.188,0.009C298.561,15.469,298.563,15.389,298.562,15.306z"/>
				<path fill="#232323" d="M279.992,67.164c0.646-4.781,0.994-9.614,1.887-14.347c2.398-12.733,1.499-27.036,15.778-34.401
					c0.581-0.298,0.536-1.81,0.716-2.873c-1.674-0.112-3.642,0.238-4.886-0.551c-6.126-3.896-8.7,0.494-10.33,4.786
					c-2.233,5.876-3.717,12.084-5.013,18.255c-1.106,5.275-1.246,10.749-2.272,16.047c-1.129,5.832-2.782,11.562-4.265,17.569
					C276.914,73.095,279.391,71.628,279.992,67.164z"/>
				<path fill="#232323" d="M292.458,56.837c-3.636,2.612-3.239,16.308,1.337,20.004c1.038-6.456,2.012-12.046,2.767-17.668
					c0.119-0.886-0.501-2.303-1.225-2.743C294.68,56.03,293.191,56.311,292.458,56.837z"/>
				<path fill="#232323" d="M308.652,9.582c-1.673-0.841-3.436-2.533-4.999-2.364c-4.767,0.518-5.134,4.294-5.091,8.088
					c2.141-0.771,4.377-1.361,6.367-2.417C306.355,12.135,307.425,10.708,308.652,9.582z"/>
			</g>
			<path fill-rule="evenodd" clip-rule="evenodd" fill="#232323" d="M805.469,893.881c-7.399,2.969-11.89,8.82-16.112,15.273
				c-1.203,1.842-4.847,2.094-9.405,3.865c1.582-4.787,2.613-7.486,3.351-10.264c0.555-2.102,0.735-4.297,0.327-6.926
				c3.128-2.676,5.152-11.598,11.875-3.379c4.213-2.332,8.428-4.34,12.27-6.912c2.205-1.475,6.318-2.467,3.768-6.949
				c-0.282-0.492,1.199-2.014,1.899-3.029c2.883-4.176,5.781-8.34,8.675-12.51c-0.583-0.482-1.165-0.965-1.751-1.449
				c-2.438,1.871-4.879,3.742-8.558,6.561c-2.432-7.385-4.466-13.766-6.661-20.092c-0.598-1.732-1.67-3.303-2.526-4.945
				c-1.558,1.355-3.769,2.418-4.539,4.129c-1.629,3.613-2.156,7.725-3.771,11.346c-2.417,5.404-5.207,10.67-8.231,15.752
				c-0.709,1.189-2.984,1.887-4.601,2.02c-10.629,0.865-22.742-11.213-21.584-21.617c0.283-2.533,1.321-5.199,2.716-7.346
				c3.023-4.645,6.396-9.078,9.825-13.438c4.487-5.701,7.811-5.951,14.479-2.787c2.904,1.377,8.242,2.803,9.464,1.463
				c2.53-2.771,4.837-7.836,4.004-11.143c-1.628-6.461-4.696-12.922-8.604-18.35c-4.454-6.195-10.987-9.676-19.256-6.844
				c-1.437,0.492-3.121,0.215-4.615,0.588c-6.799,1.693-11.33-0.414-12.898-8.631c-1.28,1.807-2.647,2.848-2.583,3.785
				c0.549,7.824-4.872,11.408-10.366,14.85c-1.69,1.061-4.74,2.496-5.595,1.807c-1.615-1.307-2.591-3.941-2.942-6.168
				c-0.693-4.387-0.777-8.871-1.114-13.312c-0.804-0.061-1.607-0.115-2.41-0.176c-0.626,2.576-1.292,5.143-1.872,7.73
				c-0.976,4.359-1.656,8.811-3.015,13.045c-0.349,1.092-2.766,1.518-4.234,2.25c-0.587-1.549-1.539-3.074-1.638-4.656
				c-0.07-1.168,0.902-2.441,1.522-3.615c5.05-9.566,5.058-9.562,3.789-21.848c-2.137,1.564-3.97,2.906-6.094,4.465
				c-5.659-3.826-0.106-8.328,1.215-9.447c8.903-7.557,10.283-15.516,5.269-26.082c-2.532-5.332-2.252-12.023-3.083-18.121
				c-0.726-5.316-4.101-7.438-9.488-7.754c0-3.252,0-6.281,0-9.307c-0.661-0.17-1.322-0.336-1.984-0.502
				c-1.217,3.996-2.993,7.918-3.554,12.006c-1.927,14.027-9.694,25.531-16.119,37.539c-1.557,2.918-6.142,4.217-8.579,5.779
				c0.686-8.906-0.188-17.971,2.556-25.764c1.764-5.02,2.882-12.512,10.15-14.746c1.178-0.363,2.185-1.973,2.841-3.234
				c3.372-6.449,7.083-12.787,9.771-19.523c3.296-8.262,4.724-16.387-3.304-23.727c-2.709-2.477-3.557-7.471-4.338-11.488
				c-3.097-15.918-5.158-32.113-15.356-45.643c-3.734-4.957-7.553-9.908-10.676-15.244c-1.685-2.877-1.984-6.566-3.149-10.75
				c-6.294,0.379-4.319-5.182-2.784-8.703c4.228-9.715,8.992-19.232,14.205-28.455c1.464-2.59,5.21-3.889,7.913-5.777
				c0.847,0.697,1.694,1.395,2.542,2.096c-2.18,4.09-4.358,8.182-6.551,12.295c3.569,2.439,7.953,0.955,8.808-3.709
				c2.625-14.277,4.792-28.643,7.079-42.979c0.517-3.258,1.097-6.553,1.099-9.831c0.006-3.181,3.574-6.3-1.427-9.842
				c-2.581-1.827-2.176-8.021-2.902-12.278c-0.835-4.902-1.484-9.839-2.123-14.773c-1.686-13.033-3.321-26.073-4.979-39.109
				c-0.667-5.261-1.72-10.508-1.889-15.786c-0.103-3.255,1.419-6.526,1.723-9.836c1.163-12.703-3.967-23.664-9.822-34.407
				c-0.489-0.897-0.511-2.049-0.787-3.25c2.046,0.423,3.7,0.764,5.353,1.108c-0.058-1.62,0.229-3.344-0.23-4.839
				c-2.818-9.213-5.841-18.365-8.713-27.563c-0.579-1.851-0.801-3.814-1.188-5.726c0.832-0.312,1.667-0.625,2.501-0.938
				c6.527,12.931,13.058,25.862,19.616,38.846c-7.312,2.929-7.938,5.343-3.298,11.561c0.789,1.059,1.851,1.97,2.421,3.128
				c2.185,4.425,7.115,8.472,2.211,14.045c-0.246,0.282-0.312,0.885-0.216,1.283c2.538,10.803-4.18,21.352-1.058,32.047
				c1.582,5.407,4.319,10.479,6.873,16.51c-4.924,5.679-5.626,12.225,0.591,18.994c0.904,0.983-0.364,3.775-0.227,5.701
				c0.146,2.085,0.408,4.291,1.236,6.174c3.326,7.561,6.889,15.017,10.491,22.787c-3.664,2.81-7.466,5.125-3.205,10.594
				c1.122,1.439,2.171,7.096-2.662,9.207c-0.907,0.398-1.513,2.604-1.438,3.93c0.222,3.896,0.854,7.773,1.211,10.725
				c4.425-4.27,9.629-8.369,13.522-13.471c1.741-2.277,1.33-6.6,1.054-9.926c-0.469-5.689-1.711-11.311-2.378-16.992
				c-0.158-1.378,0.674-2.872,0.715-3.034c2.698,3.319,5.629,6.23,7.691,9.663c2.118,3.516,4.061,7.398,4.905,11.369
				c3.459,16.232,5.116,32.994,10.173,48.68c2.835,8.781-0.058,16.496,0.658,24.705c1.397,16.01,0.847,32.215,0.616,48.336
				c-0.106,7.6-1.343,15.184-2.067,22.773c6.178-0.949,11.232-2.92,15.786-2.105c4.792,0.855,10.88,3.236,13.269,6.961
				c5.678,8.828,10.473,18.523,13.83,28.473c4.15,12.307,6.728,25.176,9.529,37.906c1.732,7.873,7.805,11.539,13.977,13.965
				c10.124,3.979,14.915,11.379,17.038,21.217c2.561,11.863,4.967,23.762,7.246,35.68c1.24,6.49,1.979,13.074,3.167,19.576
				c0.426,2.318,1.496,4.521,3.423,6.594c1.57-22.465-1.36-44.393-8.641-65.404c0.018-0.018-0.778,0.73-2.528,2.373
				c-1.574-6.561-4.038-12.385-4.118-18.244c-0.104-7.768-2.591-13.996-7.051-20.066c-2.637-3.588-4.11-8.014-6.317-11.943
				c-4.902-8.744-10.156-17.299-14.854-26.152c-3.542-6.674-6.283-13.768-9.677-20.525c-4.949-9.871-10.164-19.607-15.269-29.398
				c-0.103-0.189-0.234-0.436-0.413-0.512c-8.271-3.379-6.309-11.908-9.397-17.922c0.667-0.279,1.321-0.625,1.367-0.561
				c8.642,12.801,19.737,23.791,26.021,38.396c5.097,11.842,12.308,22.764,18.349,34.219c4.121,7.812,7.522,16.018,11.869,23.697
				c2.51,4.436,6.89,7.83,9.269,12.314c2.598,4.908,3.696,10.586,5.748,15.814c1.922,4.887,4.856,9.449,6.241,14.457
				c2.885,10.445,5.319,21.035,7.419,31.666c2.678,13.561,5.126,27.182,7.088,40.863c0.899,6.285,0.456,12.771,0.52,19.168
				c0.053,5.301,0.495,10.678-0.196,15.893c-1.08,8.158-2.356,16.408-4.893,24.178c-0.754,2.305-6.023,3.131-10.291,4.07
				c8.152-10.506,10.678-21.6,6.028-33.834c-2.696,4.42-5.067,9.234-8.309,13.371c-4.074,5.207-9.442,7.281-16.479,6.039
				c-2.501-0.439-5.634,2.689-8.825,4.373c0.134,0.41-0.248-0.758-1.012-3.094c-3.355,2.391-6.441,4.588-9.526,6.785
				L805.469,893.881z M712.934,550.719c-0.399,0.135-0.8,0.268-1.199,0.402c-1.222,2.195-2.641,4.305-3.609,6.605
				c-1.196,2.832-2.44,5.773-2.8,8.773c-0.167,1.363,1.748,2.977,2.72,4.475c1.628-1.229,4.529-2.33,4.667-3.705
				C713.25,561.799,712.934,556.244,712.934,550.719z M730.711,683.443c3.048-8.719,6.097-17.438,9.307-26.621
				C732.655,657.967,727.54,671.529,730.711,683.443z M753.135,783.436c0.666-0.195,1.333-0.393,2.002-0.59
				c0.359-6.896,2.158-14.053-2.951-20.104c-0.748-0.889-3.242-0.307-5.406-0.434C749.133,770.135,751.133,776.783,753.135,783.436z
				 M736.069,596.426c-1.195,0.387-2.386,0.773-3.576,1.16c1.399,3.891,2.804,7.783,4.205,11.674
				c0.877-0.287,1.753-0.572,2.63-0.861C738.241,604.408,737.156,600.416,736.069,596.426z"/>
			<path fill-rule="evenodd" clip-rule="evenodd" fill="#232323" d="M514.754,347.714c7.783,12.597,18.977,12.424,30.394,10.229
				c7.124-1.369,14.455-3.078,20.892-6.258c8.744-4.319,16.682-10.258,25.044-15.369c4.616-2.82,9.56-5.13,14.003-8.183
				c1.376-0.946,2.005-3.521,2.263-5.446c0.569-4.258,0.684-8.576,1.035-13.607c9.921,5.095,11.27,18.682,4.375,24.542
				c-4.145,3.522-7.254,8.354-11.623,11.485c-4.952,3.545-10.812,5.814-16.243,8.701c-3.88,2.062-8.752,2.849-9.276,8.873
				c-0.136,1.565-3.012,3.036-4.812,4.289c-12.693,8.833-24.497,18.555-34.259,30.745c-8.111,10.131-22.443,12.848-34.919,7.193
				c1.287-4.879,2.477-9.254,9.464-7.731c1.807,0.394,4.645-0.576,5.976-1.933c7.497-7.648,14.689-15.596,21.945-23.479
				c0.568-0.618,0.814-1.534,1.402-2.697c-8.593-1.846-16.936-3.646-25.284-5.424c-0.604-0.129-1.417,0.125-1.832-0.193
				c-1.953-1.496-4.355-4.814-5.581-4.409c-4.5,1.492-8.558,4.277-12.854,6.426c-2.553,1.275-5.25,2.27-7.881,3.396
				c-1.955,0.838-3.908,1.687-5.861,2.53c0.891,2.046,1.644,4.167,2.701,6.124c1.688,3.126,3.534,6.17,5.391,9.2
				c2.551,4.163,5.221,8.251,7.737,12.434c0.821,1.367,2.249,3.617,1.772,4.262c-1.026,1.389-3.021,2.463-4.784,2.796
				c-1.604,0.304-3.901,0.022-5.081-0.97c-8.192-6.87-16.415-13.735-24.15-21.101c-8.251-7.856-15.638-16.641-24.099-24.248
				c-3.602-3.239-9.321-3.997-13.458-6.798c-5.887-3.986-11.202-8.816-17.718-14.053c-5.358,1.03-6.531-0.121-7.328-9.336
				c-0.565-6.566,2.027-11.462,8.856-15.914c0.829,3.469,1.953,6.034,1.953,8.598c-0.003,6.189,2.451,10.271,8.15,12.971
				c7.23,3.427,13.327,8.137,17.919,15.155c1.74,2.657,6.789,3.343,10.464,4.491c4.562,1.426,9.273,3.396,13.903,3.356
				c9.304-0.082,18.667-0.936,27.862-2.385c3.394-0.534,6.384-3.637,9.559-5.568c-0.895-1.354-1.987-3.972-2.652-3.867
				c-6.992,1.1-12.212-2.745-17.648-5.917c-0.981-0.575-1.654-1.928-2.143-3.062c-4.38-10.138-8.411-20.434-6.737-31.771
				c0.36-2.432,1.97-5.501,3.959-6.738c13.945-8.667,28.731-11.079,44.466-4.981c4.526,1.753,9.37,2.683,13.918,4.386
				c8.92,3.343,12.765,16.195,7.514,24.1c-1.578,2.379-3.102,4.946-3.926,7.648C534.166,341.197,526.765,346.921,514.754,347.714z"
				/>
			<path fill-rule="evenodd" clip-rule="evenodd" fill="#232323" d="M417.125,142.777c4.953,7.758,6.007,7.787,11.534,0.984
				c1.031-1.269,2.873-2.329,4.489-2.599c10.629-1.774,21.083-5.712,32.137-2.947c0.589,0.148,1.272-0.113,1.909-0.093
				c2.036,0.058,4.067,0.159,6.101,0.244c-1.48,1.734-2.677,3.93-4.524,5.07c-1.725,1.067-4.192,0.853-6.239,1.498
				c-2.94,0.924-5.796,2.116-8.691,3.194c0.089,0.686,0.178,1.372,0.265,2.058c6.017,1.328,11.993,3.418,18.062,3.756
				c5.451,0.304,7.695,3.609,8.728,7.472c0.337,1.263-3.616,4.326-6.105,5.583c-10.577,5.345-21.403,10.201-31.977,15.55
				c-1.757,0.891-2.887,3.247-4.015,5.102c-4.244,6.99-8.09,14.236-12.618,21.034c-4.536,6.809-13.164,9.618-21,7.427
				c-1.391-0.39-2.796-1.286-3.823-2.317c-3.365-3.375-6.557-6.921-9.436-9.997c-3.67,6.537-6.727,12.698-10.512,18.373
				c-1.514,2.269-4.5,3.704-7.051,5.088c-3.221,1.749-2.677,7.234,1.267,10.879c4.548,4.202,3.949,7.462-2.332,11.083
				c-1.626-5.508-2.517-11.308-5.047-16.274c-2.361-4.634-0.274-6.188,2.792-8.565c1.386-1.074,2.91-4.058,2.356-5.178
				c-2.235-4.517,0.578-6.596,3.464-8.518c3.896-2.592,5.554-5.606,4.946-10.542c-0.401-3.265,1.453-6.741,1.676-10.164
				c0.389-5.953,0.298-11.938,0.402-17.911c0.004-0.218-0.172-0.511-0.082-0.648c5.949-8.985,0.953-17.682-0.852-26.393
				c-0.508-2.449-2.493-4.552-3.39-6.965c-3.131-8.434-6.25-16.883-8.999-25.447c-0.771-2.402-1.059-5.602-0.051-7.71
				c0.707-1.479,3.943-1.885,6.125-2.494c4.421-1.234,5.763-7.823,2.381-13.36c-8.943-14.648-18.005-29.221-27.18-44.083
				c6.015-0.735,7.298-0.019,8.715,4.483c1.462,4.641,1.497,10.625,9.242,8.99c0.8-0.168,2.211,1.361,2.972,2.377
				c14.191,18.947,28.526,37.792,42.327,57.021c3.233,4.504,4.623,10.333,6.862,15.552c-0.818,0.506-1.635,1.013-2.453,1.52
				c-4.595-5.563-9.188-11.127-13.783-16.689c-0.302,0.151-0.606,0.301-0.91,0.453c4.116,8.144,8.234,16.287,12.35,24.431
				c-3.297-1.663-6.69-3.161-9.857-5.045c-2.82-1.675-5.132-4.475-8.113-5.559c-9.001-3.275-15.791-8.647-19.5-17.88
				c-0.357,1.668-0.244,3.057,0.065,4.398c1.763,7.633,3.568,15.256,5.368,22.879c1.339,5.67,9.238,7.789,13.901,4.254
				c2.085-1.582,6.02-3.086,7.86-2.153C411.023,146.101,413.977,145.433,417.125,142.777z M393.862,156.82
				c-1.651,7.315-3.062,13.57-4.796,21.26c3.765-3.568,5.848-6.75,8.763-8.024c4.396-1.917,4.742-4.827,3.801-8.498
				C400.501,157.147,397.628,155.489,393.862,156.82z"/>
			<path fill-rule="evenodd" clip-rule="evenodd" fill="#232323" d="M526.039,921.457c5.241-8.941,10.479-17.879,15.846-27.039
				c1.429,0.76,2.542,1.35,4.056,2.152c6.926-9.678,13.848-19.354,20.769-29.023c0.691,0.357,1.383,0.717,2.074,1.076
				c-1.184,3.143-2.362,6.277-3.545,9.418c0.38,0.527,0.758,1.057,1.138,1.586c4.309-2.721,9.5-4.658,12.747-8.316
				c7.872-8.879,14.844-18.557,22.169-27.924c0.124-0.156,0.053-0.57,0.171-0.617c2.025-0.789,4.067-1.541,6.107-2.301
				c-0.551,2.092-1.1,4.186-2.006,7.643c2.432-0.736,5.801-0.709,7.037-2.32c5.578-7.27,8.391-15.807,9.142-24.936
				c0.38-4.615,0.352-8.254,6.355-10.463c5.027-1.854,9.748-5.953,11.043-12.891c1.804-9.65,15.095-21.016,24.524-21.113
				c3.865-0.041,8.613,2.055,11.444,4.764c4.245,4.066,3.676,5.668,0.165,13.176c2.006,0.291,4.031,0.584,6.509,0.943
				c2.229-5.564,4.385-11.57,7.102-17.309c0.73-1.541,3.185-2.266,4.846-3.365c0.479,2.074,1.815,4.396,1.296,6.182
				c-2.721,9.361-5.591,18.707-9.063,27.811c-1.781,4.658-6.146,8.535-7.147,13.23c-1.22,5.723-4.014,10.609-5.699,15.945
				c-3.086,9.76-6.859,18.721-13.069,27.145c-4.965,6.732-7.113,15.512-10.759,23.268c-1.293,2.75-3.324,5.152-4.992,7.729
				c-1.86,2.877-3.523,5.898-5.569,8.633c-2.832,3.785-5.668,7.639-8.997,10.967c-4.786,4.783-10.016,9.119-16.742,15.16
				c9.239-23.531,20.423-44.375,32.867-64.648c-0.52-0.432-1.039-0.863-1.559-1.291c-1.68,0.52-3.36,1.041-5.516,1.707
				c-1.159-5.496-4.694-4.318-8.634-3.098c-3.139,0.973-6.489,1.418-9.781,1.682c-7.929,0.629-15.876,1.014-24.365,1.529
				c2.598-4.359,5.714-9.582,8.828-14.807c-0.529-0.42-1.06-0.84-1.588-1.262c-2.787,3.076-5.852,5.943-8.303,9.262
				c-7.185,9.732-13.998,19.734-21.245,29.414c-1.855,2.479-5.874,3.148-6.329,7.021c-1.46-0.191-3.435,0.137-4.275-0.688
				c-1.628-1.588-2.615-3.828-4.263-6.424c-6.534,12.252-12.847,24.098-19.162,35.939c-0.81-0.295-1.619-0.59-2.428-0.887
				c0-3.857,0-7.711,0-13.285c-3.567,4.637-6.383,8.293-9.195,11.953C527.374,922.342,526.705,921.9,526.039,921.457z"/>
			<path fill-rule="evenodd" clip-rule="evenodd" fill="#232323" d="M641.574,224.688c-5.018,7.105-9.087,4.673-13.224,0.124
				c-0.579-0.634-1.414-1.114-2.221-1.445c-21.004-8.637-36.17-25.246-53.538-38.873c-3.204-2.512-7.914-4.419-11.913-4.386
				c-23.241,0.187-46.036-2.332-68.201-9.484c-1.573-0.507-2.665-2.503-3.98-3.807c1.297-1.026,2.572-2.082,3.905-3.056
				c0.329-0.239,0.85-0.239,1.288-0.3c5.933-0.831,12.268-0.633,17.682-2.771c5.095-2.011,9.22-6.479,14.626-10.5
				c-2.607-1.133-4.896-2.5-7.373-3.115c-3.988-0.992-8.122-2.147-12.155-2.024c-4.946,0.151-9.957,1.169-14.751,2.494
				c-6.789,1.873-10.965-2.078-15.766-4.841c0.071-0.608,0.141-1.214,0.212-1.822c4.814-0.872,9.605-2.263,14.449-2.472
				c4.775-0.208,9.603,1.11,14.407,1.107c2.451,0,4.85-1.718,7.36-2.152c5.14-0.883,10.331-1.494,15.515-2.08
				c3.17-0.357,6.37-0.46,10.071-0.712c6.603,9.377,8.604,9.861,19.186,5.326c1.889-0.81,4.495,0.051,6.771,0.139
				c-0.531,1.979-1.062,3.956-1.693,6.309c7.209-2.198,8.287,4.061,10.995,8.626c1.02,1.723,2.969,3.36,4.85,4.016
				c5.204,1.818,10.617,3.019,15.905,4.612c4.298,1.295,6.009-0.607,6.969-5.927c-7.969,6.017-11.542-2.138-17.042-3.565
				c-0.634-0.165-1.335-3.74-0.616-4.718c1.705-2.326,4.242-4.044,6.441-6.006c0.517,0.422,1.033,0.846,1.547,1.268
				c-0.074,1.216,0.009,2.467-0.273,3.633c-0.244,1.017-0.897,1.937-1.483,3.128c5.13,4.467,9.819,5.722,16.186,2.234
				c3.006-1.647,7.661-0.283,10.55-0.283c-3.525,4.139-7.314,8.585-11.101,13.031c0.348,0.539,0.691,1.08,1.037,1.619
				c2.17-0.939,4.341-1.877,7.047-3.049c0.184,2.688,0.353,5.184,0.522,7.678c0.477,0.329,0.954,0.657,1.431,0.986
				c5.848-8.022,11.693-16.042,18.195-24.963c3.71,6.438-1.395,10.316-2.716,14.432c-1.473,4.583-5.16,8.458-6.849,11.046
				c1.991,4.021,4.697,6.951,4.566,9.747c-0.29,6.162,2.414,6.748,7.119,5.628c1.021-2.166,2.002-4.253,3.585-7.624
				c1.479,4.692,6.013,7.234,1.103,11.529c-1.169,1.021-0.172,4.52-0.172,6.881c0.632-0.288,1.262-0.575,1.894-0.864
				c1.414,2.328,3.781,4.543,4.07,7.004c1,8.525,0.906,17.181,1.935,25.7c1.019,8.412,1.92,17.061,4.696,24.967
				c2.223,6.324,7.175,11.69,10.918,17.481c-0.59,0.756-1.181,1.513-1.771,2.27c-2.319-1.166-4.665-2.287-6.95-3.518
				c-1.08-0.583-2.167-2.11-3.042-1.963c-6.973,1.163-8.266-4.87-8.757-8.621c-1.284-9.876-1.088-19.948-1.433-29.943
				C641.496,230.111,641.574,227.398,641.574,224.688z M632.309,203.555c0.642,0.299,1.28,0.597,1.922,0.896
				c1.146-2.448,2.296-4.896,3.827-8.158C631.519,197.209,631.519,197.209,632.309,203.555z"/>
			<path fill-rule="evenodd" clip-rule="evenodd" fill="#232323" d="M324.767,775.266c-4.611,2.783-6.223-0.91-7.893-3.863
				c-1.827-3.227-3.272-6.674-5.164-10.613c-6.259,5.633-8.265,0.52-9.713-3.582c-2.649-7.502-4.568-15.26-6.823-22.904
				c-0.797-2.703-1.829-5.342-2.509-8.072c-3.965-15.895-7.733-31.844-11.833-47.707c-1.839-7.115-1.269-12.197,6.155-16.428
				c6.532-3.721,6.062-14.289,1.626-20.316c-2.999-4.074-4.316-9.393-6.387-14.148c-0.026-0.305-0.053-0.617-0.08-0.926
				c-0.684-1.357-1.573-2.65-1.989-4.086c-0.375-1.297-0.232-2.742-0.318-4.123c1.397,0.111,2.794,0.227,3.428,0.279
				c3.963-7.203,8.849-13.74,11.333-21.088c4.623-13.686,13.779-26.246,11.455-41.869c-0.179-1.207,0.368-2.52,0.908-5.781
				c5.059,3.186,10.837,4.82,13.006,8.553c7.982,13.729,17.109,27.412,16.517,44.271c-0.192,5.406-2.256,10.789-3.761,16.098
				c-3.379,11.93-7.051,23.773-10.396,35.711c-2.446,8.723-4.764,10.414-14.056,9.086c-0.472,2.068-0.951,4.17-1.4,6.139
				c5.055,4.016,9.516,7.514,9.324,15.023c-0.15,5.926-2.749,9.068-7.499,8.262c-3.59-0.605-6.96-4.273-9.739-7.229
				c-1.463-1.555-1.595-4.469-2.067-6.824c-0.959-4.791-2.68-8.146-8.953-4.219c0.771-3.566,1.292-5.967,1.879-8.684
				c-6.929,1.264-6.894,1.25-4.838,6.488c6.028,15.354,10.606,30.92,12.848,47.488c1.329,9.812,4.644,20.35,12.157,28.209
				c1.441,1.506,3.582,2.346,5.398,3.494c0-0.002,0.11,0.018,0.11,0.018c3.162,7.861,6.323,15.725,9.486,23.588L324.767,775.266z"/>
			<path fill-rule="evenodd" clip-rule="evenodd" fill="#232323" d="M315.492,751.922c0,0-0.11-0.02-0.11-0.018
				c0.337-2.73,0.675-5.463,1.073-8.676c4.701,1.139,7.241,3.018,9.515,7.297c8.126,15.279,17.207,30.053,25.84,45.066
				c2.506,4.355,4.869,8.809,7.042,13.342c2.957,6.164,7.954,9.666,14.023,12.408c2.613,1.184,4.768,3.844,6.573,6.246
				c3.148,4.189,5.865,8.709,9.386,12.707c-0.743-2.99-1.486-5.98-2.23-8.973c0.538-0.291,1.075-0.588,1.614-0.879
				c8.347,9.348,16.696,18.695,25.043,28.041c0.418-0.131,0.834-0.264,1.252-0.396c-1.115-2.377-2.426-4.691-3.286-7.154
				c-0.728-2.088-0.934-4.355,0.09-6.885c10.548,16.436,23.877,31.545,21.065,54.051c-4.426-7.881-8.401-14.963-12.496-22.254
				c-1.52,2.012-2.764,3.65-5.137,6.791c-4.717-9.404-8.688-17.768-13.161-25.852c-0.911-1.648-3.594-2.652-5.663-3.246
				c-3.567-1.018-7.292-1.482-10.941-2.178c0,2.75,0.86,5.629-0.189,7.32c-1.869,3.012-4.555,6.77-7.539,7.465
				c-2.49,0.578-6.27-2.352-8.791-4.525c-2.658-2.293-4.497-5.531-7.448-7.643c2.5,10.297,5,20.592,7.499,30.889
				c-0.911,0.58-1.82,1.156-2.729,1.736c-1.896-3.342-3.792-6.682-5.687-10.021c-1.054,0.711-2.108,1.42-3.162,2.127
				c1.083,4.408,2.379,8.779,3.194,13.234c0.946,5.182,1.73,10.461-3.56,14.227c-1.021,0.723-2.165,1.965-2.332,3.102
				c-2.051,13.914-15.073,15.686-24.149,21.492c-9.396,6.01-19.56,10.83-29.46,16.033c-1.494,0.783-3.379,0.826-5.461,0.408
				c5.953-8.205,16.062-11.855,21.732-18.973c6.36-7.982,16.988-6.98,23.791-12.764c-0.296-0.752-0.594-1.506-0.891-2.258
				c0.883,0.98,1.767,1.961,3.781,4.201c2.266-3.887,4.268-7.312,6.269-10.742c0.321-0.551,0.535-1.496,0.962-1.602
				c7.897-1.961,4.488-6.393,3.222-11.377c-6.947-27.35-14.439-54.527-23.925-81.113c-2.74-7.678-3.604-14.631-0.333-22.822
				c1.433-3.592-3.158-9.584-5.012-14.49l0.211,0.244C324.082,766.736,321.503,758.641,315.492,751.922z M341.817,815.387
				c1.024-0.254,2.051-0.504,3.076-0.756c1.334-11.016-4.802-20.031-8.179-29.787c-0.609,0.16-1.219,0.32-1.828,0.477
				C337.196,795.342,339.506,805.363,341.817,815.387z"/>
			<path fill-rule="evenodd" clip-rule="evenodd" fill="#232323" d="M272.456,74.216c4.531-0.283,6.323,1.623,6.902,6.405
				c1.58,13.05,4.081,25.984,5.84,39.016c1.998,14.792,3.261,29.686,5.499,44.438c0.983,6.484,3.562,12.728,5.46,19.07
				c2.204,7.359,4.31,14.756,6.787,22.025c0.669,1.969,2.525,3.535,3.833,5.287c0.629,0.842,1.693,1.636,1.811,2.546
				c1.12,8.754,7.439,14.252,11.835,21.145c6.361,9.972,9.395,22.185,13.147,33.669c3.33,10.184,5.729,20.673,8.488,31.04
				c0.898,3.37,1.637,6.781,2.551,10.604c1.458,0.529,3.568,1.097,5.503,2.03c6.066,2.929,8.214,7.672,6.046,14.086
				c-1.556,4.609-4.477,8.881-5.344,13.572c-1.351,7.303-2.073,14.842-1.952,22.264c0.122,7.542-2.95,13.067-11.28,14.266
				c0.973-5.9,1.855-11.246,2.878-17.437c-4.508-2.477-1.956-5.848-0.297-10.596c2.591-7.424,3.025-15.647,3.974-23.579
				c0.335-2.795-0.501-5.731-0.702-7.626c-2-2.723-4.332-4.701-5.124-7.173c-4.184-13.059-7.474-26.424-12.096-39.316
				c-2.917-8.137-7.91-15.507-11.401-23.474c-1.561-3.558-0.405-9.62-2.767-11.266c-6.626-4.62-6.81-11.86-9.223-17.991
				c-7.138-18.133-14.951-36.03-17.412-55.762c-2.44-19.58-6.046-39.018-9.383-58.476c-0.39-2.278-2.507-4.208-3.446-6.458
				c-0.791-1.899-1.032-4.031-0.17-6.512c0.561,0.718,1.122,1.439,1.682,2.159c0.656-0.109,1.312-0.219,1.968-0.327
				C274.891,86.104,273.716,80.363,272.456,74.216z"/>
			<path fill-rule="evenodd" clip-rule="evenodd" fill="#232323" d="M555.265,132.299c24.128-47.546,60.854-82.581,108.956-106.417
				c-0.068,1.079-0.153,2.442-0.282,4.467c2.593-1.159,4.727-2.114,7.292-3.263c-0.332-1.666-0.65-3.267-1.131-5.681
				c5.594-1.172,11.19-2.344,16.785-3.517c0.197,0.687,0.397,1.375,0.6,2.061c-2.047,0.855-4.089,1.71-6.135,2.565
				c0.143,0.659,0.289,1.318,0.43,1.977c2.809-0.951,6.309-1.155,8.298-2.991c6.774-6.244,15.127-5.105,23.096-5.854
				c0.884-0.082,2.149,0.611,2.738,1.344c1.837,2.273,3.426,4.741,4.792,6.677c-13.941,3.463-29.397,6.596-44.37,11.275
				c-9.556,2.985-18.446,8.161-27.543,12.541c-5.438,2.618-10.981,5.176-15.971,8.517c-6.361,4.259-12.48,8.979-18.199,14.066
				c-4.93,4.388-9.346,9.409-13.636,14.451c-3.498,4.114-6.006,9.14-9.777,12.944c-8.754,8.826-13.59,21.082-24.979,27.678
				c-3.559,2.062-5.985,6.075-8.933,9.195C556.618,133.655,555.94,132.978,555.265,132.299z"/>
			<path fill-rule="evenodd" clip-rule="evenodd" fill="#232323" d="M450.011,912.068c1.333,1.52,3.64,2.922,3.842,4.578
				c1.237,10.281,2.216,20.604,2.802,30.941c0.182,3.205-0.595,6.547-5.568,6.551c-1.802,0-4.072,2.279-5.333,4.08
				c-10.167,14.512-20.217,29.107-30.151,43.779c-5.964,8.809-15.581,10.193-24.727,12.41c-1.341,0.32-3.599-1.256-4.716-2.564
				c-0.736-0.865-0.773-3.188-0.121-4.229c4.014-6.389,8.366-12.568,12.502-18.885c4.094-6.248,7.854-12.723,12.146-18.828
				c5.011-7.135,10.372-14.027,15.744-20.896c1.172-1.5,2.857-2.971,4.611-3.588c11.496-4.061,14.023-14.988,18.474-24.266
				c0.987-2.061-0.594-5.352-0.994-8.078C449.019,912.738,449.514,912.404,450.011,912.068z M426.823,961.908
				c-0.485-0.396-0.969-0.787-1.455-1.18c-4.998,2.967-28.206,37.5-26.611,42.764C408.111,989.629,417.467,975.77,426.823,961.908z"
				/>
			<path fill-rule="evenodd" clip-rule="evenodd" fill="#232323" d="M726.962,29.5c0.668,1.775,1.586,3.501,1.963,5.337
				c4.173,20.396,2.69,40.676-0.789,61.031c-2.072,12.128-1.784,24.755-4.732,36.617c-5.432,21.85-12.067,43.432-18.969,64.876
				c-4.942,15.35-10.737,30.465-16.96,45.348c-2.934,7.015-7.738,13.25-11.728,19.817c-1.959,3.222-3.986,6.398-6.498,10.418
				c-2.322,0.092-4.846-1.35-2.746-5.015c5.569-9.723,7.893-20.46,10.694-31.077c0.057-0.212,0.085-0.557,0.218-0.606
				c7.01-2.706,6.14-10.539,9.895-15.5c4.02-5.312,6.746-11.906,8.798-18.339c4.467-14.012,8.104-28.287,12.166-42.43
				c1.288-4.483,3.364-8.794,4.171-13.348c1.336-7.494,1.667-15.162,2.898-22.676c1.393-8.49,2.305-17.262,5.222-25.258
				c5.437-14.9,4.152-30.401,5.632-45.632c0.501-5.169-1.218-10.528-1.656-15.823c-0.203-2.45,0.23-4.955,0.379-7.434
				C725.601,29.705,726.281,29.602,726.962,29.5z"/>
			<path fill-rule="evenodd" clip-rule="evenodd" fill="#232323" d="M318.677,507.982c10.546,3.325,10.098,11.84,12.699,18.713
				c4.818,12.734,9.424,25.605,15.358,37.82c2.029,4.17,7.771,6.543,13.135,10.775c0-6.787,0-11.758,0-18.654
				c1.601,2.5,2.582,3.346,2.675,4.283c0.937,9.344,5.245,16.58,13.02,21.869c1.601,1.086,2.608,3.041,4.202,4.143
				c3.293,2.271,6.577,4.84,10.263,6.201c7.294,2.699,13.213,11.471,10.664,17.629c-2.966-2.314-6.233-4.199-8.63-6.867
				c-5.156-5.74-11.803-7.221-18.953-8.328c-2.759-0.428-5.227-2.721-8.251-4.402c-0.347,1.205-0.823,2.859-1.858,6.459
				c-2.549-3.17-4.525-5.193-5.98-7.543c-1.968-3.176-3.468-6.641-5.301-9.906c-1.48-2.643-2.637-4.52-6.935-4.289
				c-2.527,0.135-6.507-4.881-7.809-8.342c-3.111-8.268-5.021-16.99-7.497-25.826c-2.747,0.555-5.072,1.795-6.381,1.105
				c-1.847-0.971-4.328-3.543-4.129-5.129c1.011-8.045,2.968-15.896-1.556-23.685C316.62,512.645,318.228,509.888,318.677,507.982z"
				/>
			<path fill-rule="evenodd" clip-rule="evenodd" fill="#232323" d="M711.667,964.496c3.346-3.572,16.975-1.762,33.629,4.773
				c0-3.02-0.047-5.443,0.007-7.867c0.133-5.812,0.167-11.637,0.614-17.428c0.071-0.879,2.136-1.607,3.277-2.402
				c0.758,1.225,2.069,2.402,2.187,3.688c0.464,5.156,0.555,10.346,0.819,16.277c2.165-0.906,4.218-1.102,4.718-2.086
				c3.205-6.295,9.468-6.779,15.089-9.057c8.68-3.521,17.188-7.758,25.147-12.689c9.674-5.992,19.233-12.42,27.748-19.906
				c3.261-2.869,9.563-2.594,10.225-9.486c0.205-2.162,6.673-3.73,10.276-5.566c0.566,0.684,1.136,1.369,1.702,2.051
				c-0.993,2.58-1.299,5.873-3.104,7.611c-6.406,6.164-13.068,12.121-20.109,17.541c-8.57,6.596-17.545,12.674-26.498,18.75
				c-2.806,1.904-6.036,3.256-9.199,4.545c-8.699,3.551-17.633,6.584-26.15,10.523c-4.883,2.26-9.119,5.914-13.696,8.865
				c-0.9,0.578-2.168,1.305-3.047,1.088C734.037,970.934,721.508,972.633,711.667,964.496z"/>
			<path fill-rule="evenodd" clip-rule="evenodd" fill="#232323" d="M279.684,612.77c-5.18-8.006-7.172-15.221-3.19-23.158
				c0.353-0.705,0.453-2.213,0.048-2.514c-7.555-5.664-1.156-11.938-0.638-17.789c0.639-7.197,1.935-14.402,3.682-21.422
				c1.707-6.859,4.597-13.418,6.465-20.25c1.057-3.861,1.092-8.002,1.608-12.013c0.389-3.026,0.365-6.201,1.314-9.043
				c1.732-5.179,3.744-10.317,6.197-15.19c3.464-6.875,7.403-13.513,11.2-20.216c2.162-3.818,4.445-7.566,6.674-11.345
				c0.534,0.298,1.068,0.596,1.602,0.893c-3.19,8.299-6.96,16.432-9.41,24.943c-2.508,8.707-3.723,17.785-5.596,27.17
				c2.104-1.124,3.984-2.131,6.137-3.281c3.226,4.076,3.969,8.25,0.622,12.509c-0.793,1.01-2.527,1.963-3.727,1.854
				c-7.013-0.652-12.51,4.186-13.649,11.205c-1.453,8.947-3.686,17.764-5.582,26.639c-0.274,1.283-0.703,2.559-0.784,3.855
				c-0.567,9.096-1.193,18.189-1.523,27.293c-0.188,5.17,0.232,10.361,0.18,15.541C281.303,609.623,280.464,610.785,279.684,612.77z
				"/>
			<path fill-rule="evenodd" clip-rule="evenodd" fill="#232323" d="M569.137,238.513c7.795,0.186,12.746,4.663,15.989,11.134
				c3.214,6.406,0.683,11.811-3.603,16.903c-10.1,12.013-23.332,12.247-31.146-0.151c-1.808-2.867-2.212-7.678-1.254-11.021
				C551.601,246.722,562.417,238.229,569.137,238.513z"/>
			<path fill-rule="evenodd" clip-rule="evenodd" fill="#232323" d="M429.531,250.732c0.023-6.801,10.083-16.396,17.408-15.762
				c12.384,1.074,18.998,6.719,19.055,19.146c0.044,9.747-8.015,16.655-19.143,16.942
				C437.288,271.302,429.493,262.154,429.531,250.732z"/>
			<path fill-rule="evenodd" clip-rule="evenodd" fill="#232323" d="M711.045,940.391c-3.28,2.9-5.602,4.949-8.542,7.551
				c-0.087-0.016-1.479-0.266-3.091-0.557c-1.216,16.504-4.108,32.146-11.705,46.578c-0.715,1.357-1.402,3.35-2.547,3.744
				c-2.729,0.934-5.77,1.521-8.581,1.23c-0.634-0.066-1.644-4.496-1.101-6.557c2.67-10.143,5.98-20.117,8.682-30.254
				c0.873-3.287,0.577-6.893,0.852-10.863c4.754,0.697,8.754-0.012,8.09-6.83c-0.062-0.635,4.959-1.76,9.084-3.154
				c0-1.65-0.38-4.633,0.142-7.455c0.312-1.676,2.048-3.084,3.142-4.613c1.237,1.299,2.974,2.396,3.604,3.941
				C710.208,935.93,710.686,938.979,711.045,940.391z"/>
			<path fill-rule="evenodd" clip-rule="evenodd" fill="#232323" d="M495.284,641.727c-9.266-0.588-19.87-0.508-26.195-7.332
				c-6.538-7.055-14.225-5.52-21.428-7.406c-6.038-1.58-13.515,1.223-17.358-6.459c-0.199-0.398-2.212,0.277-3.347,0.145
				c-1.694-0.191-4.21-0.08-4.893-1.096c-3.862-5.748-7.318-11.771-10.794-17.771c-0.321-0.551,0.199-1.59,0.436-3.09
				c1.513,0.916,2.774,1.326,3.517,2.184c8.441,9.74,20.554,12.988,31.651,18.021c1.193,0.541,2.644,1.223,3.812,0.998
				c15.524-3.02,25.317,11.357,39.392,13.037c2.359,0.277,4.257,4.416,6.367,6.771C496.057,640.395,495.671,641.059,495.284,641.727
				z"/>
			<path fill-rule="evenodd" clip-rule="evenodd" fill="#232323" d="M659.164,49.471c-3.115,3.832-5.665,6.708-7.907,9.806
				c-2.452,3.39-4.453,7.113-6.967,10.455c-2.09,2.781-4.652,5.205-6.981,7.812c-3.628,4.065-7.391,8.022-10.812,12.256
				c-4.622,5.726-9.048,11.615-13.424,17.532c-5.627,7.603-11.118,15.308-16.676,22.962c-1.672,2.302-3.199,4.735-5.11,6.819
				c-0.963,1.048-2.632,1.448-3.981,2.141c0.301-1.197,0.63-2.388,0.897-3.595c1.703-7.791,9.152-13.213,8.724-22.125
				c-0.105-2.202,3.035-5.647,5.466-6.68c6.878-2.925,8.251-10.056,12.658-14.728c13.475-14.276,27.249-28.266,40.952-42.323
				C656.32,49.475,657.163,49.657,659.164,49.471z"/>
			<path fill-rule="evenodd" clip-rule="evenodd" fill="#232323" d="M576.425,617.578c-6.335,5.068-12.672,10.135-19.007,15.201
				c-0.549-1.234-1.305-2.928-2.461-5.529c-8.783,5.984-17.139,11.68-25.492,17.371c-0.626-0.396-1.251-0.793-1.876-1.191
				c1.36-3.408,2.068-7.32,4.221-10.121c4.688-6.107,9.907-11.85,15.308-17.348c3.513-3.58,10.967-2.84,18.104,2.605
				c2.813-3.764,5.523-8.15,9.048-11.744c1.605-1.635,4.819-1.689,7.307-2.459c-0.469,2.279-0.813,4.588-1.433,6.826
				c-0.679,2.457-1.606,4.846-2.428,7.266C577.285,618.162,576.854,617.871,576.425,617.578z"/>
			<path fill-rule="evenodd" clip-rule="evenodd" fill="#232323" d="M665.077,296.848c4.758,4.496,9.549,8.954,14.26,13.496
				c2.952,2.849,4.13,5.464,3.115,10.371c-0.711,3.417,3.872,8.062,6.384,11.973c1.967,3.065,8.112,5.057,4.599,9.459
				c-3.673,4.598-6.907-1.185-10.083-2.718c-3.699-1.787-7.003-4.416-10.421-6.766c-0.882-0.606-2.026-1.423-2.233-2.33
				c-2.524-11.028-4.896-22.093-7.308-33.146C663.952,297.074,664.515,296.96,665.077,296.848z"/>
			<path fill-rule="evenodd" clip-rule="evenodd" fill="#232323" d="M330.592,1019.176c3.731-3.723,7.645-5.432,13.011-2.807
				c2.587,1.268,5.914,1.016,8.82,1.441c1.054-3.316,1.904-5.994,2.753-8.67c-0.344,0.057-0.689,0.113-1.034,0.17
				c-0.702-3.184-1.992-6.365-1.991-9.547c0.004-7.93,0.441-15.877,1.087-23.785c0.115-1.416,2.073-2.676,3.18-4.008
				c0.785,1.426,2.244,2.85,2.248,4.277c0.03,10.193-0.032,20.4-0.481,30.582c-0.333,7.543,1.221,10.148,8.576,11.336
				c4.414,0.713,8.905,0.943,13.706,1.424c-5.912,7.377-30.885,6.109-39.088-1.783c-3.06,3.582-6.648,4.916-10.637,1.24
				L330.592,1019.176z"/>
			<path fill-rule="evenodd" clip-rule="evenodd" fill="#232323" d="M631.907,588.299c-5.388,5.852-10.333,12.207-16.278,17.422
				c-7.074,6.209-14.929,11.549-22.648,16.975c-1.29,0.908-4.257,1.162-5.319,0.311c-2.366-1.898-4.018-4.688-5.961-7.113
				c1.639-1.014,3.304-1.984,4.905-3.051c3.469-2.307,7.115-4.406,10.302-7.057c4.53-3.77,8.69-7.99,13.07-11.943
				c0.796-0.717,2.43-1.777,2.785-1.504c7.522,5.721,10.25-3.061,15.221-4.912c0.775-0.289,1.588-0.484,2.387-0.725
				C630.881,587.232,631.396,587.768,631.907,588.299z"/>
			<path fill-rule="evenodd" clip-rule="evenodd" fill="#232323" d="M805.276,894.033c3.941,2.141,9.639,2.809,7.89,10.209
				c4.105-1.682,7.865-3.223,11.63-4.764c-5.048,8.641-31.154,29.039-40.053,27.473c1.545-2.561,2.956-4.896,4.72-7.818
				c-1.509,0-2.146-0.158-2.656,0.027c-2.043,0.746-4.04,1.6-6.059,2.412c-0.064-0.996-0.131-1.99-0.196-2.986
				c2.616-0.139,1.645-5.025,6.853-3.637c4.35,1.162,10.163-3.152,16.408-5.441c-7.401-4.871-7.511-6.529-2.426-11.291
				c1.445-1.35,2.719-2.881,4.076-4.332C805.469,893.881,805.276,894.033,805.276,894.033z"/>
			<path fill-rule="evenodd" clip-rule="evenodd" fill="#232323" d="M472.618,414.733c7.578-2.558,14.894,0.069,21.996,2.336
				c10.174,3.254,20.15,2.868,30.226,0.058c5.413-1.511,10.809-3.083,17.022-4.862c-1.442,9.592-9.238,9.78-14.518,11.045
				c-15.075,3.611-30.466,2.359-45.55-0.718c-3.494-0.713-6.485-3.882-9.708-5.922C472.264,416.025,472.438,415.379,472.618,414.733
				z"/>
			<path fill-rule="evenodd" clip-rule="evenodd" fill="#232323" d="M298.422,15.384c-0.238,1.042-0.152,2.717-0.765,3.032
				c-14.28,7.366-13.38,21.668-15.778,34.401c-0.893,4.733-1.241,9.566-1.887,14.347c-0.602,4.464-3.079,5.931-8.384,4.484
				c1.482-6.008,3.136-11.737,4.265-17.569c1.026-5.298,1.166-10.771,2.272-16.047c1.296-6.171,2.78-12.379,5.013-18.255
				c1.63-4.292,4.204-8.682,10.33-4.786c1.29,0.819,3.362,0.406,5.074,0.561L298.422,15.384z"/>
			<path fill-rule="evenodd" clip-rule="evenodd" fill="#232323" d="M297.966,955.057c2.448,9.564,5.054,19.09,7.205,28.721
				c0.404,1.799-1.006,4.008-1.579,6.027c-1.122-1.906-2.539-3.709-3.268-5.758c-0.515-1.451-0.099-3.232-0.099-4.869
				c-0.722-0.045-1.443-0.094-2.166-0.143c-0.331,4.785-0.663,9.566-0.976,14.07c3.306,0.59,5.665,1.012,8.023,1.434
				c-0.105,0.709-0.208,1.418-0.313,2.127c-0.568,0.047-1.139,0.141-1.707,0.121c-0.639-0.018-1.274-0.135-2.125-0.236
				c0,0.719-0.001,1.285,0,1.859c0.003,1.572,0.144,3.168-0.125,4.689c-0.042,0.24-2.511,0.582-2.849,0.129
				c-0.724-0.979-0.821-2.434-1.115-3.709c-0.128-0.555,0.122-1.35-0.183-1.689c-10.208-11.396-2.613-24.816-4.085-37.197
				c-0.229-1.926,1.955-4.143,3.022-6.227C296.408,954.623,297.187,954.842,297.966,955.057z"/>
			<path fill-rule="evenodd" clip-rule="evenodd" fill="#232323" d="M680.087,947.365c-11.205-3.703-22.409-7.406-34.933-11.547
				c6.289-6.27,12.919-6.17,18.784-5.99c6.006,0.182,11.949,2.582,17.912,4.043c1.931,0.473,4.048,0.703,5.689,1.693
				c1.435,0.865,2.325,2.639,3.459,4.014c-1.562,0.402-3.16,1.24-4.681,1.119c-3.82-0.299-7.604-1.031-13.188-1.854
				c3.561,3.215,5.74,5.186,7.923,7.156C680.729,946.453,680.408,946.91,680.087,947.365z"/>
			<path fill-rule="evenodd" clip-rule="evenodd" fill="#232323" d="M329.356,440.05c6.517,1.859,5.717,6.928,3.915,12.08
				c-3.676,10.499-7.412,20.983-11.493,31.324c-0.805,2.043-3.289,3.422-4.999,5.107c-0.744-2.54-2.717-5.495-2.022-7.548
				c3.36-9.961,7.52-19.648,11.214-29.5C327.322,447.91,328.172,444.119,329.356,440.05z"/>
			<path fill-rule="evenodd" clip-rule="evenodd" fill="#232323" d="M536.919,936.377c0.385,14.947,0.802,29.893,1.079,44.842
				c0.02,1.045-0.971,2.963-1.551,2.984c-1.312,0.053-2.927-0.533-3.915-1.418c-0.887-0.793-1.555-2.344-1.538-3.551
				c0.171-12.904,0.431-25.807,0.87-38.699c0.052-1.541,1.299-3.041,1.99-4.559C534.877,936.107,535.898,936.242,536.919,936.377z"
				/>
			<path fill-rule="evenodd" clip-rule="evenodd" fill="#232323" d="M714.004,881.082c-0.555-3.85-2.073-7.316-1.282-10.131
				c3.466-12.344,5.973-24.713,4.904-37.613c-0.042-0.523,0.475-1.094,0.798-1.781C726.236,846.537,724.48,874.492,714.004,881.082z
				"/>
			<path fill-rule="evenodd" clip-rule="evenodd" fill="#232323" d="M504.893,637.99c4.672,7.916,9.527,15.742,13.753,23.896
				c0.452,0.871-2.442,4.244-4.406,5.316c-1.183,0.648-4.608-0.363-5.241-1.568c-3.071-5.844-5.945-11.867-8.021-18.115
				c-0.816-2.461,0.628-5.67,1.043-8.539C502.977,638.65,503.934,638.316,504.893,637.99z"/>
			<path fill-rule="evenodd" clip-rule="evenodd" fill="#232323" d="M624.229,609.584c-1.003-0.842-2.393-1.455-2.439-2.164
				c-0.089-1.289,0.203-3.332,1.06-3.842c11.279-6.701,22.651-13.25,34.115-19.629c0.944-0.525,2.735,0.467,4.134,0.758
				c-0.583,1.441-0.754,3.594-1.818,4.213c-7.471,4.363-15.16,8.352-22.704,12.59c-2.487,1.398-4.738,3.209-7.125,4.789
				C627.812,607.383,626.124,608.396,624.229,609.584z"/>
			<path fill-rule="evenodd" clip-rule="evenodd" fill="#232323" d="M569.008,994.438c9.575,1.938,19.211,3.627,28.706,5.904
				c5.283,1.264,10.453,3.229,15.418,5.455c1.538,0.688,2.228,3.271,3.307,4.986c-1.899,0.217-3.966,1.029-5.671,0.553
				c-9.33-2.619-18.663-5.277-27.801-8.48c-5.075-1.779-9.769-4.648-14.633-7.025C568.559,995.367,568.785,994.902,569.008,994.438z
				"/>
			<path fill-rule="evenodd" clip-rule="evenodd" fill="#232323" d="M660.691,1002.57c-0.345-3.209-1.077-6.434-0.951-9.623
				c0.26-6.453,0.79-12.912,1.613-19.312c0.314-2.449,1.742-4.758,2.659-7.129c1.068,0.154,2.135,0.301,3.2,0.451
				c0.079,6.305,0.39,12.615,0.162,18.908c-0.175,4.861-0.922,9.719-1.607,14.551c-0.581,4.078-2.345,6.146-6.26,3.291
				C659.901,1003.328,660.297,1002.949,660.691,1002.57z"/>
			<path fill-rule="evenodd" clip-rule="evenodd" fill="#232323" d="M646.696,969.357c2.249,6.291,3.735,12.928,0.738,19.262
				c-1.271,2.68-5.159,4.119-7.856,6.119c-0.77-0.613-1.539-1.229-2.311-1.844c2.119-8.01,4.239-16.02,6.358-24.029
				C644.648,969.027,645.673,969.195,646.696,969.357z"/>
			<path fill-rule="evenodd" clip-rule="evenodd" fill="#232323" d="M759.755,903.074c-8.072,6.771-9.629,7.146-13.577,5.113
				c-6.824,3.324-12.637,6.27-18.576,8.926c-0.885,0.395-2.383-0.57-2.393-0.57c4.22-3.543,7.092-5.758,9.738-8.217
				c4.354-4.049,7.934-9.342,15.394-5.428C752.543,904.055,755.863,903.074,759.755,903.074z"/>
			<path fill-rule="evenodd" clip-rule="evenodd" fill="#232323" d="M326.132,984.172c10.016,1.031,6.894,9.145,9.745,12.945
				c-3.469,4.516-6.494,8.455-9.519,12.396c-0.446-0.391-0.89-0.783-1.333-1.176C325.391,1000.33,325.758,992.322,326.132,984.172z"
				/>
			<path fill-rule="evenodd" clip-rule="evenodd" fill="#232323" d="M636.387,1013.016c2.148-2.49,3.902-4.521,6.482-7.51
				c-4.729-0.322-8.066-0.549-11.406-0.781c-0.054-0.828-0.112-1.66-0.167-2.49c4.181-0.648,8.419-2.041,12.527-1.732
				c3.91,0.299,7.685,2.369,11.456,3.639C649.18,1012.91,645.374,1014.83,636.387,1013.016z"/>
			<path fill-rule="evenodd" clip-rule="evenodd" fill="#232323" d="M722.432,958.541c0.062-7.199-1.526-14.654,3.333-21.166
				c0.953-1.271,2.898-1.803,4.385-2.68c0.681,1.893,2.114,3.879,1.893,5.656c-0.563,4.473-1.554,8.957-3.014,13.217
				c-0.785,2.295-2.888,4.135-4.397,6.182C723.897,959.348,723.163,958.943,722.432,958.541z"/>
			<path fill-rule="evenodd" clip-rule="evenodd" fill="#232323" d="M356.617,308.991c2.015-6.192,3.751-11.518,5.425-16.655
				c-1.677-1.481-3.144-2.778-4.611-4.075c1.366-1.481,2.733-2.963,4.1-4.447c1.305,1.343,3.446,2.517,3.758,4.061
				c0.885,4.378,0.889,8.928,1.489,13.375C367.489,306.527,365.285,308.612,356.617,308.991z"/>
			<path fill-rule="evenodd" clip-rule="evenodd" fill="#232323" d="M541.461,984.252c5.476,2.533,10.955,5.062,16.667,7.705
				c0.384-1.918,0.639-3.186,1.178-5.887c1.919,2.916,3.058,4.65,4.221,6.426c-12.718,6.914-12.874,7.068-19.769,0.141
				c-1.959-1.973-2.723-5.133-4.034-7.748C540.303,984.678,540.882,984.467,541.461,984.252z"/>
			<path fill-rule="evenodd" clip-rule="evenodd" fill="#232323" d="M338.042,411.674c-1.13,5.746-1.834,11.62-3.533,17.192
				c-1.167,3.825-2.773,3.635-8.908-0.478c3.031-5.89,6.107-11.866,9.185-17.842C335.872,410.922,336.957,411.298,338.042,411.674z"
				/>
			<path fill-rule="evenodd" clip-rule="evenodd" fill="#232323" d="M718.402,488.435c-3.68-8.668-7.357-17.333-11.723-27.618
				c11.909,6.665,13.048,16.511,14.126,26.387C720.004,487.613,719.203,488.024,718.402,488.435z"/>
			<path fill-rule="evenodd" clip-rule="evenodd" fill="#232323" d="M712.65,841.729c0,8.529,0.105,15.994-0.125,23.451
				c-0.032,1.027-1.73,2.006-2.656,3.008c-0.86-0.832-2.496-1.701-2.457-2.486c0.361-7.285,0.952-14.564,1.693-21.82
				C709.166,843.266,710.79,842.816,712.65,841.729z"/>
			<path fill-rule="evenodd" clip-rule="evenodd" fill="#232323" d="M725.175,897.506c-1.989,2.357-2.926,3.469-3.863,4.58
				c-0.449-0.16-0.901-0.322-1.354-0.484c0.584-3.168,1.172-6.338,1.885-10.186c1.968,1.197,3.685,2.244,5.44,3.312
				c1.657-1.168,3.178-2.238,6.076-4.279c-1.283,6.143-2.137,10.896-3.379,15.545c-0.209,0.789-2.143,1.654-3.13,1.504
				c-0.693-0.107-1.451-1.836-1.607-2.92C724.983,902.738,725.175,900.836,725.175,897.506z"/>
			<path fill-rule="evenodd" clip-rule="evenodd" fill="#232323" d="M496.915,924.814c7.049,5.121,6.58,13.596,10.508,20.781
				C496.612,940.521,492.53,932.377,496.915,924.814z"/>
			<path fill-rule="evenodd" clip-rule="evenodd" fill="#232323" d="M767.541,905.363c-0.218,1.602,0.017,2.975-0.545,3.518
				c-3.942,3.805-7.956,7.557-12.187,11.033c-0.884,0.725-2.766,0.23-4.188,0.301c0.247-1.354,0.126-2.938,0.808-4.018
				C754.959,910.594,759.628,906.439,767.541,905.363z"/>
			<path fill-rule="evenodd" clip-rule="evenodd" fill="#232323" d="M720.999,904.115c4.21,8.389-4.406,12.15-5.686,19.393
				C710.276,914.482,712.032,909.271,720.999,904.115z"/>
			<path fill-rule="evenodd" clip-rule="evenodd" fill="#232323" d="M472.438,913.631c-9.794-0.172-15.564-6.342-20.312-14.037
				c0.369-0.549,0.739-1.096,1.107-1.643c6.706,4.656,13.415,9.312,20.122,13.969C473.052,912.488,472.745,913.059,472.438,913.631z
				"/>
			<path fill-rule="evenodd" clip-rule="evenodd" fill="#232323" d="M371.118,266.49c-0.902,3.563-1.557,7.058-2.771,10.346
				c-0.324,0.878-2.362,1.122-3.615,1.657c-0.611-1.678-2.184-3.796-1.656-4.951c1.593-3.474,5.551-6.766-1.297-8.877
				c0.397-1.143,0.465-2.898,1.249-3.32C366.067,259.714,371.063,263.13,371.118,266.49z"/>
			<path fill-rule="evenodd" clip-rule="evenodd" fill="#232323" d="M293.795,76.841c-4.576-3.696-4.973-17.392-1.337-20.004
				c0.733-0.526,2.222-0.807,2.879-0.407c0.724,0.44,1.344,1.857,1.225,2.743C295.808,64.794,294.833,70.385,293.795,76.841z"/>
			<path fill-rule="evenodd" clip-rule="evenodd" fill="#232323" d="M330.742,1019.047c-3.417-1.436-6.819-2.914-10.266-4.281
				c-0.738-0.293-1.635-0.186-2.459-0.264c-0.362,0.693-0.724,1.391-1.086,2.086c-1.172-1.586-2.347-3.164-4.362-5.887
				c2.812-0.402,4.499-0.809,6.185-0.812c0.757,0,1.486,0.879,2.275,1.252c3.942,1.855,8.247,5.475,9.549,8.049
				C330.592,1019.176,330.742,1019.047,330.742,1019.047z"/>
			<path fill-rule="evenodd" clip-rule="evenodd" fill="#232323" d="M730.265,809.381c4.589,0.557,8.142,2.684,8.718,7.723
				c0.109,0.949-2.609,2.225-4.023,3.352c-2.331-3.047-4.661-6.088-6.994-9.131C728.731,810.676,729.498,810.031,730.265,809.381z"
				/>
			<path fill-rule="evenodd" clip-rule="evenodd" fill="#232323" d="M708.909,808.465c-5.901-8.371,3.441-12.77,4.016-19.508
				C716.294,793.092,714.344,802.111,708.909,808.465z"/>
			<path fill-rule="evenodd" clip-rule="evenodd" fill="#232323" d="M341.338,405.372c-1.549,0-3.126,0-5.456,0
				c0.287-4.634,0.579-9.29,0.897-14.439c2.758,2.541,4.815,4.437,7.312,6.736C343.387,399.641,342.369,402.489,341.338,405.372z"/>
			<path fill-rule="evenodd" clip-rule="evenodd" fill="#232323" d="M703.535,826.426c1.021-4.92,2.048-9.84,3.08-14.811
				c6.189,3.84,6.141,4.143,1.867,9.076c-1.315,1.516-1.696,3.84-2.502,5.795C705.164,826.465,704.348,826.445,703.535,826.426z"/>
			<path fill-rule="evenodd" clip-rule="evenodd" fill="#232323" d="M659.049,55.816c4.063-1.312,8.128-2.625,12.964-4.188
				c-2.753,7.619-4.613,8.467-12.142,6.494C659.596,57.354,659.324,56.584,659.049,55.816z"/>
			<path fill-rule="evenodd" clip-rule="evenodd" fill="#232323" d="M449.365,896.779c-3.173-4.119-6.346-8.24-10.161-13.189
				c7.002,1.773,12.009,7.32,11.855,12.041C450.495,896.012,449.93,896.395,449.365,896.779z"/>
			<path fill-rule="evenodd" clip-rule="evenodd" fill="#232323" d="M571.66,899.352c3.146-4.637,6.29-9.273,9.502-14.01
				c3.457,6.004-1.654,13.053-9.699,13.848C571.468,899.197,571.66,899.352,571.66,899.352z"/>
			<path fill-rule="evenodd" clip-rule="evenodd" fill="#232323" d="M282.146,626.705c0.026,0.309,0.054,0.621,0.08,0.926
				c-0.458,2.168-0.916,4.338-1.372,6.508c-1.375-0.447-3.919-0.881-3.926-1.344c-0.025-2.465,0.582-4.941,0.972-7.416
				C279.313,625.822,280.731,626.264,282.146,626.705z"/>
			<path fill-rule="evenodd" clip-rule="evenodd" fill="#232323" d="M472.375,906.412c8.248,1.191,12.262,6.846,10.136,12.096
				C479.42,914.82,476.451,911.277,472.375,906.412z"/>
			<path fill-rule="evenodd" clip-rule="evenodd" fill="#232323" d="M563.031,905.939c1.527,7.857,1.166,8.387-6.474,8.852
				c0.711-4.176,0.975-8.322,6.642-8.533C563.204,906.264,563.031,905.939,563.031,905.939z"/>
			<path fill-rule="evenodd" clip-rule="evenodd" fill="#232323" d="M298.562,15.552c-0.06-3.875,0.221-7.805,5.091-8.334
				c1.563-0.169,3.326,1.523,4.999,2.364c-1.228,1.126-2.297,2.553-3.723,3.308c-2.039,1.082-4.338,1.672-6.517,2.481
				C298.422,15.384,298.562,15.552,298.562,15.552z"/>
			<path fill-rule="evenodd" clip-rule="evenodd" fill="#232323" d="M318.25,495.954c-1.444,4.176-2.887,8.349-4.333,12.525
				c-0.942-0.356-1.886-0.714-2.829-1.07c1.483-4.303,2.967-8.604,4.449-12.905C316.442,494.987,317.347,495.471,318.25,495.954z"/>
			<path fill-rule="evenodd" clip-rule="evenodd" fill="#232323" d="M584.68,883.898c2.309-3.932,4.614-7.861,6.923-11.789
				c0.755,0.402,1.508,0.809,2.265,1.213c-2.229,3.984-4.457,7.971-6.686,11.957C586.348,884.818,585.513,884.355,584.68,883.898z"
				/>
			<path fill-rule="evenodd" clip-rule="evenodd" fill="#232323" d="M766.888,924.316c-0.035-7.906,2.163-9.924,9.258-8.77
				C773,918.523,770.53,920.863,766.888,924.316z"/>
			<path fill-rule="evenodd" clip-rule="evenodd" fill="#232323" d="M563.031,905.939c0,0,0.173,0.324,0.168,0.318
				c2.821-2.301,5.647-4.598,8.465-6.9c-0.004-0.006-0.196-0.16-0.201-0.168c0.806,1.412,1.618,2.83,2.512,4.391
				c-2.337,1.809-4.504,3.486-7.002,5.42C565.715,908.023,564.376,906.982,563.031,905.939z"/>
			<path fill-rule="evenodd" clip-rule="evenodd" fill="#232323" d="M712.934,550.719c0,5.525,0.316,11.08-0.222,16.551
				c-0.138,1.375-3.039,2.477-4.667,3.705c-0.972-1.498-2.887-3.111-2.72-4.475c0.359-3,1.604-5.941,2.8-8.773
				c0.969-2.301,2.388-4.41,3.609-6.605C712.134,550.986,712.534,550.854,712.934,550.719z"/>
			<path fill-rule="evenodd" clip-rule="evenodd" fill="#232323" d="M730.711,683.443c-3.171-11.914,1.944-25.477,9.307-26.621
				C736.808,666.006,733.759,674.725,730.711,683.443z"/>
			<path fill-rule="evenodd" clip-rule="evenodd" fill="#232323" d="M753.135,783.436c-2.002-6.652-4.002-13.301-6.355-21.127
				c2.164,0.127,4.658-0.455,5.406,0.434c5.109,6.051,3.311,13.207,2.951,20.104C754.468,783.043,753.801,783.24,753.135,783.436z"
				/>
			<path fill-rule="evenodd" clip-rule="evenodd" fill="#232323" d="M736.069,596.426c1.087,3.99,2.172,7.982,3.259,11.973
				c-0.877,0.289-1.753,0.574-2.63,0.861c-1.401-3.891-2.806-7.783-4.205-11.674C733.684,597.199,734.874,596.812,736.069,596.426z"
				/>
			<path fill-rule="evenodd" clip-rule="evenodd" fill="#232323" d="M632.309,203.555c-0.79-6.346-0.79-6.346,5.749-7.262
				c-1.531,3.262-2.681,5.71-3.827,8.158C633.589,204.152,632.95,203.854,632.309,203.555z"/>
			<path fill-rule="evenodd" clip-rule="evenodd" fill="#232323" d="M315.492,751.922c6.011,6.719,8.589,14.814,9.486,23.588
				C321.815,767.646,318.654,759.783,315.492,751.922z"/>
			<path fill-rule="evenodd" clip-rule="evenodd" fill="#232323" d="M341.817,815.387c-2.311-10.023-4.622-20.045-6.931-30.066
				c0.609-0.156,1.219-0.316,1.828-0.477c3.377,9.756,9.514,18.771,8.179,29.787C343.869,814.883,342.842,815.133,341.817,815.387z"
				/>
			<path fill-rule="evenodd" clip-rule="evenodd" fill="#232323" d="M426.823,961.908c-9.355,13.861-18.711,27.721-28.066,41.584
				c-1.594-5.264,21.613-39.797,26.611-42.764C425.854,961.121,426.338,961.512,426.823,961.908z"/>
		</g>
	</g>
	<path fill="#FFFFFF" d="M522.836,431.768c-17.716,0-17.716,27.474,0,27.474C540.553,459.242,540.553,431.768,522.836,431.768z"/>
</g>
</svg>
