<?xml version="1.0" encoding="utf-8"?>
<!-- Generator: Adobe Illustrator 16.0.0, SVG Export Plug-In . SVG Version: 6.00 Build 0)  -->
<!DOCTYPE svg PUBLIC "-//W3C//DTD SVG 1.1//EN" "http://www.w3.org/Graphics/SVG/1.1/DTD/svg11.dtd">
<svg version="1.1" xmlns="http://www.w3.org/2000/svg" xmlns:xlink="http://www.w3.org/1999/xlink" x="0px" y="0px" width="256px"
	 height="256px" viewBox="0 0 256 256" enable-background="new 0 0 256 256" xml:space="preserve">
<g id="Layer_2" display="none">
	<circle display="inline" fill="#0C7E8C" stroke="#000000" stroke-miterlimit="10" cx="132.557" cy="128" r="116.527"/>
</g>
<g id="Layer_1">
	<g>
		<path fill="#F2F2F2" d="M255,223.451c0,1.808,0,3.616,0,5.424c-1.444,3.3-3.213,6.403-5.516,9.19
			c-5.77,6.985-12.217,13.146-20.608,16.935c-2.631,0-5.26,0-7.89,0c-0.374-0.921-1.284-0.567-1.921-0.707
			c-10.618-2.325-19.198-7.647-25.434-16.703c-9.116-13.246-17.235-27.094-25.049-41.124c-0.965-1.734-1.591-1.812-3.229-0.738
			c-17.16,11.238-36.048,17.041-56.544,17.239c-19.26,0.188-37.4-4.411-53.948-14.327c-27.111-16.241-43.969-39.897-50.384-70.936
			c-0.736-3.565-0.681-7.256-1.872-10.731c0-6.244,0-12.488,0-18.732c0.984-2.01,0.762-4.231,1.105-6.352
			c2.971-18.311,9.963-34.898,21.596-49.381C41.58,22.25,62.467,9.503,88.027,4.452c3.398-0.672,6.919-0.633,10.212-1.845
			c5.916,0,11.833,0,17.747,0c0.171,0.516,0.614,0.429,1.008,0.45c5.751,0.322,11.388,1.374,16.949,2.811
			c45.363,11.724,77.401,51.608,78.963,98.58c0.74,22.288-5.221,42.795-17.555,61.388c-1.123,1.693-0.835,2.272,0.812,3.188
			c13.538,7.532,26.846,15.442,39.735,24.062c8.617,5.76,14.488,13.424,17.403,23.343C253.98,218.739,254.442,221.109,255,223.451z
			 M23.748,107.772c-0.464,46.04,37.545,84.306,84.046,84.109c46.225-0.194,84.075-37.106,84.038-84.065
			c-0.036-46.635-37.441-83.913-84.05-84.09C61.98,23.553,23.267,61.161,23.748,107.772z"/>
		<path fill-rule="evenodd" clip-rule="evenodd" fill="#AEADAE" d="M23.748,107.772c-0.481-46.611,38.232-84.22,84.034-84.045
			c46.608,0.177,84.014,37.455,84.05,84.09c0.037,46.958-37.813,83.871-84.038,84.065C61.293,192.078,23.284,153.812,23.748,107.772
			z M99.484,32.652c-13.333-0.465-24.726,4.532-34.923,12.585c-6.738,5.321-11.167,12.235-12.467,20.846
			c-0.835,5.538-0.437,11.155-0.626,16.734c-0.179,5.256-1.278,10.26-3.903,14.843c-2.528,4.415-5.128,8.787-7.77,13.135
			c-3.984,6.553-5.012,13.642-3.814,21.094c1.6,9.95,6.194,18.531,12.922,25.845c16.642,18.085,36.85,26.399,61.526,21.294
			c7.698-1.594,14.886-4.621,21.036-9.705c8.305-6.869,11.026-16.23,11.563-26.468c0.43-8.126,0.168-16.268-0.14-24.391
			c-0.323-8.531,1.364-16.613,4.434-24.514c2.464-6.341,5.373-12.508,7.338-19.046c3.03-10.085,0.91-18.769-6.792-26.055
			c-2.521-2.383-5.188-4.554-8.214-6.246C127.17,35.622,113.605,32.994,99.484,32.652z"/>
		<path fill-rule="evenodd" clip-rule="evenodd" fill="#FEFEFE" d="M99.484,32.652c14.121,0.342,27.687,2.97,40.17,9.951
			c3.025,1.691,5.693,3.862,8.214,6.246c7.702,7.286,9.822,15.969,6.792,26.055c-1.965,6.539-4.874,12.705-7.338,19.046
			c-3.069,7.901-4.757,15.982-4.434,24.514c0.308,8.123,0.569,16.265,0.14,24.391c-0.537,10.237-3.259,19.599-11.563,26.468
			c-6.149,5.084-13.337,8.111-21.036,9.705c-24.676,5.105-44.884-3.209-61.526-21.294c-6.729-7.313-11.323-15.895-12.922-25.845
			c-1.198-7.452-0.17-14.541,3.814-21.094c2.642-4.348,5.242-8.72,7.77-13.135c2.625-4.583,3.724-9.586,3.903-14.843
			c0.189-5.579-0.209-11.196,0.626-16.734c1.299-8.611,5.729-15.525,12.467-20.846C74.758,37.184,86.15,32.187,99.484,32.652z
			 M65.83,128.713c-0.054,15.271,12.568,27.98,27.83,28.025c15.28,0.044,27.964-12.559,28.025-27.846
			c0.062-15.273-12.527-27.94-27.843-28.016C78.579,100.802,65.885,113.415,65.83,128.713z"/>
		<path fill-rule="evenodd" clip-rule="evenodd" fill="#F6D591" d="M65.83,128.713c0.055-15.298,12.749-27.911,28.012-27.836
			c15.316,0.076,27.905,12.743,27.843,28.016c-0.062,15.287-12.745,27.89-28.025,27.846
			C78.398,156.693,65.776,143.983,65.83,128.713z"/>
	</g>
</g>
</svg>
