<?xml version="1.0" encoding="utf-8"?>
<!-- Generator: Adobe Illustrator 16.0.0, SVG Export Plug-In . SVG Version: 6.00 Build 0)  -->
<!DOCTYPE svg PUBLIC "-//W3C//DTD SVG 1.1//EN" "http://www.w3.org/Graphics/SVG/1.1/DTD/svg11.dtd">
<svg version="1.1" xmlns="http://www.w3.org/2000/svg" xmlns:xlink="http://www.w3.org/1999/xlink" x="0px" y="0px" width="1024px"
	 height="512px" viewBox="0 0 1024 512" enable-background="new 0 0 1024 512" xml:space="preserve">

<defs>
    <style type="text/css"><![CDATA[
		#nicholas {
		  stroke-dasharray: 230%; 
		  animation: sign_nicholas 2.5s; 
		}

		#cai {
		  stroke-dasharray: 65%; 
		  animation: sign_cai 3s; 
		}

		#underline {
		  stroke-dasharray: 140%; 
		  animation: sign_under 4s; 
		}

		#dot {
		  animation: sign_dot 4s; 
		}

		@keyframes sign_nicholas {
		  0% {
		    stroke-dashoffset: 230%;
		  }
		  80% {
		    stroke-dashoffset: 0%;
		  }
		}

		@keyframes sign_cai {
		  0% {
		    stroke-dashoffset: 65%;
		  }
		  65% {
		    stroke-dashoffset: 65%;
		  }
		  80% {
		    stroke-dashoffset: 0%;
		  }
		}

		@keyframes sign_under {
		  0% {
		    stroke-dashoffset: 140%;
		  }
		  60% {
		    stroke-dashoffset: 140%; 
		  }
		  80% {
		    stroke-dashoffset: 0%; 
		  }
		}

		@keyframes sign_dot {
		  0% {
		    opacity: 0; 
		  }

		  82% {
		    opacity: 0; 
		  }

		  85% {
		    opacity: 1; 
		  }
		}
    ]]></style>
</defs>

<g id="Layer_2">
	<path id="nicholas" fill="none" stroke="#000000" stroke-width="7" stroke-linecap="round" stroke-miterlimit="10" d="M243.151,356.455
		c0,0-33.085,9.582-57.017-5.84c-23.931-15.422-12.231-35.631-8.509-38.289c3.723-2.66,37.758-27.123,45.735-30.846
		s60.094-31.908,94.662-26.058c34.567,5.849,24.995,57.435,20.208,65.945c-4.786,8.508-96.257,144.65-96.257,144.65
		s115.934-171.242,134.015-166.455c18.082,4.785,0.356,37.158,0,48.926c-0.356,11.768,12.764-1.062,18.082-7.977
		s21.795-23.918,24.995-28.186s-4.254,34.566,17.549,11.168c21.804-23.4,90.938-112.744,96.257-129.229
		s-61.157,104.233-61.689,116.466c-0.532,12.23,37.758-52.648,33.504-18.082c-4.254,34.568,21.211-29.285,21.803-15.078
		c0.594,14.205,9.574,4.904,14.359-6.494c4.787-11.4,1.98,0.363,4.254,3.49c2.275,3.129,1.064-4.855,5.318-3.49
		c4.256,1.363,55.84-24.695,65.412-38.521c9.572-13.827,110.414-156.073,94.828-163.657c-15.588-7.584-104.4,171.103-93.764,180.675
		c10.637,9.572,40.096-33.53,43.607-39.82"/>
	<path id="cai" fill="none" stroke="#000000" stroke-width="7" stroke-linecap="round" stroke-miterlimit="10" d="M818.446,123.394
		c0,0,49.656-65.804,29.086-91.064C826.96,7.069,739.036,79.749,695.427,186.464c-43.607,106.715,65.592,23.046,75.871-12.763"/>
	<path id="underline" fill="none" stroke="#000000" stroke-width="7" stroke-linecap="round" stroke-miterlimit="10" d="M763.114,257.223
		c0,0-182.557,75.666-271.9,118.92s-289.122,150.064-229.65,91.34c59.472-58.723,273.61-136.721,336.72-157.283
		c63.107-20.564,1.418,51.762-64.525,104.232"/>
	<path fill="none" stroke="#000000" stroke-width="7" stroke-linecap="round" stroke-miterlimit="10" d="M424.235,271.076"/>
	<circle id="dot" cx="426.262" cy="271.076" r="6.382"/>
</g>
</svg>
