<?xml version="1.0" encoding="utf-8"?>
<!-- Generator: Adobe Illustrator 16.0.0, SVG Export Plug-In . SVG Version: 6.00 Build 0)  -->
<!DOCTYPE svg PUBLIC "-//W3C//DTD SVG 1.1//EN" "http://www.w3.org/Graphics/SVG/1.1/DTD/svg11.dtd">
<svg version="1.1" xmlns="http://www.w3.org/2000/svg" xmlns:xlink="http://www.w3.org/1999/xlink" x="0px" y="0px" width="1024px"
	 height="256px" viewBox="0 0 1024 256" enable-background="new 0 0 1024 256" xml:space="preserve">

<defs>
    <style type="text/css"><![CDATA[
      	#plane_left {
          transform: translate(60%);
          animation: fly_left 7s linear infinite; 
        }

        @keyframes fly_left {
          33% {
            transform: translate(-60%); 
          }

          100% {
            transform: translate(-60%);  
          }
        }

        #plane_right {
         transform: translate(-60%); 
         animation: fly_right 12s linear infinite;
         animation-delay: 2s;  
        }

        @keyframes fly_right {
          50% {
            transform: translate(60%); 
          }

          100% {
            transform: translate(60%);
          }
        }


        #boat_left {
          transform: translate(5%);
          animation: sail_left 10s linear infinite; 
        }

        @keyframes sail_left {
          40% {
            transform: translate(-50%);
          }
          100% {
            transform: translate(-50%);
          }
        }

        #boat_right {
         transform: translate(-5%);
         animation: sail_right 10s linear infinite;
         animation-delay: 4s;
        }

        @keyframes sail_right {
          50% {
            transform: translate(50%);
          }

          100% {
            transform: translate(50%);
          }
        }

        #cruise {
          transform: translate(15%);
          animation: cruise 15s linear infinite; 
          animation-delay: 1.5s; 
        }

        @keyframes cruise {
          50% {
            transform: translate(-45%);
          }

          100% {
            transform: translate(-45%);
          }
        }
    ]]></style>
</defs>
    
<g id="Layer_2">
	<rect opacity="0.1" fill="#0A7E8C" width="1023.94" height="254.523"/>
</g>
<g id="Layer_1">
	<g id="skyline">
		<g>
			<path fill="#303030" d="M957.901,145.46c0.134,2.485,0.253,4.67,0.364,6.854c0.073,1.398,0.188,2.799,0.188,4.197
				c0,0.912,0.562,1.983-0.562,2.68c-0.05,0.029-0.036,0.177-0.036,0.257c-0.009,0.432-0.009,0.432,0.038,1.649
				c0.095,1.062,0.095,1.062,0.124,1.855c0.776,16.253,1.539,32.238,2.307,48.311c-21.062,1.979-42.049,3.953-62.496,5.877
				l-18.763,2.541c-5.211,0.791-10.701,1.623-16.376,2.484c-0.064-0.604-0.16-1.207-0.19-1.816
				c-0.204-4.062-0.412-8.127-0.562-12.191c0.39-0.96-0.118-2.324-0.118-2.324l0.06-0.086c-0.275-2.29-0.485-4.588-0.718-6.884
				c-0.054-0.529-0.093-1.281-0.093-1.281l-0.399-1.388c-1.057,1.279-4.1,1.222-4.936-0.145c-0.23,0.582-0.487,1.076-0.627,1.604
				l1.002,25.614l-1.104,0.188l-11.062,2.5c0,0-27.777,6.771-41.896,10.22c-1.012,0.247-2.096,0.199-3.347,0.309
				c0-9.415,0-18.565,0-27.701c-4.816,0-9.449,0-14.203,0c0,9.227,0,18.348,0,27.533c-1.171,0-2.216,0-3.423,0
				c0-7.547,0-14.984,0-22.444c-3.062,0-5.963,0-8.998,0c0,7.565,0,15.004,0,22.468c-1.154,0-2.168,0-3.333,0
				c0-15.123,0-30.158,0-45.322c-5.829,0-11.509,0-17.26,0c-0.041-0.92-0.077-1.719-0.118-2.631
				c-0.526,0.117-0.981,0.219-1.441,0.318c-0.046,0.805-0.085,1.511-0.134,2.35c-2.185,0-4.288,0-6.565,0c0,8.566,0,16.992,0,25.551
				c-5.27,0-10.356,0-15.645,0c0,2.511,0,4.894,0,7.274c-0.757-3.112-1.236-6.229-1.688-9.35
				c-1.232-8.494-2.438-16.992-3.686-25.483c-0.84-5.722-1.729-11.422-1.531-17.251c0.176-5.196,0.047-10.403,0.053-15.604
				c0.002-0.526,0-1.055,0-1.67c-0.64-0.053-1.131-0.152-1.61-0.119c-0.919,0.068-1.241-0.344-1.373-1.225
				c-1.073-7.193-2.188-14.379-3.299-21.565c-0.213-1.378-0.472-2.746-0.707-4.119c-0.113-0.002-0.228-0.003-0.339-0.004
				c-0.273,0.99-0.655,1.965-0.8,2.973c-1.011,7.065-1.975,14.138-2.944,21.209c-0.35,2.546-0.344,2.545-2.806,2.668
				c-0.168,0.009-0.332,0.081-0.812,0.203c1.03,17.513-0.854,34.854-3.931,52.133c0-15.239,0-30.479,0-45.938
				c-2.671,0-5.039,0-7.548,0c0-1.783,0-3.35,0-4.91c-0.318-0.057-0.495-0.114-0.673-0.116c-6.466-0.071-12.932-0.13-19.396-0.22
				c-0.869-0.012-0.948,0.499-0.951,1.131c-0.005,1.475-0.002,2.947-0.002,4.576c-2.23,0-4.283,0-6.46,0c0,14.75,0,29.341,0,44.02
				c-0.872,0-1.615,0-2.543,0c0-2.212,0-4.353,0-6.501c-0.619-0.049-1.058-0.084-1.643-0.131c0-2.153,0-4.258,0-6.37
				c-0.314-0.07-0.498-0.171-0.652-0.138c-1.411,0.303-1.567-0.485-1.505-1.604c0.065-1.158,0.015-2.322,0.015-3.567
				c-0.695-0.056-1.255-0.099-1.974-0.152c0-0.94,0-1.815,0-2.752c-3.693,0-7.22,0.045-10.742-0.024
				c-1.135-0.022-1.402,0.408-1.357,1.428c0.062,1.34-0.855,2.521-2.055,2.857c-0.041,0.758,0.214,1.823-0.179,2.186
				c-1.03,0.947-0.784,2.029-0.796,3.117c-0.02,1.574-0.006,3.148-0.006,4.797c-1.011-0.043-1.268,0.494-1.244,1.429
				c0.087,3.526,0.111,7.056,0.146,10.582c0.019,1.796,0.002,3.593,0.002,5.53c-0.685-0.059-1.104-0.094-1.791-0.15
				c0-7.645,0-15.174,0-22.861c-1.029,0-1.786,0-2.543,0c-2.017,0-2.017,0-2.248-1.953c-5.252,0-10.509,0-15.767,0
				c-0.069,0.55-0.124,0.979-0.193,1.521c-1.603,0-3.124,0-4.867,0c0,5.261,0,10.396,0,15.589c-1.559,0-2.89,0-4.343,0
				c0-3.544,0-7.009,0-10.734c-3.111,0-6.105,0-9.206,0c0-1.017,0-1.771,0-2.69c-3.562,0-7.018,0-10.609,0c0-4.21,0-8.255,0-12.312
				c-0.667-0.094-1.197-0.168-1.902-0.269c0-2.879,0-5.744,0-8.688c-3.428,0-6.674,0-9.903,0c-0.107-0.461-0.194-0.834-0.306-1.306
				c-1.404,0-2.746,0-4.251,0c0-1.137,0.011-2.163-0.005-3.19c-0.007-0.354,0.004-0.978-0.134-1.021
				c-1.185-0.364-0.692-1.313-0.752-2.03c-0.068-0.81-0.073-1.634-0.003-2.44c0.094-1.043-0.377-1.666-1.45-2.239
				c0,4.174,0,8.16,0,12.239c-0.562-0.05-0.944-0.081-1.48-0.128c0-4.037,0-7.991,0-12.066c-1.107,0.559-1.538,1.239-1.466,2.334
				c0.082,1.26,0.481,2.896-0.132,3.706c-0.839,1.108-0.553,2.104-0.672,3.163c-0.06,0.521-0.011,1.057-0.011,1.713
				c-1.049,0-1.949,0.069-2.836-0.018c-1.025-0.102-1.732,0.124-1.8,1.359c-3.33,0-6.573,0-9.984,0c0,2.963,0,5.828,0,8.738
				c-0.729,0.064-1.294,0.116-1.987,0.18c0,6.431,0,12.787,0,19.228c-6.769,0-13.396,0-20.198,0c0-7.108,0-14.185,0-21.464
				c-2.126,0-4.083,0-6.169,0c0-1.135,0-2.061,0-3.014c-2.064,0-3.99,0-5.971,0c-0.087,0.49-0.162,0.914-0.238,1.34
				c-0.559,0-1.034,0-1.535,0c-0.064-0.506-0.121-0.935-0.176-1.356c-2.054,0-4.019,0-6.134,0c0,1.118,0,2.132,0,3.185
				c-1.186,0.059-2.215,0.108-3.248,0.16c0,18.659,0,37.324,0,55.991H-0.06v18.104H508.23c171.903,0,343.807,0,515.71,0
				c0-5.992,0-11.985,0-18.104c-15.575,0-30.935,0-46.425,0c-0.346-7.224-0.686-14.323-1.031-21.567
				c15.913-0.764,31.647-1.519,47.335-2.271c0-1.828,0-3.522,0-5.376c-15.886,1.003-31.659,2.001-47.484,3.001
				c-0.057-0.375-0.132-0.681-0.146-0.987c-0.381-8.086-0.756-16.171-1.134-24.257c-0.391-8.354-0.782-16.713-1.18-25.067
				c-0.021-0.451,0.07-1.117-0.179-1.31c-1.364-1.051-0.943-3.963-0.943-3.963l0.104-0.776l0,0l0,0
				c-0.19-2.885-0.31-5.772-0.434-8.662c-0.004-0.096-0.084,0.101,0,0l0.201-0.232l0.025-0.092c-0.148-0.106,0,0,0,0
				s-0.025,0.027,0,0l-0.025,0.027c-0.449-0.803-0.897-1.605-1.41-2.518c-0.478,0.943-0.938,1.855-1.305,2.581
				c-2.35,0-4.557,0.028-6.762-0.007c-2.707-0.045-2.705-0.069-3.522-2.609c-0.016-0.049-0.155-0.059-0.357-0.124 M861.202,229.133
				c-0.58,0.702-0.956,1.159-1.459,1.768c-0.517-0.559-0.896-0.971-1.483-1.604C859.304,229.236,860.09,229.193,861.202,229.133z
				 M858.288,228.646c0.456-0.564,0.793-0.979,1.192-1.478c0.479,0.513,0.887,0.947,1.382,1.478
				C859.994,228.646,859.217,228.646,858.288,228.646z M859.759,231.591c0.47,0.519,0.824,0.908,1.396,1.536
				c-0.977,0.085-1.699,0.148-2.822,0.247C858.898,232.666,859.262,232.212,859.759,231.591z M860.064,231.262
				c0.374-0.47,0.698-0.881,1.279-1.609c0.076,1.16,0.13,1.988,0.184,2.818c-0.097,0.032-0.191,0.067-0.289,0.102
				C860.865,232.154,860.492,231.739,860.064,231.262z M861.39,228.282c-0.666-0.621-1.077-1.005-1.585-1.476
				c0.413-0.502,0.761-0.923,1.31-1.592C861.214,226.318,861.284,227.1,861.39,228.282z M856.185,198.904
				c0,0,4.122,0.244,4.188,0.24l0.257,3.562l-4.159-0.364l0,0c-0.647,0,0.737,0,0,0
				C856.375,201.219,856.288,200.171,856.185,198.904 M803.891,236.335c17.371-3.662,34.627-7.821,52.338-10.835
				c0.193,3.753,0.372,7.243,0.558,10.835C839.064,236.335,821.479,236.335,803.891,236.335z M856.823,204.309
				c0.763,0.068,3.107,0.166,3.847,0.233l0.125,3.583c-0.082,0.227-3.564-0.201-3.771-0.021c-0.13-0.246-0.016-0.515-0.039-0.771
				C856.899,206.404,856.88,205.471,856.823,204.309z M857.212,210.389c1.06,0.06,1.94,0.061,2.803,0.193
				c0.211,0.031,0.496,0.484,0.509,0.756c0.053,1.295,0.022,2.592,0.022,3.955c-0.084,0.046-0.121,0.084-0.16,0.086
				c-3.064,0.188-3.066,0.188-3.172-3.109C857.197,211.698,857.212,211.127,857.212,210.389z M857.466,217.953
				c1.154,0,2.197,0,3.324,0c0.096,1.514,0.186,2.934,0.285,4.495c-1.154,0.212-2.159,0.397-3.371,0.618
				C857.622,221.32,857.546,219.688,857.466,217.953z M857.771,225.432c0.636,0.606,0.98,0.938,1.407,1.346
				c-0.321,0.418-0.61,0.793-0.9,1.168c-0.109-0.006-0.221-0.01-0.328-0.016C857.898,227.23,857.849,226.533,857.771,225.432z
				 M858.12,229.846c0.521,0.547,0.883,0.93,1.338,1.407c-0.399,0.462-0.764,0.881-1.338,1.541
				C858.12,231.66,858.12,230.912,858.12,229.846z M861.606,236.325c-1.031,0-2.04,0-3.235,0c-0.038-0.735-0.076-1.517-0.127-2.515
				c1.125-0.076,2.161-0.146,3.362-0.228C861.606,234.63,861.606,235.425,861.606,236.325z M973.525,233.023
				c-0.104,0.035-0.211,0.069-0.314,0.107c-1.115-1.332-2.229-2.663-3.396-4.059c1.066-1.344,2.082-2.621,3.313-4.176
				C973.271,227.861,973.398,230.443,973.525,233.023z M968.624,218.771c1.127,1.351,2.132,2.556,3.344,4.008
				c-2.316,0.117-4.373,0.221-6.793,0.343C966.439,221.523,967.462,220.234,968.624,218.771z M968.619,217.119
				c-0.479-0.561-0.843-0.987-1.407-1.646c0.98-0.045,1.719-0.08,2.738-0.127C969.438,216.029,969.101,216.479,968.619,217.119z
				 M972.691,223.761c-1.278,1.617-2.346,2.968-3.556,4.497c-1.177-1.406-2.229-2.66-3.467-4.139
				C968.075,223.997,970.194,223.889,972.691,223.761z M969.157,229.902c1.128,1.356,2.122,2.554,3.275,3.941
				c-2.275,0.111-4.298,0.211-6.65,0.325C966.995,232.639,968.01,231.354,969.157,229.902z M972.994,221.902
				c-0.104,0.035-0.205,0.067-0.31,0.104c-1.11-1.328-2.223-2.654-3.458-4.134c1.189-0.935,1.476-2.658,3.41-2.81
				C972.762,217.423,972.879,219.663,972.994,221.902z M863.287,236.326c-0.188-3.873-0.372-7.649-0.564-11.585
				c32.479-4.132,65.006-6.763,97.812-8.88c0.332,6.878,0.658,13.617,0.989,20.465C928.771,236.326,896.109,236.326,863.287,236.326
				z M970.222,149.302L970.222,149.302c0,0,0.259,7.32,0.259,9.177c-2.805-0.139-3.803-0.188-6.823-0.334
				c-0.794-0.029-1.7-0.029-1.7-0.029s0,0-1.106,0c-0.158-3.102-0.352-6.338-0.491-9.072L970.222,149.302 M961.843,162.852
				c2.806,0.152,5.487,0.299,8.342,0.455c0.148,3.06,0.297,6.092,0.452,9.356c-2.81-0.224-5.48-0.435-8.349-0.661
				C962.14,168.924,961.995,165.973,961.843,162.852z M962.534,177.566c2.87,0.233,5.549,0.451,8.382,0.683
				c0.183,3.926,0.36,7.783,0.542,11.713c-2.775,0-5.456,0-8.312,0C962.938,185.747,962.74,181.754,962.534,177.566z
				 M963.43,196.266c2.74,0,5.381,0,8.293,0c0.252,4.797,0.497,9.463,0.749,14.25c-2.832,0.219-5.506,0.426-8.32,0.645
				C963.904,206.094,963.668,201.193,963.43,196.266z M964.381,215.77c1.33-0.221,3.122,0.936,3.36,2.028
				c0.041,0.185-0.045,0.448-0.165,0.604c-0.848,1.098-1.718,2.178-2.926,3.211C964.562,219.686,964.472,217.759,964.381,215.77z
				 M965.046,224.995c1.125,1.344,2.249,2.688,3.427,4.099c-1.03,1.299-1.998,2.518-2.966,3.734
				c-0.106-0.023-0.215-0.049-0.322-0.071c-0.126-2.53-0.251-5.06-0.378-7.59C964.888,225.109,964.967,225.052,965.046,224.995z
				 M973.6,236.421c-2.504,0-5.049,0.024-7.593-0.032c-0.296-0.008-0.582-0.476-0.872-0.729c0.105-0.13,0.212-0.261,0.319-0.392
				c2.331-0.106,4.664-0.187,6.993-0.328C973.419,234.879,973.781,235.26,973.6,236.421z"/>
		</g>
		<path fill="#303030" d="M972.626,144.879"/>
		<path fill="#303030" d="M894.013,218.029c-6.018,0-14.063-3.235-23.958-9.637c-7.958-5.147-14.214-10.545-14.275-10.599
			l0.653-0.756c0.246,0.213,24.833,21.339,38.986,19.923c9.877-0.968,24.013-13.756,40.877-36.98
			c12.794-17.617,22.727-35.172,22.824-35.348l0.871,0.49c-0.1,0.176-10.056,17.773-22.881,35.438
			c-17.283,23.804-31.277,36.386-41.595,37.396C895.03,218.005,894.528,218.029,894.013,218.029z"/>
		<path fill="#303030" d="M901.07,217.248c-20.054,0-40.928-19.268-41.14-19.466l0.683-0.73
			c0.214,0.199,21.596,19.962,41.621,19.173c24.072-0.945,68.354-70.904,68.8-71.611l0.846,0.533
			c-0.111,0.178-11.324,17.946-25.401,35.604c-18.972,23.794-33.845,36.065-44.204,36.474
			C901.874,217.24,901.471,217.248,901.07,217.248z"/>
		<path fill="#303030" d="M1023.821,181.688c-14.662-3.599-62.507-34.302-64.536-35.606l0.541-0.84
			c0.495,0.317,49.731,31.918,64.232,35.477L1023.821,181.688z"/>
		<path fill="#303030" d="M1023.821,175.818c-14.671-3.603-51.104-28.682-52.648-29.746l0.568-0.823
			c0.377,0.26,37.826,26.041,52.317,29.599L1023.821,175.818z"/>
		<path fill="#303030" d="M831.794,230.068l-0.207-0.721c15.757-4.52,24.077-32.076,24.159-32.354l0.719,0.213
			c-0.021,0.069-2.127,7.119-6.186,14.642C846.517,218.82,840.255,227.643,831.794,230.068z"/>
		<path fill="#303030" d="M835.961,228.943l-0.207-0.721c15.755-4.52,24.078-30.968,24.16-31.233l0.717,0.221
			c-0.021,0.067-2.128,6.836-6.188,14.079C850.681,218.004,844.419,226.518,835.961,228.943z"/>
	</g>
	<g id="planes">
		<g id="plane_left">
			<path fill="#303030" d="M543.04,104.393c-0.081-0.102-0.163-0.203-0.245-0.305c-0.4,0.314-0.939,0.547-1.175,0.956
				c-0.663,1.146-1.594,1.349-2.842,1.342c-8.029-0.047-16.062-0.068-24.091,0.018c-3.922,0.042-7.894,0.119-11.162,2.846
				c-0.678,0.564-1.381,1.095-2.073,1.641c0.807,0.493,1.604,1.003,2.427,1.469c0.262,0.148,0.585,0.231,0.889,0.259
				c3.541,0.321,7.098,0.539,10.625,0.97c1.749,0.214,3.876-1.092,5.199,1.12c2.006-0.032,4.024,0.056,6.017-0.136
				c1.442-0.139,2.847-0.925,4.274-0.948c5.391-0.087,10.768-0.186,16.061-1.347c5.086-1.115,10.424-1.651,14.078-6.177
				c-1.051,0.136-2.098,0.272-3.367,0.438c1.165-4.24,2.301-8.378,3.438-12.515c-1.905-0.495-3.193-0.007-4.344,1.438
				c-1.934,2.429-4.179,4.615-6.061,7.078c-2.106,2.755-5.253,2.696-8.339,3.775C542.665,105.439,542.852,104.917,543.04,104.393z"
				/>
			<path fill="#303030" d="M543.04,104.393c-0.188,0.523-0.375,1.046-0.689,1.922c3.086-1.079,6.231-1.02,8.339-3.775
				c1.882-2.463,4.127-4.649,6.061-7.078c1.148-1.445,2.438-1.933,4.344-1.438c-1.138,4.137-2.272,8.275-3.438,12.515
				c1.271-0.165,2.316-0.301,3.367-0.438c-3.654,4.526-8.992,5.062-14.078,6.177c-5.293,1.161-10.67,1.259-16.061,1.347
				c-1.429,0.023-2.832,0.809-4.274,0.948c-1.991,0.192-4.011,0.104-6.017,0.136c-1.323-2.212-3.45-0.906-5.199-1.12
				c-3.528-0.431-7.085-0.649-10.625-0.97c-0.303-0.028-0.626-0.111-0.889-0.259c-0.822-0.466-1.62-0.977-2.427-1.469
				c0.691-0.546,1.396-1.077,2.073-1.641c3.269-2.727,7.24-2.804,11.162-2.846c8.029-0.085,16.062-0.065,24.091-0.018
				c1.248,0.007,2.179-0.195,2.842-1.342c0.235-0.408,0.773-0.642,1.175-0.956C542.877,104.19,542.959,104.292,543.04,104.393z"/>
		</g>
		<g id="plane_right">
			<path fill="#303030" d="M490.375,56.407c-3.086-1.079-6.231-1.02-8.338-3.775c-1.883-2.463-4.126-4.65-6.061-7.079
				c-1.148-1.445-2.438-1.933-4.345-1.438c1.137,4.137,2.274,8.275,3.438,12.515c-1.271-0.165-2.317-0.301-3.368-0.438
				c3.655,4.526,8.993,5.062,14.079,6.177c5.293,1.161,10.671,1.259,16.06,1.347c1.429,0.023,2.832,0.809,4.275,0.948
				c1.992,0.192,4.01,0.104,6.016,0.136c1.323-2.212,3.45-0.906,5.199-1.12c3.528-0.431,7.085-0.649,10.625-0.97
				c0.304-0.028,0.627-0.11,0.889-0.259c0.822-0.466,1.62-0.977,2.427-1.469c-0.69-0.546-1.396-1.077-2.071-1.641
				c-3.271-2.727-7.241-2.804-11.163-2.846c-8.029-0.085-16.062-0.064-24.09-0.017c-1.248,0.007-2.18-0.196-2.842-1.342
				c-0.235-0.408-0.774-0.642-1.176-0.956c-0.082,0.102-0.164,0.203-0.246,0.305C489.874,55.008,490.061,55.531,490.375,56.407z"/>
			<path fill="#303030" d="M489.685,54.485c0.188,0.523,0.375,1.046,0.69,1.922c-3.086-1.079-6.231-1.02-8.338-3.775
				c-1.883-2.463-4.126-4.65-6.061-7.079c-1.148-1.445-2.438-1.933-4.345-1.438c1.137,4.137,2.274,8.275,3.438,12.515
				c-1.271-0.165-2.317-0.301-3.368-0.438c3.655,4.526,8.993,5.062,14.079,6.177c5.293,1.161,10.671,1.259,16.06,1.347
				c1.429,0.023,2.832,0.809,4.275,0.948c1.992,0.192,4.01,0.104,6.016,0.136c1.323-2.212,3.45-0.906,5.199-1.12
				c3.528-0.431,7.085-0.649,10.625-0.97c0.304-0.028,0.627-0.11,0.889-0.259c0.822-0.466,1.62-0.977,2.427-1.469
				c-0.69-0.546-1.396-1.077-2.071-1.641c-3.271-2.727-7.241-2.804-11.163-2.846c-8.029-0.085-16.062-0.064-24.09-0.017
				c-1.248,0.007-2.18-0.196-2.842-1.342c-0.235-0.408-0.774-0.642-1.176-0.956C489.849,54.282,489.767,54.383,489.685,54.485z"/>
		</g>
	</g>
	<g id="boats">
		<g id="cruise">
			<path fill="#303030" d="M359.352,225.443c3.773,3.773,7.325,7.354,10.928,10.882c0.344,0.338,1.009,0.487,1.523,0.487
				c24.206,0.023,48.412,0.021,72.617,0.021c0.974,0,1.95,0.05,2.919-0.017c0.312-0.019,0.771-0.258,0.877-0.518
				c1.494-3.597,2.938-7.215,4.406-10.855C421.538,225.443,390.58,225.443,359.352,225.443z M446.48,223.988
				c-0.411-0.987-0.853-1.848-1.122-2.758c-0.28-0.938-0.837-1.137-1.742-1.137c-20.669,0.021-41.337,0.014-62.007,0.018
				c-0.388,0-0.874-0.055-1.146,0.146c-1.537,1.14-3.021,2.351-4.772,3.731C399.472,223.988,422.895,223.988,446.48,223.988z
				 M441.137,218.705c-0.406-0.977-0.842-1.837-1.127-2.747c-0.245-0.783-0.693-0.961-1.456-0.961
				c-15.482,0.022-30.966,0.021-46.447,0.028c-0.394,0-0.886-0.059-1.159,0.144c-1.461,1.078-2.868,2.229-4.52,3.536
				C404.834,218.705,422.909,218.705,441.137,218.705z M399.817,213.57c0.366,0.074,0.451,0.105,0.535,0.105
				c2.967-0.002,5.934,0.027,8.896-0.047c0.453-0.012,1.045-0.398,1.312-0.789c1.371-1.999,2.661-4.054,3.968-6.096
				c0.174-0.271,0.275-0.59,0.458-0.986c-0.643,0-1.136,0.059-1.608-0.01c-3.288-0.482-5.966,0.447-8.229,2.992
				C403.613,210.471,401.715,211.876,399.817,213.57z M423.195,213.62c3.414,0,6.531,0,9.758,0c0.312-1.72,0.618-3.407,0.947-5.218
				c-1.943,0-3.663-0.021-5.383,0.021c-0.3,0.008-0.664,0.213-0.881,0.44C426.207,210.357,424.808,211.886,423.195,213.62z"/>
			<path fill="#303030" d="M359.352,225.443c31.229,0,62.187,0,93.271,0c-1.468,3.642-2.912,7.26-4.406,10.855
				c-0.106,0.26-0.565,0.499-0.877,0.518c-0.97,0.065-1.946,0.017-2.919,0.017c-24.206,0-48.412,0.004-72.617-0.021
				c-0.516,0-1.181-0.149-1.523-0.487C366.677,232.798,363.125,229.218,359.352,225.443z"/>
			<path fill="#303030" d="M446.48,223.988c-23.586,0-47.009,0-70.789,0c1.751-1.383,3.235-2.592,4.772-3.731
				c0.271-0.198,0.758-0.146,1.146-0.146c20.669-0.004,41.337,0.003,62.007-0.018c0.905,0,1.462,0.197,1.742,1.137
				C445.628,222.143,446.069,223.001,446.48,223.988z M390.095,221.1c-0.3,0.524-0.665,0.885-0.593,1.107
				c0.086,0.27,0.527,0.54,0.841,0.575c0.175,0.018,0.591-0.474,0.56-0.685C390.857,221.809,390.494,221.562,390.095,221.1z
				 M438.896,222.13c-0.533-0.339-0.848-0.698-1.11-0.663c-0.277,0.036-0.503,0.45-0.75,0.699c0.238,0.221,0.474,0.611,0.713,0.614
				C438.048,222.779,438.349,222.461,438.896,222.13z M435.819,222.198c-0.438-0.353-0.713-0.742-0.973-0.731
				c-0.265,0.012-0.513,0.414-0.769,0.646c0.256,0.234,0.482,0.586,0.782,0.666C435.06,222.829,435.36,222.492,435.819,222.198z
				 M424.031,222.139c-0.535-0.345-0.851-0.705-1.113-0.673c-0.278,0.034-0.507,0.448-0.757,0.697
				c0.237,0.221,0.472,0.617,0.713,0.62C423.173,222.786,423.478,222.466,424.031,222.139z M420.942,222.198
				c-0.441-0.355-0.717-0.748-0.968-0.732c-0.268,0.017-0.513,0.415-0.77,0.646c0.257,0.236,0.484,0.584,0.783,0.662
				C420.186,222.826,420.485,222.49,420.942,222.198z M408.096,223.118c0.323-0.484,0.708-0.816,0.657-1.052
				c-0.057-0.262-0.502-0.573-0.802-0.601c-0.203-0.019-0.651,0.442-0.625,0.642C407.366,222.404,407.725,222.663,408.096,223.118z
				 M405.038,223.104c0.347-0.399,0.729-0.658,0.699-0.85c-0.047-0.302-0.374-0.559-0.583-0.834
				c-0.275,0.213-0.721,0.391-0.775,0.65C404.331,222.302,404.713,222.626,405.038,223.104z M394.279,222.127
				c-0.532-0.336-0.848-0.695-1.111-0.659c-0.278,0.037-0.504,0.451-0.753,0.7c0.238,0.221,0.476,0.616,0.712,0.615
				C393.428,222.782,393.729,222.462,394.279,222.127z"/>
			<path fill="#303030" d="M441.137,218.705c-18.229,0-36.303,0-54.708,0c1.651-1.307,3.059-2.458,4.52-3.536
				c0.272-0.201,0.766-0.144,1.159-0.144c15.481-0.01,30.964-0.006,46.447-0.028c0.763,0,1.21,0.178,1.456,0.961
				C440.295,216.868,440.73,217.729,441.137,218.705z M406.461,216.954c-0.457-0.386-0.73-0.791-0.994-0.783
				c-0.233,0.006-0.584,0.448-0.638,0.742c-0.037,0.198,0.359,0.674,0.551,0.67C405.68,217.575,405.969,217.264,406.461,216.954z
				 M428.739,215.773c-0.374,0.527-0.747,0.82-0.729,1.09c0.021,0.275,0.417,0.527,0.651,0.791c0.221-0.225,0.606-0.438,0.625-0.678
				C429.307,216.68,429.024,216.359,428.739,215.773z M431.624,215.739c-0.369,0.558-0.688,0.834-0.704,1.126
				c-0.013,0.249,0.325,0.517,0.508,0.775c0.265-0.222,0.69-0.406,0.746-0.672C432.23,216.703,431.921,216.357,431.624,215.739z
				 M397.732,216.934c-0.47-0.384-0.717-0.729-1.002-0.769c-0.187-0.024-0.621,0.415-0.606,0.623
				c0.021,0.295,0.308,0.729,0.565,0.799C396.902,217.646,397.236,217.266,397.732,216.934z M393.777,215.734
				c-0.307,0.605-0.621,0.945-0.57,1.214c0.053,0.268,0.47,0.465,0.728,0.692c0.187-0.256,0.526-0.515,0.52-0.764
				C394.444,216.585,394.133,216.302,393.777,215.734z M399.658,215.771c-0.327,0.551-0.631,0.842-0.639,1.139
				c-0.004,0.242,0.349,0.488,0.542,0.734c0.256-0.238,0.674-0.447,0.719-0.72C400.324,216.66,399.983,216.335,399.658,215.771z
				 M438.392,216.909c-0.494-0.375-0.807-0.779-1.026-0.735c-0.257,0.053-0.565,0.479-0.604,0.776
				c-0.025,0.204,0.376,0.657,0.572,0.649C437.618,217.59,437.889,217.261,438.392,216.909z M435.464,216.934
				c-0.476-0.388-0.785-0.81-0.989-0.765c-0.268,0.062-0.585,0.47-0.63,0.767c-0.029,0.201,0.364,0.654,0.577,0.66
				C434.692,217.602,434.97,217.27,435.464,216.934z M425.754,217.971c0.316-0.521,0.628-0.813,0.629-1.107
				c0.001-0.243-0.366-0.488-0.568-0.73c-0.257,0.238-0.687,0.455-0.721,0.723C425.062,217.122,425.421,217.441,425.754,217.971z
				 M402.603,217.928c0.291-0.513,0.631-0.842,0.594-1.123c-0.032-0.25-0.482-0.445-0.748-0.664
				c-0.189,0.295-0.503,0.582-0.528,0.893C401.902,217.255,402.267,217.51,402.603,217.928z"/>
			<path fill="#303030" d="M399.817,213.57c1.897-1.694,3.796-3.102,5.333-4.829c2.263-2.544,4.94-3.476,8.229-2.992
				c0.473,0.067,0.966,0.01,1.608,0.01c-0.184,0.397-0.285,0.716-0.458,0.986c-1.307,2.042-2.597,4.097-3.968,6.096
				c-0.268,0.392-0.859,0.777-1.312,0.789c-2.964,0.074-5.931,0.045-8.896,0.047C400.269,213.677,400.185,213.646,399.817,213.57z"
				/>
			<path fill="#303030" d="M423.195,213.62c1.612-1.734,3.012-3.263,4.441-4.756c0.217-0.229,0.581-0.435,0.881-0.44
				c1.72-0.042,3.438-0.021,5.383-0.021c-0.329,1.811-0.635,3.498-0.947,5.218C429.727,213.62,426.608,213.62,423.195,213.62z"/>
			<path fill="#303030" d="M390.095,221.1c0.399,0.465,0.763,0.709,0.808,1c0.031,0.209-0.385,0.7-0.56,0.684
				c-0.312-0.035-0.754-0.307-0.841-0.575C389.43,221.984,389.794,221.624,390.095,221.1z"/>
			<path fill="#303030" d="M438.896,222.13c-0.548,0.331-0.848,0.649-1.146,0.649c-0.239-0.002-0.476-0.395-0.713-0.613
				c0.247-0.249,0.473-0.663,0.75-0.699C438.048,221.432,438.363,221.791,438.896,222.13z"/>
			<path fill="#303030" d="M435.819,222.198c-0.459,0.294-0.761,0.631-0.958,0.579c-0.299-0.079-0.525-0.43-0.782-0.666
				c0.255-0.23,0.504-0.635,0.769-0.646C435.106,221.456,435.381,221.848,435.819,222.198z"/>
			<path fill="#303030" d="M424.031,222.139c-0.554,0.327-0.857,0.647-1.157,0.646c-0.241-0.003-0.477-0.399-0.713-0.62
				c0.25-0.249,0.479-0.663,0.757-0.697C423.181,221.434,423.496,221.794,424.031,222.139z"/>
			<path fill="#303030" d="M420.942,222.198c-0.457,0.292-0.757,0.628-0.954,0.575c-0.298-0.078-0.525-0.426-0.783-0.662
				c0.256-0.23,0.501-0.631,0.77-0.646C420.226,221.45,420.501,221.843,420.942,222.198z"/>
			<path fill="#303030" d="M408.096,223.118c-0.371-0.455-0.729-0.714-0.77-1.011c-0.026-0.198,0.422-0.659,0.625-0.642
				c0.299,0.026,0.745,0.339,0.802,0.601C408.803,222.302,408.418,222.634,408.096,223.118z"/>
			<path fill="#303030" d="M405.038,223.104c-0.324-0.479-0.707-0.803-0.658-1.033c0.055-0.26,0.5-0.438,0.775-0.649
				c0.209,0.274,0.535,0.532,0.583,0.834C405.767,222.445,405.385,222.704,405.038,223.104z"/>
			<path fill="#303030" d="M394.279,222.127c-0.551,0.335-0.852,0.655-1.152,0.656c-0.236,0.001-0.474-0.395-0.712-0.615
				c0.25-0.249,0.476-0.663,0.753-0.7C393.432,221.432,393.747,221.791,394.279,222.127z"/>
			<path fill="#303030" d="M406.461,216.954c-0.492,0.31-0.782,0.621-1.08,0.629c-0.191,0.004-0.588-0.472-0.551-0.67
				c0.053-0.294,0.403-0.736,0.638-0.742C405.73,216.163,406.005,216.568,406.461,216.954z"/>
			<path fill="#303030" d="M428.739,215.773c0.285,0.586,0.567,0.906,0.547,1.203c-0.018,0.24-0.403,0.453-0.625,0.678
				c-0.233-0.264-0.631-0.516-0.651-0.791C427.992,216.596,428.365,216.302,428.739,215.773z"/>
			<path fill="#303030" d="M431.624,215.739c0.297,0.618,0.606,0.964,0.55,1.229c-0.056,0.266-0.481,0.45-0.746,0.672
				c-0.183-0.26-0.521-0.526-0.508-0.775C430.935,216.573,431.255,216.297,431.624,215.739z"/>
			<path fill="#303030" d="M397.732,216.934c-0.496,0.332-0.83,0.713-1.043,0.653c-0.258-0.069-0.543-0.504-0.565-0.799
				c-0.014-0.208,0.42-0.647,0.606-0.623C397.017,216.204,397.263,216.55,397.732,216.934z"/>
			<path fill="#303030" d="M393.777,215.734c0.354,0.566,0.667,0.851,0.677,1.144c0.007,0.249-0.333,0.508-0.52,0.765
				c-0.257-0.229-0.674-0.427-0.728-0.693C393.157,216.68,393.472,216.341,393.777,215.734z"/>
			<path fill="#303030" d="M399.658,215.771c0.325,0.563,0.666,0.89,0.623,1.153c-0.044,0.271-0.462,0.479-0.719,0.72
				c-0.193-0.246-0.547-0.492-0.541-0.734C399.027,216.611,399.331,216.32,399.658,215.771z"/>
			<path fill="#303030" d="M438.392,216.909c-0.503,0.352-0.773,0.681-1.06,0.69c-0.195,0.008-0.598-0.445-0.572-0.649
				c0.039-0.298,0.348-0.726,0.604-0.776C437.585,216.13,437.897,216.534,438.392,216.909z"/>
			<path fill="#303030" d="M435.464,216.934c-0.494,0.336-0.771,0.668-1.042,0.662c-0.213-0.006-0.606-0.459-0.577-0.66
				c0.045-0.297,0.362-0.705,0.63-0.767C434.679,216.124,434.988,216.546,435.464,216.934z"/>
			<path fill="#303030" d="M425.754,217.971c-0.333-0.529-0.693-0.849-0.659-1.117c0.034-0.267,0.464-0.482,0.721-0.722
				c0.202,0.242,0.569,0.487,0.568,0.729C426.382,217.156,426.07,217.449,425.754,217.971z"/>
			<path fill="#303030" d="M402.603,217.928c-0.336-0.418-0.699-0.673-0.682-0.896c0.025-0.312,0.338-0.599,0.528-0.894
				c0.266,0.219,0.715,0.414,0.748,0.664C403.233,217.086,402.894,217.415,402.603,217.928z"/>
		</g>
		<g id="boat_right">
			<path fill="#303030" d="M30.074,204.036c-7.227,8.821-14.391,17.567-21.59,26.358c7.252,0,14.409,0,21.59,0
				C30.074,221.633,30.074,212.893,30.074,204.036z M32.189,230.387c4.33,0,8.61,0,12.902,0c0.027-0.236,0.063-0.445,0.075-0.658
				c0.188-3.271-0.559-6.34-2.091-9.211c-2.246-4.205-5.519-7.423-9.643-9.787c-0.395-0.227-0.809-0.416-1.244-0.64
				C32.189,216.906,32.189,223.639,32.189,230.387z M13.57,232.354c0,1.697-0.002,3.358,0.008,5.02c0,0.076,0.095,0.191,0.172,0.223
				c0.457,0.178,0.917,0.35,1.384,0.498c1.492,0.475,2.933,0.283,4.348-0.332c1.001-0.437,2.059-0.555,3.122-0.316
				c0.668,0.15,1.309,0.424,1.964,0.633c1.517,0.484,2.986,0.316,4.426-0.316c0.779-0.343,1.602-0.445,2.452-0.408
				c0.856,0.033,1.629,0.336,2.411,0.64c2.224,0.864,4.865,0.165,6.317-1.661c0.985-1.239,1.962-2.484,2.942-3.729
				c0.052-0.066,0.087-0.146,0.148-0.248C33.356,232.354,23.496,232.354,13.57,232.354z"/>
			<path fill="#303030" d="M30.074,204.036c0,8.854,0,17.597,0,26.358c-7.181,0-14.338,0-21.59,0
				C15.683,221.604,22.847,212.857,30.074,204.036z"/>
			<path fill="#303030" d="M32.189,230.387c0-6.748,0-13.479,0-20.296c0.435,0.224,0.849,0.413,1.244,0.64
				c4.124,2.365,7.397,5.582,9.643,9.787c1.532,2.871,2.279,5.939,2.091,9.211c-0.012,0.213-0.048,0.422-0.075,0.658
				C40.799,230.387,36.519,230.387,32.189,230.387z"/>
			<path fill="#303030" d="M13.57,232.354c9.926,0,19.786,0,29.693,0c-0.061,0.104-0.096,0.182-0.148,0.248
				c-0.98,1.242-1.957,2.488-2.942,3.729c-1.452,1.826-4.093,2.525-6.317,1.661c-0.782-0.304-1.555-0.605-2.411-0.64
				c-0.851-0.037-1.673,0.065-2.452,0.408c-1.44,0.635-2.91,0.803-4.426,0.316c-0.655-0.209-1.295-0.481-1.964-0.633
				c-1.063-0.237-2.12-0.119-3.122,0.315c-1.415,0.616-2.855,0.808-4.348,0.333c-0.467-0.148-0.927-0.32-1.384-0.498
				c-0.077-0.029-0.171-0.146-0.172-0.223C13.567,235.712,13.57,234.051,13.57,232.354z"/>
		</g>
		<g id="boat_left">
			<path fill="#303030" d="M478.955,230.395c7.181,0,14.338,0,21.59,0c-7.199-8.789-14.363-17.535-21.59-26.357
				C478.955,212.893,478.955,221.633,478.955,230.395z M476.84,210.091c-0.435,0.224-0.849,0.413-1.244,0.64
				c-4.124,2.365-7.396,5.582-9.643,9.787c-1.532,2.871-2.279,5.939-2.091,9.211c0.012,0.213,0.048,0.422,0.075,0.658
				c4.291,0,8.571,0,12.901,0C476.84,223.639,476.84,216.906,476.84,210.091z M465.766,232.354c0.062,0.104,0.097,0.182,0.148,0.248
				c0.979,1.242,1.957,2.488,2.942,3.729c1.451,1.826,4.093,2.525,6.316,1.661c0.782-0.304,1.555-0.605,2.411-0.64
				c0.851-0.037,1.673,0.065,2.452,0.408c1.439,0.635,2.91,0.803,4.426,0.316c0.655-0.209,1.295-0.481,1.964-0.633
				c1.063-0.237,2.12-0.119,3.122,0.315c1.415,0.616,2.855,0.808,4.348,0.333c0.468-0.148,0.928-0.32,1.385-0.498
				c0.077-0.029,0.171-0.146,0.172-0.223c0.01-1.66,0.008-3.321,0.008-5.02C485.533,232.354,475.673,232.354,465.766,232.354z"/>
			<path fill="#303030" d="M478.955,204.036c0,8.854,0,17.597,0,26.358c7.181,0,14.338,0,21.59,0
				C493.346,221.604,486.182,212.857,478.955,204.036z"/>
			<path fill="#303030" d="M476.84,230.387c0-6.748,0-13.479,0-20.296c-0.435,0.224-0.849,0.413-1.244,0.64
				c-4.124,2.365-7.396,5.582-9.643,9.787c-1.532,2.871-2.279,5.939-2.091,9.211c0.012,0.213,0.048,0.422,0.075,0.658
				C468.229,230.387,472.51,230.387,476.84,230.387z"/>
			<path fill="#303030" d="M495.459,232.354c-9.926,0-19.786,0-29.693,0c0.062,0.104,0.097,0.182,0.148,0.248
				c0.98,1.242,1.957,2.488,2.942,3.729c1.451,1.826,4.093,2.525,6.316,1.661c0.782-0.304,1.555-0.605,2.411-0.64
				c0.851-0.037,1.673,0.065,2.452,0.408c1.439,0.635,2.91,0.803,4.426,0.316c0.655-0.209,1.295-0.481,1.964-0.633
				c1.063-0.237,2.12-0.119,3.122,0.315c1.415,0.616,2.855,0.808,4.349,0.333c0.467-0.148,0.927-0.32,1.384-0.498
				c0.077-0.029,0.171-0.146,0.172-0.223C495.461,235.712,495.459,234.051,495.459,232.354z"/>
		</g>
	</g>
</g>
</svg>
