<?xml version="1.0" encoding="utf-8"?>
<!-- Generator: Adobe Illustrator 16.0.0, SVG Export Plug-In . SVG Version: 6.00 Build 0)  -->
<!DOCTYPE svg PUBLIC "-//W3C//DTD SVG 1.1//EN" "http://www.w3.org/Graphics/SVG/1.1/DTD/svg11.dtd">
<svg version="1.1" id="Layer_1" xmlns="http://www.w3.org/2000/svg" xmlns:xlink="http://www.w3.org/1999/xlink" x="0px" y="0px"
	 width="256px" height="256px" viewBox="0 0 256 256" enable-background="new 0 0 256 256" xml:space="preserve">
<g>
	<path fill="#FFFFFF" d="M180.445,127.903c0,17.025-0.043,34.05,0.018,51.076c0.031,8.816,8.502,15.199,17.016,12.963
		c6.457-1.695,10.305-6.998,10.307-14.268c0.008-30.105,0.004-60.208,0.004-90.312c0-3.213,0.039-6.427-0.01-9.641
		c-0.113-7.802-5.781-13.881-13.084-14.083c-8.023-0.222-14.236,5.789-14.246,13.866
		C180.426,94.303,180.441,111.104,180.445,127.903z M75.568,128.07c0-16.968,0.04-33.936-0.017-50.905
		c-0.031-9.349-9.193-15.803-18.041-12.82c-5.763,1.942-9.283,7.176-9.285,13.883c-0.008,31.007-0.004,62.013-0.004,93.019
		c0,2.424-0.046,4.85,0.013,7.271c0.217,8.744,7.043,14.707,15.651,13.711c6.511-0.754,11.656-6.604,11.669-13.42
		C75.588,161.895,75.566,144.984,75.568,128.07z M80.418,144.818c3.253,0.695,4.223,0.246,6.003-2.336
		c0.406-0.59,1.279-1.096,1.992-1.18c1.095-0.131,2.236,0.146,3.361,0.23c10.047,0.754,20.084,1.783,30.146,2.191
		c15.06,0.609,30.06-0.664,45.013-2.412c1.184-0.141,2.041,0.033,2.713,1.135c1.633,2.674,2.695,3.068,5.945,2.371
		c0-11.334,0-22.686,0-34.073c-2.611-0.417-4.865-0.425-6.133,2.479c-0.258,0.59-1.576,1.081-2.359,1.025
		c-10.332-0.74-20.643-1.989-30.984-2.291c-9.951-0.29-19.935,0.224-29.891,0.675c-5.784,0.262-11.537,1.142-17.315,1.614
		c-0.781,0.063-2.1-0.434-2.358-1.024c-1.268-2.906-3.522-2.893-6.132-2.48C80.418,122.133,80.418,133.484,80.418,144.818z
		 M19.332,127.928c0,12.626-0.023,25.253,0.009,37.878c0.016,6.832,5.225,12.115,11.878,12.158
		c6.6,0.041,12.093-5.277,12.105-11.984c0.049-25.311,0.035-50.62,0-75.928c-0.004-3.611-1.397-6.735-4.202-9.054
		c-3.861-3.191-8.237-3.867-12.787-1.785c-4.546,2.081-6.975,5.781-6.992,10.835C19.299,102.675,19.328,115.301,19.332,127.928z
		 M236.676,128.101c0.004,0,0.004,0,0.008,0c0-12.4,0.006-24.801-0.01-37.202c-0.002-1.12-0.006-2.274-0.254-3.355
		c-1.434-6.249-6.836-10.011-13.32-9.356c-5.795,0.584-10.414,5.85-10.422,12.032c-0.023,25.196-0.033,50.393,0.039,75.588
		c0.004,1.742,0.471,3.6,1.178,5.203c2.305,5.211,7.926,7.859,13.57,6.621c5.273-1.154,9.174-5.92,9.195-11.482
		C236.711,153.467,236.676,140.783,236.676,128.101z M14.547,115.754c-3.01,0-5.829-0.097-8.638,0.026
		c-2.973,0.131-5.42,2.7-5.458,5.652c-0.057,4.396-0.053,8.792,0,13.188c0.03,2.453,1.797,5.055,4.171,5.309
		c3.258,0.348,6.581,0.086,9.924,0.086C14.547,132.021,14.547,123.984,14.547,115.754z M241.432,140.166
		c3.137,0,6.121,0.191,9.07-0.053c3.014-0.25,5.041-2.74,5.066-5.771c0.033-4.227,0.027-8.454,0-12.681
		c-0.018-2.69-1.619-5.211-4.271-5.547c-3.229-0.408-6.549-0.098-9.865-0.098C241.432,124.021,241.432,132.016,241.432,140.166z"/>
	<path fill-rule="evenodd" clip-rule="evenodd" fill="#FFFFFF" d="M180.443,127.903c-0.002-16.799-0.018-33.6,0.006-50.399
		c0.01-8.077,6.223-14.087,14.246-13.866c7.303,0.201,12.971,6.281,13.084,14.083c0.049,3.214,0.01,6.428,0.01,9.641
		c0,30.104,0.004,60.207-0.004,90.312c-0.002,7.27-3.85,12.572-10.307,14.268c-8.514,2.236-16.984-4.146-17.016-12.963
		C180.402,161.953,180.445,144.928,180.443,127.903z"/>
	<path fill-rule="evenodd" clip-rule="evenodd" fill="#FFFFFF" d="M75.568,128.07c-0.001,16.915,0.02,33.825-0.012,50.739
		c-0.013,6.816-5.158,12.666-11.669,13.42c-8.608,0.996-15.435-4.967-15.651-13.711c-0.06-2.422-0.013-4.848-0.013-7.271
		c0-31.006-0.004-62.012,0.004-93.019c0.002-6.707,3.521-11.94,9.285-13.883c8.848-2.983,18.01,3.471,18.041,12.82
		C75.608,94.134,75.568,111.102,75.568,128.07z"/>
	<path fill-rule="evenodd" clip-rule="evenodd" fill="#FFFFFF" d="M80.418,144.818c0-11.334,0-22.685,0-34.075
		c2.61-0.413,4.865-0.426,6.132,2.48c0.258,0.591,1.577,1.088,2.358,1.024c5.778-0.472,11.531-1.352,17.315-1.614
		c9.957-0.451,19.94-0.964,29.891-0.675c10.342,0.301,20.652,1.551,30.984,2.291c0.783,0.056,2.102-0.436,2.359-1.025
		c1.268-2.904,3.521-2.896,6.133-2.479c0,11.387,0,22.739,0,34.073c-3.25,0.697-4.312,0.303-5.945-2.371
		c-0.672-1.102-1.529-1.275-2.713-1.135c-14.953,1.748-29.953,3.021-45.013,2.412c-10.062-0.408-20.099-1.438-30.146-2.191
		c-1.125-0.084-2.267-0.361-3.361-0.23c-0.713,0.084-1.585,0.59-1.992,1.18C84.642,145.064,83.672,145.514,80.418,144.818z"/>
	<path fill-rule="evenodd" clip-rule="evenodd" fill="#FFFFFF" d="M19.33,127.928c-0.001-12.627-0.031-25.253,0.013-37.879
		c0.018-5.054,2.446-8.754,6.992-10.835c4.55-2.083,8.926-1.407,12.787,1.785c2.805,2.319,4.198,5.443,4.202,9.054
		c0.035,25.308,0.049,50.617,0,75.928c-0.013,6.707-5.505,12.025-12.105,11.984c-6.654-0.043-11.862-5.326-11.878-12.158
		C19.308,153.182,19.332,140.555,19.33,127.928z"/>
	<path fill-rule="evenodd" clip-rule="evenodd" fill="#FFFFFF" d="M236.676,128.101c0,12.682,0.035,25.366-0.016,38.047
		c-0.021,5.562-3.922,10.328-9.195,11.482c-5.645,1.238-11.266-1.41-13.57-6.621c-0.707-1.604-1.174-3.461-1.178-5.203
		c-0.072-25.195-0.062-50.392-0.039-75.588c0.008-6.182,4.627-11.447,10.422-12.032c6.484-0.654,11.887,3.108,13.32,9.356
		c0.248,1.082,0.252,2.235,0.254,3.355c0.016,12.401,0.01,24.802,0.01,37.202C236.68,128.101,236.68,128.101,236.676,128.101z"/>
	<path fill-rule="evenodd" clip-rule="evenodd" fill="#FFFFFF" d="M14.547,115.754c0,8.229,0,16.267,0,24.261
		c-3.344,0-6.666,0.262-9.924-0.086c-2.375-0.254-4.142-2.855-4.171-5.309c-0.053-4.396-0.058-8.792,0-13.188
		c0.038-2.952,2.485-5.521,5.458-5.652C8.718,115.658,11.537,115.754,14.547,115.754z"/>
	<path fill-rule="evenodd" clip-rule="evenodd" fill="#FFFFFF" d="M241.432,140.166c0-8.15,0-16.145,0-24.15
		c3.316,0,6.637-0.311,9.865,0.098c2.652,0.336,4.254,2.856,4.271,5.547c0.027,4.228,0.033,8.455,0,12.681
		c-0.025,3.031-2.053,5.521-5.066,5.771C247.553,140.357,244.568,140.166,241.432,140.166z"/>
</g>
</svg>
